<svg xmlns="http://www.w3.org/2000/svg" xmlns:xlink="http://www.w3.org/1999/xlink" id="icon-about-Defendre" x="0px" y="0px" viewBox="0 0 90 90" style="enable-background:new 0 0 90 90;" xml:space="preserve"><style type="text/css">	.st0{fill:#07799D;}	.st1{fill:#FFFFFF;}</style><circle class="st0" cx="45" cy="45" r="45"></circle><g>	<path class="st1" d="M61.8,28l-0.1-0.6c-0.1-0.7-0.5-1.3-1.1-1.8c-1.4-1.1-6.9-4.1-15.2-5c-1.1-0.1-2.1,0.5-2.5,1.6L40.8,29  c-0.1,0.3,0,0.6,0.1,0.8l1.2,2.1l-0.4,0.2c-0.5,0.3-0.8,0.8-1,1.3c-0.1,0.5,0,1.1,0.2,1.6c0.2,0.3,0.5,0.6,0.8,0.8  c0.2,0.1,0.3,0.1,0.5,0.1c1.1,0,4.3,0,5.4,0.1c0.7,0.1,3,0.4,4,0.5c0.1,5.6-4.4,10.6-6,12.2c-2-1.4-4.2-2.4-6.6-3  c-4.5-1-9.1-0.1-12.6,2.5c-0.4,0.3-0.5,1-0.2,1.4c0.3,0.4,1,0.5,1.4,0.2c3-2.3,7-3,11-2.2c4.8,1.1,9.1,4.5,11.7,9.4  c0.2,0.3,0.5,0.5,0.9,0.5c0.2,0,0.3,0,0.5-0.1c0.5-0.3,0.7-0.9,0.4-1.3c-1.3-2.4-2.9-4.5-4.9-6.2c2.3-2.3,8.1-9,6-16.4  c-0.2-0.5-0.7-0.8-1.2-0.7c-0.5,0.2-0.8,0.7-0.7,1.2c0,0.1,0.1,0.3,0.1,0.4c-1.1-0.1-2.9-0.3-3.5-0.4c-1.2-0.2-4.2-0.1-5.3-0.1  c0,0,0-0.1,0,0l5.8-2.8c0.5-0.2,0.7-0.8,0.5-1.3s-0.8-0.7-1.3-0.5L43.9,31l-1.1-1.9l2-6.3c0-0.2,0.2-0.3,0.4-0.2  c7.8,0.9,13,3.7,14.1,4.6c0.2,0.1,0.3,0.3,0.3,0.5l0.1,0.6c2.5,14.6,2.6,27,0.2,36.7c-3,0.8-18,4.7-32.4-0.2  c-0.5-0.2-1.1,0.1-1.3,0.6c-0.2,0.5,0.1,1.1,0.6,1.3c5.6,1.9,11.3,2.6,16.4,2.6c9.8,0,17.3-2.4,17.8-2.6c0.3-0.1,0.6-0.4,0.7-0.7  C64.4,56,64.4,43.2,61.8,28L61.8,28z"></path>	<path class="st1" d="M39,61.5c0.8,0,1.5,0,2.3-0.1c0.5-0.1,0.9-0.6,0.9-1.1c-0.1-0.5-0.6-0.9-1.1-0.9c-3.6,0.4-7.3-0.3-10.5-2  c-0.5-0.3-1.1-0.1-1.4,0.4c-0.3,0.5-0.1,1.1,0.4,1.4C32.5,60.7,35.7,61.5,39,61.5L39,61.5z"></path></g></svg>