<svg xmlns="http://www.w3.org/2000/svg" xmlns:xlink="http://www.w3.org/1999/xlink" id="icon-about-Defendre" x="0px" y="0px" viewBox="0 0 90 90" style="enable-background:new 0 0 90 90;" xml:space="preserve"><style type="text/css">	.st0{fill:#07799D;}	.st1{fill:#FFFFFF;}</style><circle class="st0" cx="45" cy="45" r="45"></circle><path class="st1" d="M69.9,43c-0.3-0.5-0.9-0.6-1.4-0.2l-6.3,4.5l-9.6-8.4c-1.5-1.2-3.6-1.3-5.2-0.2c-2,1.5-4.9,2.9-8,2.2l7.5-8.2 c0.7-0.8,1.8-1.1,2.8-0.9l12.1,2.5c0.5,0.1,1.1-0.2,1.2-0.8c0.1-0.5-0.2-1.1-0.8-1.2l-12.1-2.5c-1.7-0.3-3.5,0.2-4.7,1.5l-1.9,2.1 l-1.5-0.8c-1.6-0.9-3.4-1.4-5.1-1.4l-6.8-0.4c-0.5,0-1,0.4-1,0.9c0,0.6,0.4,1,0.9,1.1l6.8,0.4c1.5,0.1,3,0.5,4.3,1.2l1,0.6L37,40.7 c-0.2,0.2-0.3,0.6-0.2,0.9c0.1,0.3,0.3,0.6,0.6,0.7c4.6,2,9-0.3,11.3-2c0.8-0.6,1.9-0.5,2.7,0.1l9.3,8L58.4,50l-6.1-4.7 c-0.4-0.3-1.1-0.2-1.4,0.2c-0.3,0.4-0.2,1.1,0.2,1.4l6,4.6l-0.5,0.9c-0.6,0.9-1.6,1.3-2.7,1L47,48c-0.4-0.3-1.1-0.3-1.4,0.2 c-0.3,0.4-0.3,1.1,0.2,1.4l6.1,4.8l-1.1,1.1c-0.7,0.6-1.6,0.8-2.5,0.5l-0.2-0.1l-6.8-5.5c-0.4-0.3-1.1-0.3-1.4,0.1 c-0.3,0.4-0.3,1.1,0.1,1.4l6,4.9l-0.8,0.7c-0.7,0.7-1.7,0.8-2.6,0.5l-8.6-3.7l-12.6-9.6c-0.4-0.3-1.1-0.2-1.4,0.2s-0.2,1.1,0.2,1.4 L33,56c0.1,0,0.1,0.1,0.2,0.1l8.7,3.8c0.6,0.2,1.2,0.4,1.8,0.4c1.1,0,2.2-0.4,3-1.2l1.1-1.1c1.5,0.5,3.2,0.1,4.3-1l1.6-1.5 c1.8,0.3,3.5-0.4,4.5-2l0.9-1.5l10.6-7.5C70.1,44.1,70.3,43.5,69.9,43L69.9,43z"></path></svg>