<svg xmlns="http://www.w3.org/2000/svg" id="Component_23_1" data-name="Component 23 &#x2013; 1" width="145" height="145" viewBox="0 0 145 145"><circle id="Ellipse_41" data-name="Ellipse 41" cx="72.5" cy="72.5" r="72.5" fill="#1b4053"></circle><g id="Group_227" data-name="Group 227" transform="translate(35 53)"><path id="Path_212" data-name="Path 212" d="M206.86,180.335V152.593l-8.661,5.314-3.614-5.74,13.446-8.556h6.962v36.723Z" transform="translate(-194.585 -142.602)" fill="#fff"></path><path id="Path_213" data-name="Path 213" d="M229.6,181.617q-8.235,0-12.3-4.81t-4.066-14.482q0-9.566,4.173-14.482t12.356-4.916q8.184,0,12.25,4.811t4.064,14.48q0,9.566-4.172,14.482T229.6,181.617Zm.055-6.643q4.252,0,6.191-3.029t1.94-9.725q0-6.641-1.94-9.646t-6.191-3q-4.252,0-6.193,3.029t-1.938,9.725q0,6.645,1.938,9.646T229.655,174.974Z" transform="translate(-185.705 -142.928)" fill="#fff"></path><path id="Path_214" data-name="Path 214" d="M241.4,153.781a4.212,4.212,0,0,1-3.257-1.3,5.717,5.717,0,0,1,.012-7.017,4.707,4.707,0,0,1,6.5-.01,5.72,5.72,0,0,1-.012,7.015A4.207,4.207,0,0,1,241.4,153.781Zm0-1.456a2.324,2.324,0,0,0,1.958-.849,4.039,4.039,0,0,0,.66-2.507q0-3.357-2.617-3.357a2.326,2.326,0,0,0-1.959.85,4.046,4.046,0,0,0-.66,2.507Q238.784,152.327,241.4,152.326Zm.895,7.586,9.556-15.462h2.058l-9.554,15.462Zm12.508.291a4.211,4.211,0,0,1-3.255-1.3,5.714,5.714,0,0,1,.012-7.015,4.7,4.7,0,0,1,6.5-.012,5.717,5.717,0,0,1-.012,7.017A4.207,4.207,0,0,1,254.806,160.2Zm0-1.454a2.325,2.325,0,0,0,1.958-.85,4.027,4.027,0,0,0,.66-2.507q0-3.357-2.617-3.356a2.33,2.33,0,0,0-1.957.849,4.042,4.042,0,0,0-.661,2.507Q252.187,158.749,254.806,158.749Z" transform="translate(-174.409 -142.342)" fill="#fff"></path></g></svg>