<svg xmlns="http://www.w3.org/2000/svg" id="Component_22_1" data-name="Component 22 &#x2013; 1" width="145" height="145" viewBox="0 0 145 145"><circle id="Ellipse_40" data-name="Ellipse 40" cx="72.5" cy="72.5" r="72.5" fill="#07799d"></circle><g id="Group_228" data-name="Group 228" transform="translate(33 54)"><path id="Path_215" data-name="Path 215" d="M199.654,133.335A119.37,119.37,0,0,1,214.747,103.2H192.533v-6.59h30.983v5.952a117.89,117.89,0,0,0-8.741,14.668,122.381,122.381,0,0,0-6.618,16.1Z" transform="translate(-192.533 -96.612)" fill="#fff"></path><path id="Path_216" data-name="Path 216" d="M224.856,103.2l-.692,8.4a15.043,15.043,0,0,1,3.961-1.674,19.565,19.565,0,0,1,4.756-.5q6.481,0,10.071,3.136t3.587,8.875q0,6.165-3.986,9.513t-11.267,3.348q-14.458,0-15.678-11.639h7.653a6.194,6.194,0,0,0,2.418,4.092,10.2,10.2,0,0,0,5.5,1.169q3.72,0,5.555-1.594a6.139,6.139,0,0,0,1.832-4.889,5.283,5.283,0,0,0-1.86-4.464q-1.858-1.435-5.685-1.435a15.114,15.114,0,0,0-4.57.558,8.035,8.035,0,0,0-3.082,1.887h-6.749l1.752-21.364h25.458v6.59Z" transform="translate(-181.543 -96.612)" fill="#fff"></path><path id="Path_217" data-name="Path 217" d="M242.123,106.781a4.214,4.214,0,0,1-3.257-1.3,5.719,5.719,0,0,1,.01-7.017,4.707,4.707,0,0,1,6.5-.01,5.72,5.72,0,0,1-.012,7.015A4.2,4.2,0,0,1,242.123,106.781Zm0-1.456a2.328,2.328,0,0,0,1.957-.849,4.039,4.039,0,0,0,.66-2.507q0-3.357-2.617-3.357a2.328,2.328,0,0,0-1.959.85,4.036,4.036,0,0,0-.66,2.507Q239.5,105.327,242.123,105.326Zm.893,7.586,9.556-15.462h2.058l-9.554,15.462Zm12.511.291a4.212,4.212,0,0,1-3.257-1.3,5.712,5.712,0,0,1,.01-7.015,4.7,4.7,0,0,1,6.5-.012,5.722,5.722,0,0,1-.012,7.017A4.2,4.2,0,0,1,255.527,113.2Zm0-1.454a2.327,2.327,0,0,0,1.957-.85,4.046,4.046,0,0,0,.66-2.507q0-3.357-2.617-3.355a2.327,2.327,0,0,0-1.959.849,4.042,4.042,0,0,0-.66,2.507Q252.908,111.749,255.527,111.749Z" transform="translate(-171.037 -96.351)" fill="#fff"></path></g></svg>