<svg xmlns="http://www.w3.org/2000/svg" id="Component_19_1" data-name="Component 19 &#x2013; 1" width="50" height="50" viewBox="0 0 50 50"><circle id="Ellipse_44" data-name="Ellipse 44" cx="25" cy="25" r="25" fill="#6fc486"></circle><g id="Ellipse_134" data-name="Ellipse 134" fill="none" stroke="#6fc486" stroke-width="2" opacity="0.002"><circle cx="25" cy="25" r="25" stroke="none"></circle><circle cx="25" cy="25" r="24" fill="none"></circle></g><path id="Path_154" data-name="Path 154" d="M.224,2.04a.77.77,0,0,1,0-1.088L.951.224a.772.772,0,0,1,1.088,0L7,5.162,11.962.223a.772.772,0,0,1,1.088,0l.726.728a.77.77,0,0,1,0,1.088L7.545,8.271a.768.768,0,0,1-1.088,0Z" transform="translate(21 32) rotate(-90)" fill="#fff"></path><path id="Path_312" data-name="Path 312" d="M.224,2.04a.77.77,0,0,1,0-1.088L.951.224a.772.772,0,0,1,1.088,0L7,5.162,11.962.223a.772.772,0,0,1,1.088,0l.726.728a.77.77,0,0,1,0,1.088L7.545,8.271a.768.768,0,0,1-1.088,0Z" transform="translate(21 32) rotate(-90)" fill="#6fc486" opacity="0.005"></path></svg>