<svg xmlns="http://www.w3.org/2000/svg" width="270.565" height="235.456" viewBox="0 0 270.565 235.456"><path id="Path_203" data-name="Path 203" d="M1190.38,1127.629a19.712,19.712,0,0,0-.284-2.716c-.26-.64-.658-1.244-.892-.8-1.325,2.528-2.772.14-4.1,1.871a4.851,4.851,0,0,0-.764,1.115,5.478,5.478,0,0,0-.2,1.587c.009.371.213.917.333.949.412.108.841.324,1.233-.066.456-.453.5,1.037.883,2.454-1.96,2-3.751,2.036-5.758,1,.528-.912.9-1.5,1.264-2.229a4.109,4.109,0,0,0,.15-1.22,2.248,2.248,0,0,0-.237-1c-.227-.14-.474-.251-.689,0-.63.742-1.242,1.781-1.875,2.467-.28.3-.6.165-.891,0a14.5,14.5,0,0,1-1.244-1.04c-.109-.084-.291-.135-.329.128-.727,4.912-1.876,2.538-2.849,2.988a6.648,6.648,0,0,1-2.347.245c.074-1.187.145-1.862.155-2.56.023-1.572-.226-1.644-.468-1.4-1.158,1.147-2.311,2.378-3.469,3.522-1.078,1.066-2.135,1.577-3.157-1.518-.256-.775-.724-1.078-1-.592-1.02,1.788-2.084.682-3.118.945-1.549.394-3.115-.226-4.67-.07-1.122.114-2.238.9-3.359,1.19q-2.971.775-5.946,1.3c-1.67.294-3.369-.293-5.006.79-2.18,1.442-4.339.649-6.516.293-1-.163-2.006.512-3.007.918-.794.321-1.53-.119-2.265-1.858-.887-2.1-1.845-2.7-2.828-1.514a3.3,3.3,0,0,1-1.141.98,2.188,2.188,0,0,1-2.172-.542c-1.481-1.1-3-2.043-4.507-.619-.734.7-1.443.363-2.174-.591-.469-.612-.985-.488-1.481-.6a7.221,7.221,0,0,0-1.164-.039c-.62-.038-1.241-.084-1.861-.156-.229-.027-.573.261-.667-.277-.5-2.824-1.02-1.526-1.587-.9a1.7,1.7,0,0,1-1.386.5c-.891.036-1.783-.067-2.674-.113-.078,0-.173-.139-.231.008-1.05,2.638-2.1,1.141-3.162-.134-.441-.526-.925-.217-1.388-.388-.891-.329-1.78-.8-2.671-1.082a11.989,11.989,0,0,0-3.613-.856,25.005,25.005,0,0,0-4.174.847c-.17.033-.344-.243-.513-1.085a25.414,25.414,0,0,0,2.014-1.566c.634-.588,1.284-1.19,1.6-4.227-.12-.33-.2-.705-.242-.641-1.579,2.339-3.246.917-4.86,1.784a22.75,22.75,0,0,1-2.329.727,2.7,2.7,0,0,0-.893,1.021,4.055,4.055,0,0,0-.158,1.23,3.33,3.33,0,0,0,.2,1.16,1.665,1.665,0,0,0,1.146.359c.694-.151,1.384-.562,2.078-.736.107-.028.227.622.341.958a5.26,5.26,0,0,1-.3,1.273c-.814.183-1.64.626-2.444.2-1.187-.635-2.314.119-3.454,1.145-.487.438-1.024.895-1.5.421-1.339-1.342-2.637-.194-3.953.124-.536.129-1.08-.206-1.62-.262a2.6,2.6,0,0,0-.907.132c-.151.039-.413.427-.433.246-.4-3.62-.887-.93-1.347-.6-.263.19-.6.478-.8-.046-.545-1.39-1.055-.859-1.577-.231-1.378,1.659-2.784.721-4.182.494-.542-.088-1.127.2-1.617-.628-1.057-1.785-2.094-1.767-3.172-1.229-.571.285-1.161-.077-1.743-.126-.351-.029-.768.536-1.039-.131-.852-2.1-1.661-.594-2.5-.453a22.743,22.743,0,0,1-5.948.406c-3.037-.291-6.074-1.029-9.111-1.49-1.168-.178-2.337-.03-3.5-.183-1.944-.253-3.889-.716-5.833-.916-.93-.1-1.86.388-2.79.294a11.218,11.218,0,0,0-5.812,1.274c-2.119.981-4.275.64-6.414.923-1.59.21-3.18.5-4.77.744-.577.09-1.154.568-1.643-1.747-.149-.7-.494-.817-.747-.8-.959.047-1.9,1.484-2.878.293-.347-.422-.618.334-.638,2.117-.037,3.189-.531,4.365-1.115,5.157-1.016,1.376-2.064,1.727-3.117,1.017a4.083,4.083,0,0,1-.857-2.277c-.3-2.1-.593-1.118-.9-.64a4.444,4.444,0,0,0-.137,1.174c-.037,3.061-.036,3.114-.617,2.133-.683-1.153-1.357-2.407-2.078-3.692.556-2.1.977-4.057,1.478-5.453.335-.934.779-1.4,1.183-1.486.637-.142,1.193-.273,1.64-2.863.4-2.344,1.087-1.954,1.722-2.081a39.7,39.7,0,0,0,5.451-1.739c.2-.074.4-.6.818-1.273-1.388-2.277-2.525-4.319-3.8-3.209-.873.76-1.761,1.222-2.634,1.987-1.277,1.12-2.556,1.029-3.829-.235a6.286,6.286,0,0,1-.752-2.223c-.269-1.244-.182-2.168.208-2.5,1.938-1.648,3.879-3.208,5.814-4.914a3.661,3.661,0,0,0,.922-1.778c.6-2.2.579-2.6.047-5.99,1.132-.593,2.238-1.17,3.343-1.753.461-.244.89-.33,1.056-3.049a4.158,4.158,0,0,1,.863-2.1c.578-.962,1.179-1.653,1.752-2.66a12.616,12.616,0,0,0,.26-1.966c-.132-.313-.27-.927-.395-.89a28.077,28.077,0,0,0-3.6,1.248c-.462.2-.909.984-1.371,1.149a3.137,3.137,0,0,1-1.741.014c-.372-.078-.75-.824-.754-2.678,0-2.03.425-2.249.775-2.3,1.666-.258,3.283-2.12,4.995-1.379,1.418.614,2.864-.646,4.3-.867,2.759-.427,5.52-.729,8.28-1.04,1.785-.2,3.573-.759,5.355-.365a33.348,33.348,0,0,0,5.476.322c1.084.061,2.167.014,3.251.05.54.018,1.08.17,1.62.151.206-.008.41-.324.871-.721-.858-1.812-1.493-2-2.143-1.87-.388.077-.78.329-1.163.137a10.409,10.409,0,0,0-6.062-.934c-.7.081-1.4-.5-2.1-.5a13.7,13.7,0,0,0-2.322.505,2,2,0,0,1-1.282.016c-2.8-1.341-5.612-2.107-8.394-1.1-2.144.779-4.275.233-6.41.36a22.8,22.8,0,0,0-6.748,1.078c-.37.136-.748-.068-1.167-.965.178-.473.35-1.01.536-1.408.792-1.687,1.6-3.267,2.379-5.022a4.239,4.239,0,0,0-.022-3.074c-.092-.26-.152-.748-.332-1.673.781-.848,1.472-1.69,2.172-2.338,1.668-1.542,3.339-3.037,5.012-4.467a12.6,12.6,0,0,1,6.948-3.017c1.245-.153,2.486-.6,3.731-.77.4-.055.879-.649,1.056,2.11a1.393,1.393,0,0,0,.509.972c.573.476,1.194,1.609,1.718,1.077,1.191-1.21,2.374,1.909,3.559-.132.4-.689.926.042,1.393.026,1.789-.062,3.589.287,5.363-.406,1.219-.476,2.4.6,3.593.655a10.077,10.077,0,0,1,1.271.365,30.7,30.7,0,0,0,3.267.526c2.064.156,4.128.214,6.192.308,3.034.139,6.067.263,9.1.422a6.681,6.681,0,0,1,1.754.3c1.32.435,2.639,1.037,3.96,1.408a12.876,12.876,0,0,0,2.571.268c2.648.2,5.3.273,7.944.619,3.078.4,6.156,1.025,9.234,1.578,2.8.5,5.595.68,8.384-.579a9.369,9.369,0,0,1,3.614-.385c1.2-.063,2.4-.012,3.6-.1.266-.019.53-.374.793-.6.186-.163.385-.687.554-.521,1.388,1.365,2.765.651,4.154.485a6.453,6.453,0,0,1,3.718,1.011c1.467.787,2.863-.594,4.277-1.573.268-.186.532-.7.8-.66.19.03.514.617.541,1.167.1,2.078.434,2.39.788,2.493a7.173,7.173,0,0,0,1.631.175c.227.012.489-.408.672-.017.6,1.271,1.12.843,1.679-.316.2-.421.5-.111.751.085.264.208.519.962.778.985,3.03.272,6.06.339,9.09.7,1.484.179,2.955.534,4.387-1.565.315-.462.7-.087,1.045-.1,1.126-.047,2.261-.591,3.375-.032,1.836.922,3.644,0,5.463-.146,1.589-.126,3.171-.1,4.756-1.122,1.211-.779,2.48.073,3.722.04a17.542,17.542,0,0,0,2.2-.527,10.979,10.979,0,0,1,1.619,0c3.386-.05,6.772-.11,10.158-.154a1.322,1.322,0,0,1,.818.163c.851.57,1.692.969,2.522-.393.209-.343.477-.44.693-.193,1.541,1.76,3.083.36,4.618.714.963.222,1.9-.542,2.852-.249.971.3,1.956-.1,2.914.536,1.557,1.033,3.111.06,4.644.653,1.454.564,2.854-1.243,4.548-.229a10.607,10.607,0,0,0-1.365,1.438,4.94,4.94,0,0,0-.206,1.562,2.084,2.084,0,0,0,.321,1.109c.645.288,1.217-.4,1.726-2.3a4.977,4.977,0,0,1,.9-1.876,7.053,7.053,0,0,1,1.348-1.2c.326-.262.665-.761,1.083,1.1a14.858,14.858,0,0,0-1.674,1.441,7.689,7.689,0,0,0-.672,1.475c.266.456.537,1.326.8,1.288a7.622,7.622,0,0,0,2.2-.932c.794-.411,1.571-1.694,2.372.626.255.739.689.431,1.034.3,2.09-.773,4.2.245,6.28-.283,1.776-.449,3.591.327,5.333-1.88.283-.358.613-.054.921-.032,3.937.276,7.873,3.117,11.749,0,.364-.293.762.245,1.144.259.538.021,1.176.719,1.593-.294,1.174-2.854,2.423,2.575,3.654,2.87.478.115.9.083,1.355-.7.384-.665.841-.5,1.259-.841a9.974,9.974,0,0,0,.974-1.105c.137-.156.338-.622.4-.376.773,2.877,1.658,1.685,2.479,1.449a3.29,3.29,0,0,1,3.483,1.147c.985,1.033,1.947.245,2.887-.722.914-.94,1.793-1.652,2.758-.833.709.6,1.46-.022,2.192.11a19.372,19.372,0,0,1,2.319.8c1.935.623,3.871,1.145,5.8,1.868a4.574,4.574,0,0,1,2.155,2.312c-.434.036-.868.063-1.3.107-1,.1-2.009.235-3.013.3-.817.057-1.635.007-2.452.071-.5.04-1.026-.19-1.5.385-1.956,2.4-3.981-2.037-6-1.758a18.818,18.818,0,0,0-2.791.895c-1.9.587-3.8,1.085-5.7,1.743-1.625.564-3.247,1.249-4.868,1.976-2.28,1.022-4.554,2.242-6.836,3.173a47.467,47.467,0,0,1-6.261,2.086c-1.511.383-3.042-2.953-4.552-2.543-2.015.546-4.024,1.446-6.036,2.161-.734.261-1.472.379-2.205.69-.115.049-.212.782-.317,1.2.115.376.224,1.031.344,1.083a12.641,12.641,0,0,0,2.9,1.028,16.008,16.008,0,0,0,4.3.259,53.319,53.319,0,0,0,5.705-1.2c1.9-.43,3.8-.891,5.706-1.324.193-.043.392-.118.58.045,1.49,1.3,2.943,2.456,4.4,1.256a10.751,10.751,0,0,1,3.7-1.916c2.17-.7,4.346-1.146,6.519-1.7a2.53,2.53,0,0,1,.349-.076c.286-.032.573-.054.859-.08-.1,2.618-.588,1.573-.926,1.814-.8.57-1.611.991-2.415,1.551a7.868,7.868,0,0,0-.616,1.5c.544.374.832.79,1.111.728,1.592-.356,3.181-.858,4.773-1.246,1.156-.282,2.316-.813,3.471-.584.921.183,1.84,1.3,2.755,2.12a3.314,3.314,0,0,1,.3,1.364,3.864,3.864,0,0,1-.263,1.388,11.276,11.276,0,0,0-1.206,1.8,20.137,20.137,0,0,0-.408,2.863c.2.462.387,1.218.59,1.317.345.167.742.351,1.039-.237.763-1.514,1.58-1.3,2.374-1.718.534-.283,1.444,2.449,1.985,2.584.5.125,1-1.631,1.5-1.278.34.241.734.283,1,1.1.611,1.884,1.2,2.331,1.867,1.068.084-.159.217.172.458.4-.59,2.592-1.158,4.087-1.934,4.319-1.582.474-3.518-1.419-5.1-.765-.177.074-.349.342-.737.738.731,2.056,1.387.792,2.068,2.247-.335.345-.563.718-.8.8-1.782.62-3.57,1.02-5.346,1.826a20.654,20.654,0,0,0-3.086,2.364c-1.593,1.2-3.189,2.337-4.782,3.518a8.393,8.393,0,0,0-1.143.971,1.5,1.5,0,0,0-.635,1.08c-.43,4.107-1.4,3.773-2.14,4.941-.78,1.235-1.671,1.188-2.517,1.6a20.2,20.2,0,0,1-3.462,1.488,15.254,15.254,0,0,1-3.367.316c-1.671.068-3.342.108-5.013.082a1.1,1.1,0,0,1-.92-.621c-1.2-1.916-2.4-2.784-3.63-1.213-.111.142-.238.358-.342.239-1.7-1.956-3.292.858-4.928,1.722-.3.162-.617.065-.925.135-.618.143-1.236.31-1.854.484a11.259,11.259,0,0,0-1.972.635c-.2.1-.389.731-.584,1.119.1.882.187,1.8.3,2.641.22,1.594.557,2.02.915,1.328,1.276-2.473,2.458-1.109,3.866,2.5-.606.049-.97.205-1.332.086a6.743,6.743,0,0,0-7.2,1.308c-1.342,1.193-2.815.715-3.879-.983.494-3.8,1.342-4.291,2.151-4.5.689-.176,1.4.317,2.088.844.332.254.578.369.853-.646a7.647,7.647,0,0,0,.589-3.387c-.1-1.918-.533-1.736-.876-1.841a5.163,5.163,0,0,0-3.635-.179,7.8,7.8,0,0,1-3.152.168,8.57,8.57,0,0,0-2.2.018c-.293.078-.7.577-.834,1.521-.375,2.555-1.026,2.826-1.526,4.29Zm-122.474-3.952a5.747,5.747,0,0,1,1.385.191c1.032.385,2.057-.378,3.108.882.727.872,1.567.529,2.383-1.62A3.851,3.851,0,0,0,1067.906,1123.677Zm10.436.791c.782,1.455,1.352,2.719,2.019,2.542a1.012,1.012,0,0,0,.557-.561,4.075,4.075,0,0,0,.161-1.209,3.382,3.382,0,0,0-.19-1.14C1080.114,1123.258,1079.333,1122.314,1078.343,1124.467Zm-73.6-13.689.045-.252-.092,0Zm170.263,36.856a19.872,19.872,0,0,0-3.739-.554c-2.839.037-5.679.188-8.517.433a38.237,38.237,0,0,0-4.544.857,27.231,27.231,0,0,1-3.83.853c-1.71.1-3.422-.151-5.133-.162-.972-.006-1.943.23-2.916.241a8.112,8.112,0,0,1-3.256-.272c-.587-.234-1.227-.361-1.738-2.462-.173-.712-.513-.966-.764-.886-1.006.32-2.005.936-3.01,1.292a40.041,40.041,0,0,1-5.907,1.864c-1.376.254-2.771-1.941-4.142.18-.129.2-.3-.2-.46-.282-.919-.486-1.843-1.944-2.744.259-.146.357-.382,0-.576-.018a6.938,6.938,0,0,1-1.988-.247c-.539-.214-1.2-.106-1.579-1.448-.645-2.3-1.25-2.089-1.928-1.534-.378.311-.754.823-1.136.872-.531.067-1.221.689-1.57-.517-.964-3.331-1.868-.553-2.789-.755-.881,2.98-1.909,2.374-2.913,1.9a2.1,2.1,0,0,0-2.6.626c.163.629.335,1.049.506,1.047,1.086-.012,2.172-.208,3.258-.15a4.1,4.1,0,0,1,1.623.728c1.12.651,2.249,2.113,3.353,1.89,2.3-.464,4.583,1.133,6.875,1.31.777.059,1.554.7,2.331.773,1.829.182,3.658.17,5.487.269.854.046,1.715.471,2.56.166.764-.276,1.513-1.491,2.229.865,1.51-.121,3.016,1.365,4.536.376.828-.539,1.688-.24,2.533-.3a11.11,11.11,0,0,0,2.314-.135c1.862-.515,3.719-1.569,5.584-1.647a4.238,4.238,0,0,0,3.428-1.67,1.708,1.708,0,0,1,1.268-.677c1.7-.1,3.408-.036,5.111-.146.542-.034,1.08-.59,1.622-.611,1.632-.061,3.265,0,4.9.057,1.075.036,2.135-.373,3.228.7.807.79,1.76.657,2.521-.563.8-1.29,1.463-1.326,2.237.008.363.625.8.3,1.337.444C1175.781,1147.95,1175.4,1147.7,1175.01,1147.634Zm-74.1-.458c-1.992-.875-3.949.429-5.918.929-.5.127-.866-.292-1.186-1.745l1.095-2.462c-.628-2.009-1.145-2.344-1.7-2.221-.777.172-1.562.65-2.332.306-2.433-1.088-4.808.471-7.19,1.847-.266.153-.54.37-.8.255-1.143-.5-2.182.56-3.152,3.478,1.654,1.354,3.266,2.061,4.907,1.827a4.538,4.538,0,0,1,3.715.541c.949.7,1.936.245,2.906.3a40.76,40.76,0,0,0,5.364.219,50.293,50.293,0,0,0,5.578-1.071c.449-.089.924.176,1.36-2.339C1102.573,1147.113,1101.735,1147.537,1100.912,1147.176Zm-36.878-2.805c.347.543.692,1.484,1.041,1.561,1.631.356,3.263.47,4.9.68.349.045.7-.039,1.046.222a4.861,4.861,0,0,0,5.568.611c.287-.149.6.5.9.77.264.24.533.685.793.625.142-.032.269-.926.4-1.431a6.215,6.215,0,0,0-.329-1.237,10.316,10.316,0,0,0-1.258-1.2c-.343-.3-.688-.553-1.029-.889a4.918,4.918,0,0,1-.061-.743c.1-.221.214-.359.318-.567.021-.042.021-.286.072-1.079a16.983,16.983,0,0,0-4.639,1.051c-.528.26-.994,1.11-1.542.056-.209-.4-.557-.046-.773.493-.646,1.609-1.3.995-1.913-.065-.725-1.25-1.436-1.213-2.162-.769a9.957,9.957,0,0,0-1.239,1.1Q1064.078,1143.965,1064.033,1144.371Zm-20.936-4.71-1.545-2.123c.421-1.88.778-2.095,1.217-1.095.519,1.183,1.057,1.265,1.555-.094a15.1,15.1,0,0,0,.322-1.811c-.121-.4-.238-1.1-.364-1.158a1.929,1.929,0,0,0-1.508-.246,17.009,17.009,0,0,0-2.637,1.7,1.232,1.232,0,0,0-.253.616c.141,3.18-.418,2.125-.73,2.3a15.921,15.921,0,0,1-2.067.841c-.154.06-.336.383-.458.122-.893-1.921-1.829-.842-2.741-1.078-.71-.184-1.451-.638-2.128,1C1035.528,1140.333,1039.3,1140.257,1043.1,1139.661Zm140.359,9.8a.545.545,0,0,1,.568-.139c.759.375,1.516,1.745,2.271-.012.1-.245.3.146.446.384.991,1.64,1.994,1.228,2.995.67.273-.152.691.4.712-1.538a2.035,2.035,0,0,0-.789-1.165c-1.617-.805-3.224.428-4.859-.4-1.4-.707-2.832.333-4.25.6C1181.756,1149.976,1182.479,1150.2,1183.456,1149.458Zm16.1-2.223c.095.249.194.74.283.711,1.427-.455,2.852-.985,4.278-1.472a.6.6,0,0,1,.578.033c2.008,1.386,4.026.862,6.038,1.213.237.041.475-.586.863-1.1-.275-.768-.4-1.421-.521-1.413-3.829.253-7.658.571-11.487.879C1199.579,1146.468,1199.568,1146.851,1199.557,1147.235Zm-191.023,6.694c1.215.793,1.919-3.385,2.884-5.009-.814-.05-1.607.443-2.4.288a9.642,9.642,0,0,1-2.559-1.59C1007.046,1151.476,1007.664,1153.36,1008.535,1153.929Zm5.056-19.036c-.145-.226-.31-.339-.461-.292-.984.311-1.865,2.179-2.8,3.467,1.786.69,3.561,2.29,5.23.016C1014.952,1137.091,1014.274,1135.959,1013.591,1134.892Zm175.908-3.364a9.354,9.354,0,0,0-.218,1.538c.131.257.264.744.393.734.884-.069,1.778-.086,2.608-3.7C1191.193,1129.441,1190.338,1130.3,1189.5,1131.529Zm7.531,17.009a6.04,6.04,0,0,0,.282-1.247c-.122-.367-.25-1.076-.366-1.046a13.665,13.665,0,0,0-2.4.909,5.05,5.05,0,0,0-.217,1.051C1195.255,1150.458,1196.146,1149.416,1197.029,1148.538Zm27.738-3.574c1.267.865,2.254.776,3.21-.839C1226.957,1142.674,1225.962,1142.189,1224.768,1144.964Zm-7.9-.37a5.185,5.185,0,0,0-1.682.057c-.192.062-.368.876-.552,1.346.224.483.463,1.454.67,1.354a7.545,7.545,0,0,0,1.562-1.526Q1216.87,1145.208,1216.871,1144.593Zm-6.893-14.365a10.609,10.609,0,0,0,1.658-1.249,12.661,12.661,0,0,0,.2-1.88c-.13-.252-.29-.853-.383-.7-.5.823-.976,1.838-1.462,2.786Q1209.985,1129.708,1209.979,1130.228Zm15.81-3.008c.552.389,1.127,1.112,1.621-2.445C1226.71,1125.537,1226.183,1125.476,1225.788,1127.22Zm-24.571-63.177c.556,1.082.908-.3,1.286-.932C1202.08,1062.387,1201.659,1061.72,1201.217,1064.042Zm-1.1-.921c-.3.024-.6.03-.9.077s-.6.135-.9.205q.023.637.046,1.276l1.806-.879C1200.149,1063.574,1200.133,1063.348,1200.117,1063.121Zm-95.744,84.2c.4,1.669.754,1.693,1.053-.338Zm86.825-86.482c.648.9.977.929,1.158-1.424Zm19.015,2.747,1.057-.455C1210.921,1062.422,1210.526,1061.7,1210.212,1063.583ZM1022.305,1156l1.192-.358C1023.113,1154.957,1022.679,1154.16,1022.305,1156Zm-1.91-8.844,1-.928C1021.053,1145.6,1020.7,1144.9,1020.4,1147.154Zm41.318-2.872c.138.135.281.438.412.362s.274-.513.613-1.207l-1,.081Q1061.724,1143.9,1061.713,1144.282Zm-47.784,4.027c.1.073.209-.068.314-.119a4.779,4.779,0,0,0-.154-.884c-.1-.088-.211.128-.332.229A3.9,3.9,0,0,0,1013.929,1148.309Zm208.446-84.653c-.052-.2-.111-.589-.155-.562-.071.045-.133.362-.2.564l.191.355Zm-184.382,71.111a5.739,5.739,0,0,0-.182-.84c-.047-.1-.13.144-.2.234l.149,1.013Zm8.848,1.515c.064-.007.135-.213.182-.428a4.668,4.668,0,0,0-.044-.619,2.923,2.923,0,0,0-.3.385A3.013,3.013,0,0,0,1046.842,1136.282Zm69.362,7.13c-.057.007-.109.314-.164.489a5.564,5.564,0,0,0,.231.649c.011.022.069-.443.1-.685C1116.319,1143.7,1116.26,1143.405,1116.2,1143.412Zm81.012-79.915c-.026.214-.059.417-.074.647a1.191,1.191,0,0,0,.055.318,3.463,3.463,0,0,0,.139-.373Zm31.674,80c.026.091.06.277.078.252a2.187,2.187,0,0,0,.163-.357l-.129-.535Zm-16.313,2.807c-.05-.131-.1-.349-.149-.37-.073-.029-.147.086-.221.14l.149.386Zm-34.6,1.77a6.816,6.816,0,0,0,.012.838c.048.206.14.315.208.281a4.3,4.3,0,0,0,.111-.725Zm-47.312-1.39a2.169,2.169,0,0,0-.1-.378c-.021-.035-.058.129-.088.2l.085.252Zm-106.833-.848c.033.056.073.086.108.053a1.019,1.019,0,0,0,.087-.237l-.2-.153C1023.831,1145.615,1023.825,1145.821,1023.835,1145.836Zm193.82-17.82a1.579,1.579,0,0,0-.073-.345c-.071-.014-.142.06-.214.1q.046.315.093.631Zm-11.143-65.795c.031.031.065.042.1.011a.882.882,0,0,0,.082-.184l-.185-.1C1206.507,1062.041,1206.505,1062.215,1206.512,1062.221Zm-36.016,70.233c-.013-.093-.052-.114-.081-.166a2.715,2.715,0,0,0-.023.357.37.37,0,0,0,.081.168A2.7,2.7,0,0,0,1170.5,1132.454Zm-139.986,5.219-.078.19.1.12Zm165.768-74.974-.079.123.072.191Zm-5.9,64.93-.027-.11Zm14.024-64.606-.012-.207-.012.166Zm0,0,.056-.222-.08.182Z" transform="matrix(-0.809, 0.588, -0.588, -0.809, 1697.583, 348.635)" fill="#6fc486"></path></svg>