<svg xmlns="http://www.w3.org/2000/svg" width="502.974" height="375.999" viewBox="0 0 502.974 375.999"><path id="Path_149" data-name="Path 149" d="M1392.149,1127.629a10.2,10.2,0,0,0-.583-2.716c-.533-.64-1.349-1.244-1.828-.8-2.714,2.528-5.678.14-8.409,1.871a6.847,6.847,0,0,0-1.564,1.115,2.937,2.937,0,0,0-.408,1.587,1.251,1.251,0,0,0,.683.949,4.354,4.354,0,0,0,2.526-.066c.935-.453,1.032,1.037,1.808,2.454a15.967,15.967,0,0,1-11.795,1c1.081-.912,1.85-1.5,2.59-2.229a2.195,2.195,0,0,0,.307-1.22c-.035-.395-.3-.941-.484-1a1.758,1.758,0,0,0-1.411,0c-1.291.742-2.544,1.781-3.84,2.467a2.439,2.439,0,0,1-1.825,0c-.855-.24-1.7-.722-2.548-1.04-.223-.084-.595-.135-.675.128-1.489,4.912-3.844,2.538-5.838,2.988a27.376,27.376,0,0,1-4.807.245c.153-1.187.3-1.862.318-2.56.047-1.572-.464-1.644-.958-1.4-2.372,1.147-4.735,2.378-7.106,3.522-2.209,1.066-4.374,1.577-6.468-1.518a1.461,1.461,0,0,0-2.051-.592c-2.089,1.788-4.269.682-6.389.945-3.173.394-6.381-.226-9.567-.07-2.3.114-4.584.9-6.882,1.19q-6.086.775-12.18,1.3c-3.421.294-6.9-.293-10.256.79-4.466,1.442-8.889.649-13.348.293-2.051-.163-4.11.512-6.16.918-1.626.321-3.134-.119-4.64-1.858-1.817-2.1-3.78-2.7-5.794-1.514a7.714,7.714,0,0,1-2.338.98,8.163,8.163,0,0,1-4.45-.542c-3.034-1.1-6.154-2.043-9.233-.619a4.413,4.413,0,0,1-4.453-.591,6.432,6.432,0,0,0-3.033-.6c-.794-.087-1.59-.015-2.385-.039-1.271-.038-2.541-.084-3.812-.156-.469-.027-1.173.261-1.367-.277-1.021-2.824-2.09-1.526-3.251-.9a6,6,0,0,1-2.84.5c-1.825.036-3.652-.067-5.479-.113-.16,0-.354-.139-.474.008-2.15,2.638-4.293,1.141-6.479-.134-.9-.526-1.895-.217-2.843-.388-1.825-.329-3.646-.8-5.472-1.082a47.087,47.087,0,0,0-7.4-.856c-2.853.025-5.7.575-8.551.847-.347.033-.7-.243-1.051-1.085,1.376-.514,2.76-.948,4.125-1.566,1.3-.588,2.63-1.19,3.286-4.227-.246-.33-.406-.705-.5-.641-3.235,2.339-6.651.917-9.957,1.784-1.579.413-3.184.4-4.77.727a4.907,4.907,0,0,0-1.829,1.021,2.19,2.19,0,0,0-.323,1.23c.016.419.244,1.112.405,1.16a6.152,6.152,0,0,0,2.348.359c1.422-.151,2.835-.562,4.257-.736.22-.028.465.622.7.958-.205.444-.4,1.249-.617,1.273-1.668.183-3.359.626-5.007.2-2.432-.635-4.74.119-7.076,1.145-1,.438-2.1.895-3.065.421-2.742-1.342-5.4-.194-8.1.124a20.142,20.142,0,0,1-3.32-.262,10.587,10.587,0,0,0-1.859.132c-.309.039-.846.427-.887.246-.829-3.62-1.818-.93-2.759-.6-.539.19-1.219.478-1.64-.046-1.117-1.39-2.161-.859-3.23-.231-2.824,1.659-5.7.721-8.568.494-1.111-.088-2.309.2-3.312-.628a6.785,6.785,0,0,0-6.5-1.229,12.822,12.822,0,0,1-3.57-.126c-.718-.029-1.574.536-2.129-.131-1.745-2.1-3.4-.594-5.118-.453a94.63,94.63,0,0,1-12.184.406c-6.222-.291-12.443-1.029-18.666-1.49-2.393-.178-4.787-.03-7.18-.183-3.984-.253-7.967-.716-11.951-.916-1.905-.1-3.81.388-5.715.294a44.071,44.071,0,0,0-11.907,1.274c-4.341.981-8.757.64-13.14.923-3.258.21-6.514.5-9.772.744-1.182.09-2.365.568-3.367-1.747a1.493,1.493,0,0,0-1.53-.8c-1.964.047-3.888,1.484-5.9.293-.71-.422-1.266.334-1.308,2.117-.076,3.189-1.087,4.365-2.285,5.157a7.109,7.109,0,0,1-6.386,1.017,3.514,3.514,0,0,1-1.756-2.277c-.611-2.1-1.215-1.118-1.849-.64a2.363,2.363,0,0,0-.281,1.174c-.075,3.061-.074,3.114-1.264,2.133-1.4-1.153-2.78-2.407-4.256-3.692a52.861,52.861,0,0,1,3.028-5.453,3.52,3.52,0,0,1,2.424-1.486c1.306-.142,2.444-.273,3.36-2.863.829-2.344,2.226-1.954,3.527-2.081,3.729-.364,7.447-1.087,11.167-1.739.419-.074.816-.6,1.675-1.273-2.844-2.277-5.173-4.319-7.785-3.209-1.788.76-3.607,1.222-5.4,1.987a9.064,9.064,0,0,1-7.845-.235,4.856,4.856,0,0,1-1.54-2.223c-.551-1.244-.373-2.168.427-2.5,3.969-1.648,7.947-3.208,11.91-4.914a4.035,4.035,0,0,0,1.889-1.778c1.223-2.2,1.187-2.6.1-5.99,2.319-.593,4.585-1.17,6.849-1.753.945-.244,1.823-.33,2.163-3.049.126-1.007,1.124-1.581,1.769-2.1,1.183-.962,2.415-1.653,3.588-2.66.26-.224.36-1.289.534-1.966-.27-.313-.552-.927-.809-.89-2.459.341-4.916.726-7.366,1.248-.946.2-1.863.984-2.809,1.149a12.969,12.969,0,0,1-3.566.014c-.763-.078-1.537-.824-1.545-2.678-.009-2.03.871-2.249,1.588-2.3,3.413-.258,6.726-2.12,10.232-1.379,2.9.614,5.867-.646,8.809-.867,5.652-.427,11.307-.729,16.962-1.04,3.656-.2,7.319-.759,10.97-.365,3.747.4,7.479.22,11.218.322,2.22.061,4.44.014,6.661.05,1.106.018,2.213.17,3.318.151a7.084,7.084,0,0,0,1.785-.721c-1.757-1.812-3.059-2-4.39-1.87a7.123,7.123,0,0,1-2.382.137,41.841,41.841,0,0,0-12.418-.934c-1.43.081-2.872-.5-4.306-.5-1.587,0-3.169.362-4.756.505a8.218,8.218,0,0,1-2.626.016c-5.731-1.341-11.5-2.107-17.2-1.1-4.392.779-8.757.233-13.132.36a92.618,92.618,0,0,0-13.823,1.078,2.537,2.537,0,0,1-2.39-.965c.366-.473.717-1.01,1.1-1.408,1.622-1.687,3.269-3.267,4.873-5.022a2.294,2.294,0,0,0-.046-3.074,12.057,12.057,0,0,1-.679-1.673c1.6-.848,3.015-1.69,4.451-2.338q5.125-2.313,10.268-4.467a43.031,43.031,0,0,1,14.234-3.017c2.55-.153,5.093-.6,7.643-.77.812-.055,1.8-.649,2.163,2.11.065.5.669.821,1.042.972,1.175.476,2.447,1.609,3.52,1.077,2.439-1.21,4.863,1.909,7.291-.132.821-.689,1.9.042,2.853.026,3.665-.062,7.352.287,10.986-.406,2.5-.476,4.909.6,7.36.655.867.019,1.735.286,2.6.365,2.231.2,4.461.443,6.692.526,4.228.156,8.456.214,12.684.308,6.215.139,12.429.263,18.644.422a27.029,27.029,0,0,1,3.593.3c2.7.435,5.406,1.037,8.112,1.408,1.753.24,3.511.2,5.267.268,5.425.2,10.85.273,16.275.619,6.305.4,12.611,1.025,18.916,1.578,5.737.5,11.462.68,17.174-.579a38.537,38.537,0,0,1,7.4-.385c2.458-.063,4.917-.012,7.375-.1a5.028,5.028,0,0,0,1.625-.6c.382-.163.788-.687,1.135-.521,2.842,1.365,5.665.651,8.509.485a24.6,24.6,0,0,1,7.616,1.011c3,.787,5.865-.594,8.762-1.573.549-.186,1.09-.7,1.632-.66a1.547,1.547,0,0,1,1.109,1.167c.212,2.078.888,2.39,1.614,2.493a29.638,29.638,0,0,0,3.342.175c.464.012,1-.408,1.378-.017,1.221,1.271,2.295.843,3.44-.316.417-.421,1.03-.111,1.538.085.54.208,1.063.962,1.593.985,6.207.272,12.414.339,18.621.7,3.039.179,6.053.534,8.988-1.565.645-.462,1.424-.087,2.142-.1,2.307-.047,4.633-.591,6.914-.032,3.761.922,7.464,0,11.191-.146,3.254-.126,6.5-.1,9.742-1.122,2.48-.779,5.08.073,7.624.04,1.5-.019,3-.408,4.5-.527,1.1-.088,2.211,0,3.317,0q10.4-.075,20.808-.154a5.212,5.212,0,0,1,1.675.163c1.744.57,3.467.969,5.167-.393a1.275,1.275,0,0,1,1.42-.193c3.157,1.76,6.315.36,9.46.714,1.973.222,3.887-.542,5.843-.249,1.988.3,4.007-.1,5.97.536,3.19,1.033,6.373.06,9.514.653,2.978.564,5.848-1.243,9.317-.229a20.513,20.513,0,0,0-2.8,1.438,2.679,2.679,0,0,0-.422,1.562c.029.436.414,1.056.658,1.109,1.32.288,2.492-.4,3.536-2.3a5.036,5.036,0,0,1,1.845-1.876,15.948,15.948,0,0,1,2.761-1.2c.668-.262,1.363-.761,2.218,1.1a34.575,34.575,0,0,0-3.429,1.441,7.308,7.308,0,0,0-1.376,1.475c.545.456,1.1,1.326,1.632,1.288a26.5,26.5,0,0,0,4.508-.932c1.627-.411,3.218-1.694,4.86.626.523.739,1.411.431,2.117.3,4.282-.773,8.6.245,12.865-.283,3.639-.449,7.356.327,10.925-1.88.58-.358,1.256-.054,1.887-.032,8.066.276,16.129,3.117,24.069,0,.745-.293,1.561.245,2.343.259,1.1.021,2.409.719,3.264-.294,2.405-2.854,4.964,2.575,7.485,2.87a3.25,3.25,0,0,0,2.777-.7c.787-.665,1.722-.5,2.579-.841a18.082,18.082,0,0,0,2-1.105c.28-.156.692-.622.826-.376,1.583,2.877,3.4,1.685,5.079,1.449a11.624,11.624,0,0,1,7.135,1.147c2.017,1.033,3.988.245,5.914-.722,1.872-.94,3.674-1.652,5.65-.833,1.452.6,2.991-.022,4.49.11,1.584.139,3.166.554,4.75.8,3.964.623,7.93,1.145,11.891,1.868a8.9,8.9,0,0,1,4.414,2.312c-.889.036-1.778.063-2.667.107-2.058.1-4.115.235-6.173.3-1.674.057-3.349.007-5.023.071-1.025.04-2.1-.19-3.063.385-4.007,2.4-8.156-2.037-12.285-1.758-1.911.128-3.812.608-5.718.895-3.893.587-7.789,1.085-11.678,1.743-3.329.564-6.652,1.249-9.972,1.976-4.671,1.022-9.33,2.242-14,3.173-4.268.851-8.544,1.556-12.826,2.086-3.095.383-6.232-2.953-9.325-2.543-4.128.546-8.243,1.446-12.365,2.161-1.5.261-3.016.379-4.517.69-.235.049-.434.782-.649,1.2.234.376.458,1.031.7,1.083a46.314,46.314,0,0,0,5.937,1.028,66.674,66.674,0,0,0,8.806.259c3.9-.213,7.793-.768,11.688-1.2s7.792-.891,11.688-1.324a2.317,2.317,0,0,1,1.188.045c3.053,1.3,6.028,2.456,9.018,1.256a34.519,34.519,0,0,1,7.579-1.916c4.445-.7,8.9-1.146,13.354-1.7.238-.03.477-.063.716-.076.587-.032,1.174-.054,1.761-.08-.2,2.618-1.2,1.573-1.9,1.814-1.644.57-3.3.991-4.947,1.551-.272.093-.51.588-1.262,1.5,1.114.374,1.7.79,2.277.728,3.261-.356,6.517-.858,9.777-1.246a33.385,33.385,0,0,1,7.11-.584c1.888.183,3.769,1.3,5.643,2.12a2.076,2.076,0,0,1,.614,1.364,2.268,2.268,0,0,1-.538,1.388,15.527,15.527,0,0,0-2.47,1.8,10.852,10.852,0,0,0-.835,2.863c.4.462.792,1.218,1.208,1.317a2.149,2.149,0,0,0,2.128-.237c1.563-1.514,3.237-1.3,4.864-1.718,1.094-.283,2.957,2.449,4.067,2.584,1.029.125,2.043-1.631,3.065-1.278.7.241,1.5.283,2.047,1.1,1.252,1.884,2.46,2.331,3.825,1.068.172-.159.444.172.938.4-1.208,2.592-2.373,4.087-3.963,4.319-3.24.474-7.207-1.419-10.44-.765a8.935,8.935,0,0,0-1.51.738c1.5,2.056,2.842.792,4.235,2.247a7.468,7.468,0,0,1-1.631.8c-3.651.62-7.313,1.02-10.952,1.826a52.729,52.729,0,0,0-6.322,2.364c-3.264,1.2-6.532,2.337-9.8,3.518a19.791,19.791,0,0,0-2.342.971c-.46.236-1.156.408-1.3,1.08-.88,4.107-2.872,3.773-4.384,4.941-1.6,1.235-3.423,1.188-5.156,1.6a70.012,70.012,0,0,1-7.093,1.488,63.227,63.227,0,0,1-6.9.316c-3.423.068-6.846.108-10.27.082a3.021,3.021,0,0,1-1.884-.621c-2.451-1.916-4.908-2.784-7.436-1.213-.227.142-.488.358-.7.239-3.487-1.956-6.745.858-10.1,1.722a13.146,13.146,0,0,1-1.895.135c-1.266.143-2.532.31-3.8.484-1.348.186-2.7.317-4.041.635-.415.1-.8.731-1.2,1.119.2.882.383,1.8.62,2.641.451,1.594,1.142,2.02,1.874,1.328,2.615-2.473,5.036-1.109,7.919,2.5a16.036,16.036,0,0,1-2.728.086c-4.954-.8-9.877-.806-14.751,1.308a7.821,7.821,0,0,1-7.947-.983c1.013-3.8,2.75-4.291,4.406-4.5a9.315,9.315,0,0,1,4.277.844c.679.254,1.183.369,1.748-.646.538-.97,1.4-1.526,1.206-3.387-.2-1.918-1.091-1.736-1.794-1.841a21.082,21.082,0,0,0-7.446-.179,32.358,32.358,0,0,1-6.457.168,35.85,35.85,0,0,0-4.5.018,2.173,2.173,0,0,0-1.708,1.521c-.769,2.555-2.1,2.826-3.125,4.29Zm-250.9-3.952a23.536,23.536,0,0,1,2.836.191c2.115.385,4.214-.378,6.367.882,1.489.872,3.21.529,4.882-1.62C1151.859,1120.508,1143.836,1120.616,1141.251,1123.677Zm21.379.791c1.6,1.455,2.769,2.719,4.136,2.542a2.079,2.079,0,0,0,1.142-.561,2.206,2.206,0,0,0,.329-1.209,1.932,1.932,0,0,0-.389-1.14C1166.26,1123.258,1164.658,1122.314,1162.63,1124.467Zm-150.767-13.689.091-.252-.188,0Zm348.8,36.856c-2.553-.228-5.109-.569-7.66-.554q-8.725.055-17.447.433c-3.106.131-6.206.536-9.308.857-2.616.27-5.227.776-7.846.853-3.5.1-7.011-.151-10.516-.162-1.992-.006-3.981.23-5.973.241a33.509,33.509,0,0,1-6.671-.272,4.067,4.067,0,0,1-3.561-2.462,1.534,1.534,0,0,0-1.566-.886c-2.06.32-4.107.936-6.167,1.292-4.03.7-8.059,1.5-12.1,1.864-2.818.254-5.677-1.941-8.484.18-.264.2-.624-.2-.942-.282-1.882-.486-3.775-1.944-5.622.259-.3.357-.782,0-1.18-.018a28.5,28.5,0,0,1-4.072-.247c-1.1-.214-2.462-.106-3.234-1.448-1.322-2.3-2.561-2.089-3.95-1.534a8.341,8.341,0,0,1-2.327.872c-1.088.067-2.5.689-3.216-.517-1.975-3.331-3.826-.553-5.713-.755-1.805,2.98-3.912,2.374-5.967,1.9a7.6,7.6,0,0,0-5.321.626c.333.629.687,1.049,1.036,1.047,2.225-.012,4.449-.208,6.674-.15a13.945,13.945,0,0,1,3.324.728c2.294.651,4.607,2.113,6.869,1.89,4.718-.464,9.389,1.133,14.084,1.31,1.591.059,3.183.7,4.774.773,3.747.182,7.494.17,11.241.269,1.749.046,3.513.471,5.244.166,1.566-.276,3.1-1.491,4.567.865,3.094-.121,6.18,1.365,9.292.376,1.7-.539,3.457-.24,5.189-.3a46.35,46.35,0,0,0,4.741-.135c3.815-.515,7.619-1.569,11.439-1.647a13.658,13.658,0,0,0,7.022-1.67,5.318,5.318,0,0,1,2.6-.677c3.49-.1,6.982-.036,10.471-.146,1.111-.034,2.213-.59,3.324-.611,3.343-.061,6.688,0,10.034.057,2.2.036,4.374-.373,6.614.7a4.855,4.855,0,0,0,5.165-.563c1.647-1.29,3-1.326,4.583.008.744.625,1.647.3,2.74.444C1362.242,1147.95,1361.455,1147.7,1360.662,1147.634Zm-151.8-.458c-4.081-.875-8.091.429-12.124.929-1.024.127-1.774-.292-2.43-1.745l2.242-2.462c-1.287-2.009-2.346-2.344-3.478-2.221-1.592.172-3.2.65-4.776.306-4.984-1.088-9.849.471-14.73,1.847a3.548,3.548,0,0,1-1.648.255c-2.342-.5-4.47.56-6.457,3.478a22.623,22.623,0,0,0,10.052,1.827c2.522-.176,5.053-.38,7.61.541,1.944.7,3.965.245,5.952.3,3.663.093,7.329.362,10.988.219,3.813-.149,7.618-.7,11.428-1.071.92-.089,1.894.176,2.786-2.339C1212.267,1147.113,1210.552,1147.537,1208.864,1147.176Zm-75.548-2.805c.711.543,1.417,1.484,2.133,1.561,3.342.356,6.686.47,10.029.68a7.2,7.2,0,0,1,2.143.222,18.752,18.752,0,0,0,11.406.611c.587-.149,1.226.5,1.842.77.542.24,1.092.685,1.624.625.291-.032.551-.926.825-1.431-.223-.427-.419-1.087-.673-1.237a22.008,22.008,0,0,0-2.578-1.2c-.7-.3-1.409-.553-2.108-.889a2.479,2.479,0,0,1-.125-.743c.209-.221.438-.359.651-.567a7.033,7.033,0,0,0,.147-1.079c-3.238.3-6.394.3-9.5,1.051-1.082.26-2.035,1.11-3.158.056-.429-.4-1.141-.046-1.584.493-1.323,1.609-2.661.995-3.919-.065a4.339,4.339,0,0,0-4.429-.769,22.621,22.621,0,0,0-2.538,1.1Q1133.409,1143.965,1133.316,1144.371Zm-42.889-4.71-3.166-2.123c.862-1.88,1.593-2.095,2.492-1.095,1.062,1.183,2.165,1.265,3.186-.094a8.539,8.539,0,0,0,.659-1.811c-.248-.4-.487-1.1-.746-1.158a7.626,7.626,0,0,0-3.09-.246,48.877,48.877,0,0,0-5.4,1.7,1.079,1.079,0,0,0-.519.616c.289,3.18-.856,2.125-1.495,2.3-1.4.378-2.822.573-4.234.841-.315.06-.689.383-.937.122-1.83-1.921-3.748-.842-5.616-1.078-1.453-.184-2.973-.638-4.36,1C1074.921,1140.333,1082.638,1140.257,1090.427,1139.661Zm287.538,9.8a2.028,2.028,0,0,1,1.163-.139c1.554.375,3.105,1.745,4.653-.012.214-.245.62.146.914.384,2.029,1.64,4.085,1.228,6.135.67.56-.152,1.416.4,1.458-1.538.007-.317-1.04-1.025-1.616-1.165-3.312-.805-6.6.428-9.953-.4-2.864-.707-5.8.333-8.707.6C1374.482,1149.976,1375.962,1150.2,1377.965,1149.458Zm32.984-2.223c.194.249.4.74.581.711,2.923-.455,5.842-.985,8.763-1.472a2.41,2.41,0,0,1,1.185.033c4.114,1.386,8.247.862,12.37,1.213.484.041.974-.586,1.768-1.1-.563-.768-.82-1.421-1.066-1.413-7.845.253-15.689.571-23.533.879C1410.994,1146.468,1410.971,1146.851,1410.948,1147.235Zm-391.326,6.694c2.49.793,3.93-3.385,5.908-5.009-1.667-.05-3.292.443-4.911.288a28.347,28.347,0,0,1-5.242-1.59C1016.573,1151.476,1017.839,1153.36,1019.622,1153.929Zm10.358-19.036a1.275,1.275,0,0,0-.944-.292c-2.017.311-3.822,2.179-5.736,3.467,3.66.69,7.294,2.29,10.715.016C1032.769,1137.091,1031.38,1135.959,1029.98,1134.892Zm360.362-3.364c-.207.148-.3,1.007-.447,1.538.268.257.54.744.8.734,1.812-.069,3.643-.086,5.342-3.7C1393.815,1129.441,1392.062,1130.3,1390.343,1131.529Zm15.428,17.009c.226-.11.386-.817.577-1.247-.25-.367-.513-1.076-.749-1.046a49.232,49.232,0,0,0-4.909.909c-.157.036-.281.646-.444,1.051C1402.135,1150.458,1403.96,1149.416,1405.77,1148.538Zm56.824-3.574c2.6.865,4.617.776,6.577-.839C1467.08,1142.674,1465.041,1142.189,1462.595,1144.964Zm-16.177-.37a21.623,21.623,0,0,0-3.445.057c-.393.062-.754.876-1.13,1.346.459.483.948,1.454,1.372,1.354a15.783,15.783,0,0,0,3.2-1.526Q1446.416,1145.208,1446.418,1144.593Zm-14.12-14.365a27.429,27.429,0,0,0,3.4-1.249c.2-.1.276-1.227.409-1.88-.266-.252-.593-.853-.786-.7-1.017.823-2,1.838-2.995,2.786Q1432.311,1129.708,1432.3,1130.228Zm32.388-3.008c1.13.389,2.309,1.112,3.32-2.445C1466.575,1125.537,1465.494,1125.476,1464.686,1127.22Zm-50.336-63.177c1.138,1.082,1.86-.3,2.634-.932C1416.117,1062.387,1415.254,1061.72,1414.349,1064.042Zm-2.254-.921c-.614.024-1.229.03-1.842.077s-1.236.135-1.854.205l.093,1.276,3.7-.879C1412.161,1063.574,1412.128,1063.348,1412.1,1063.121Zm-196.141,84.2c.817,1.669,1.544,1.693,2.157-.338Zm177.869-86.482c1.328.9,2,.929,2.372-1.424Zm38.953,2.747,2.165-.455C1434.229,1062.422,1433.419,1061.7,1432.777,1063.583ZM1047.833,1156l2.442-.358C1049.487,1154.957,1048.6,1154.16,1047.833,1156Zm-3.913-8.844,2.058-.928C1045.267,1145.6,1044.547,1144.9,1043.92,1147.154Zm84.643-2.872c.283.135.576.438.844.362.293-.083.562-.513,1.256-1.207l-2.054.081Q1128.586,1143.9,1128.563,1144.282Zm-97.889,4.027c.207.073.428-.068.644-.119-.1-.31-.19-.831-.315-.884-.2-.088-.431.128-.681.229C1030.466,1147.87,1030.558,1148.268,1030.674,1148.309Zm427.021-84.653c-.107-.2-.228-.589-.318-.562-.146.045-.272.362-.406.564l.392.355Zm-377.723,71.111a3.461,3.461,0,0,0-.373-.84c-.1-.1-.266.144-.4.234l.3,1.013Zm18.127,1.515c.131-.007.277-.213.372-.428a2.336,2.336,0,0,0-.089-.619,4.652,4.652,0,0,0-.607.385C1097.922,1135.937,1098.015,1136.287,1098.1,1136.282Zm142.094,7.13c-.116.007-.224.314-.335.489a4.325,4.325,0,0,0,.473.649,5.166,5.166,0,0,0,.215-.685C1240.428,1143.7,1240.307,1143.405,1240.193,1143.412Zm165.96-79.915a5.709,5.709,0,0,0-.152.647.678.678,0,0,0,.113.318,2.774,2.774,0,0,0,.284-.373Q1406.276,1063.792,1406.153,1063.5Zm64.887,80c.054.091.123.277.161.252a2.064,2.064,0,0,0,.334-.357l-.264-.535Zm-33.42,2.807c-.1-.131-.2-.349-.306-.37-.149-.029-.3.086-.453.14l.305.386Zm-70.875,1.77a3.341,3.341,0,0,0,.024.838.426.426,0,0,0,.426.281c.079-.018.134-.408.228-.725Zm-96.922-1.39a1.455,1.455,0,0,0-.214-.378c-.043-.035-.119.129-.18.2l.174.252Zm-218.858-.848a.212.212,0,0,0,.22.053c.064-.031.119-.154.178-.237l-.407-.153A1.81,1.81,0,0,0,1050.966,1145.836Zm397.058-17.82c-.05-.121-.1-.34-.149-.345a1.3,1.3,0,0,0-.437.1c.063.21.126.42.19.631Zm-22.828-65.795a.217.217,0,0,0,.195.011c.059-.03.112-.12.167-.184l-.378-.1A1.83,1.83,0,0,0,1425.2,1062.221Zm-73.782,70.233c-.026-.093-.108-.114-.165-.166a1.357,1.357,0,0,0-.047.357c.027.094.108.115.166.168A1.35,1.35,0,0,0,1351.414,1132.454Zm-286.774,5.219-.159.19.2.12Zm339.591-74.974-.161.123.147.191Zm-12.081,64.93-.056-.11Zm28.729-64.606-.024-.207-.025.166Zm0,0,.115-.222-.164.182Z" transform="matrix(0.839, -0.545, 0.545, 0.839, -1411.125, -49.974)" fill="#6fc486"></path></svg>