<svg xmlns="http://www.w3.org/2000/svg" xmlns:xlink="http://www.w3.org/1999/xlink" id="icon-about-Defendre" viewBox="0 0 90 90"><defs><style>.cls-1,.cls-2{fill:none;}.cls-3{clip-path:url(#clippath);}.cls-4{fill:#07799d;}.cls-2{stroke:#fff;stroke-miterlimit:10;stroke-width:2px;}</style><clipPath id="clippath"><rect class="cls-1" x="20.55" y="23.5" width="48.91" height="43"></rect></clipPath></defs><circle class="cls-4" cx="45" cy="45" r="45"></circle><g class="cls-3"><g id="Groupe_492"><path id="Trac&#xE9;_308" class="cls-2" d="M54.45,61.5h-4l-9-9h-10.91c-5.2,0-9-4.8-9-10-.15-4.82,3.62-8.85,8.44-9,.19,0,.37,0,.56,0h10.91l9-9h4V61.5Zm.38-26.74c2.79,1.57,4.49,4.54,4.42,7.74,.07,3.2-1.63,6.17-4.42,7.74"></path><line id="Ligne_147" class="cls-2" x1="32.45" y1="42.5" x2="32.45" y2="52.5"></line><path id="Trac&#xE9;_309" class="cls-2" d="M35.45,52.5l3.91,13h-6.82l-4-13"></path><line id="Ligne_148" class="cls-2" x1="69.45" y1="42.5" x2="63.45" y2="42.5"></line><line id="Ligne_149" class="cls-2" x1="67.45" y1="51.5" x2="62.45" y2="48.5"></line><line id="Ligne_150" class="cls-2" x1="67.45" y1="33.5" x2="62.45" y2="36.5"></line></g></g></svg>