<svg xmlns="http://www.w3.org/2000/svg" id="icon-about-Defendre" viewBox="0 0 90 90"><defs><style>.cls-1{fill:#07799d;}.cls-2{fill:none;stroke:#fff;stroke-linecap:round;stroke-linejoin:round;stroke-width:2px;}</style></defs><circle class="cls-1" cx="45" cy="45" r="45"></circle><g id="Groupe_472"><path id="Trac&#xE9;_157" class="cls-2" d="M27.26,49.07c7.02-5.32,18.62-2.89,24.1,7.58"></path><path id="Trac&#xE9;_158" class="cls-2" d="M45.88,50s8.89-7.75,6.57-16.21"></path><path id="Trac&#xE9;_159" class="cls-2" d="M27.26,65.89c16.48,5.57,33.56,0,33.56,0,4.05-15.75,.53-34.38-.13-38.28-.08-.46-.32-.87-.69-1.15-1.48-1.15-6.87-3.96-14.65-4.82-.63-.07-1.23,.31-1.43,.91l-2.15,6.77,1.81,3.03"></path><path id="Trac&#xE9;_160" class="cls-2" d="M30.08,58.27c3.39,1.84,7.26,2.58,11.08,2.14"></path><path id="Trac&#xE9;_161" class="cls-2" d="M48.09,30.16l-5.78,2.81c-.53,.32-.7,1.01-.38,1.53,.11,.18,.26,.32,.45,.42,0,0,4.19-.08,5.57,.11,.88,.12,4.45,.55,4.45,.55"></path></g></svg>