<svg xmlns="http://www.w3.org/2000/svg" id="Component_21_1" data-name="Component 21 &#x2013; 1" width="145" height="145" viewBox="0 0 145 145"><g id="Component_20_1" data-name="Component 20 &#x2013; 1"><circle id="Ellipse_39" data-name="Ellipse 39" cx="72.5" cy="72.5" r="72.5" fill="#125a75"></circle></g><g id="Group_226" data-name="Group 226" transform="translate(45 53)"><path id="Path_211" data-name="Path 211" d="M221.614,210.081V194.364L215.381,198l-2.493-4.12,9.485-5.8h5.475v22.006Zm32.957,6.289v-4.281h2.818a5.077,5.077,0,0,0,2.818-.652,2.084,2.084,0,0,0,.976-1.842,1.891,1.891,0,0,0-1.057-1.735,6.5,6.5,0,0,0-3.116-.595,5.936,5.936,0,0,0-3.171.678,3.93,3.93,0,0,0-1.544,2.3l-5.475-.706a8.04,8.04,0,0,1,3.469-4.985,12.494,12.494,0,0,1,6.937-1.736,13.274,13.274,0,0,1,7.157,1.653,5.162,5.162,0,0,1,2.6,4.581,4.286,4.286,0,0,1-.949,2.792,7.239,7.239,0,0,1-2.9,1.977q4.444,1.466,4.445,5.368a5.932,5.932,0,0,1-2.71,5.2q-2.713,1.842-7.644,1.844a12.567,12.567,0,0,1-7.724-2.142,7.239,7.239,0,0,1-2.954-5.881h5.638a4.084,4.084,0,0,0,1.463,2.737,5.616,5.616,0,0,0,3.361.841q4.661,0,4.662-2.82,0-2.6-4.229-2.6Zm-29.013,9.774,23.525-37.454h3.36L228.92,226.144Z" transform="translate(-212.888 -188.075)" fill="#fff"></path></g></svg>