<svg xmlns="http://www.w3.org/2000/svg" id="Layer_1" viewBox="0 0 60 60"><defs><style>.cls-1{fill:#fff;}.cls-2{fill:#1b4053;}</style></defs><circle class="cls-2" cx="30" cy="30" r="30"></circle><g><path class="cls-1" d="M37.18,22.76v-6.84h-3.74l-6.04,5.85h-6.98c-.14,0-.28,0-.42,0-1.74,.03-3.37,.73-4.58,1.98-1.21,1.25-1.86,2.9-1.84,4.61-.09,3.14,1.92,5.89,4.78,6.88l2.81,8.84h6.15l-2.62-8.45h2.71l6.04,5.85h3.74v-7.49c2.03-1.15,3.26-3.28,3.22-5.6,.04-2.34-1.2-4.48-3.22-5.62Zm-11.9,19.82h-3.01l-2.22-6.98c.11,0,.22,.03,.33,.03h2.74l2.16,6.95Zm10.4-2.6h-1.63l-6.04-5.85h-5.6s0-5.75,0-5.75h-1.5v5.75h-.5c-3.02-.13-5.42-2.7-5.33-5.76-.02-1.34,.48-2.61,1.41-3.57s2.18-1.5,3.52-1.53c.11,0,.21,0,.36,0h7.62l6.04-5.85h1.63v22.55Zm1.5-7.81v-7.59c1.1,.93,1.75,2.31,1.72,3.81,.02,1.48-.62,2.86-1.72,3.78Z"></path><rect class="cls-1" x="42.47" y="27.63" width="4.03" height="1.5"></rect><rect class="cls-1" x="42.73" y="31.31" width="1.5" height="3.88" transform="translate(-7.11 54.15) rotate(-59.85)"></rect><rect class="cls-1" x="41.54" y="22.75" width="3.88" height="1.5" transform="translate(-5.92 25.03) rotate(-30.17)"></rect></g></svg>