<svg xmlns="http://www.w3.org/2000/svg" id="Layer_1" viewBox="0 0 60 60"><defs><style>.cls-1{fill:#fff;}.cls-2{fill:#125a75;}</style></defs><circle class="cls-2" cx="30" cy="30" r="30"></circle><g id="Groupe_405"><g id="Groupe_404"><g id="Trac&#xE9;_270"><path class="cls-1" d="M40.52,42.8H15.85V13.5h17.82l6.85,7.75v21.55Zm-23.17-1.5h21.67V21.81s-6.02-6.81-6.02-6.81h-15.65v26.3Z"></path></g><g id="Trac&#xE9;_271"><polygon class="cls-1" points="37.19 22.94 31.29 22.94 31.29 16.9 32.79 16.9 32.79 21.44 37.19 21.44 37.19 22.94"></polygon></g><g id="Ligne_111"><rect class="cls-1" x="21.1" y="24.09" width="9.01" height="1.5"></rect></g><g id="Ligne_112"><rect class="cls-1" x="21.1" y="28.06" width="9.01" height="1.5"></rect></g><g id="Ligne_113"><rect class="cls-1" x="21.1" y="32.03" width="6.44" height="1.5"></rect></g></g><g id="Trac&#xE9;_272"><polygon class="cls-1" points="44.15 46.5 20.23 46.5 20.23 45 42.65 45 42.65 25.24 44.15 25.24 44.15 46.5"></polygon></g></g></svg>