<svg xmlns="http://www.w3.org/2000/svg" id="Layer_1" viewBox="0 0 60 60"><defs><style>.cls-1{fill:#fff;}.cls-2{fill:#07799d;}</style></defs><circle class="cls-2" cx="30" cy="30" r="30"></circle><g><rect class="cls-1" x="37.91" y="34.87" width="1.5" height="9.31" transform="translate(-16.51 43.07) rotate(-49.31)"></rect><rect class="cls-1" x="16.69" y="38.77" width="9.31" height="1.5" transform="translate(-20.62 23.49) rotate(-40.72)"></rect><path class="cls-1" d="M41.94,21.67v-4.37h-6.78l-5.15-3.29-5.15,3.29h-6.78v4.37l-3.57,2.28v22.05h31.01V23.95l-3.57-2.28Zm-11.93-5.88l2.37,1.51h-4.73l2.37-1.51Zm14,28.72H16V28.42l14,8.96,14.01-8.96v16.08Zm0-17.86l-14.01,8.96-14-8.96v-1.88l2.07-1.32v2.72h1.5v-7.37h20.87v7.37h1.5v-2.72l2.07,1.32v1.87Z"></path><rect class="cls-1" x="23.14" y="22.93" width="7.13" height="1.5"></rect><rect class="cls-1" x="23.46" y="26.98" width="13.08" height="1.5"></rect></g></svg>