<svg xmlns="http://www.w3.org/2000/svg" id="Layer_1" viewBox="0 0 60 60"><defs><style>.cls-1{fill:#fff;}</style></defs><g id="Groupe_407"><g id="Groupe_406"><g id="Ellipse_84"><path class="cls-1" d="M28.6,28.81c-1.12,0-2.04-.93-2.04-2.08s.92-2.08,2.04-2.08,2.04,.93,2.04,2.08-.92,2.08-2.04,2.08Zm0-2.66c-.3,0-.54,.26-.54,.58s.24,.58,.54,.58,.54-.26,.54-.58-.24-.58-.54-.58Z"></path></g><g id="Trac&#xE9;_273"><path class="cls-1" d="M35.16,46h-1.5v-4.07h4.64c.64,0,1.17-.51,1.17-1.14v-.1s0-6.73,0-6.73h3c-.57-2.2-1.99-7.61-2.34-9.04-1.23-5.43-5.97-9.29-11.54-9.4-6.38,.15-11.56,5.48-11.49,11.88,.16,3.96,2.22,7.72,5.49,10.03l.32,.22v8.37h-1.5v-7.6c-3.46-2.59-5.63-6.67-5.8-10.99-.07-7.23,5.76-13.24,12.99-13.42,6.29,.13,11.63,4.47,13.01,10.56,.44,1.78,2.55,9.87,2.58,9.95l.25,.94h-3.45v5.34c-.02,1.47-1.19,2.67-2.69,2.63h-3.11v2.57Z"></path></g></g><g id="Trac&#xE9;_274"><path class="cls-1" d="M30.49,34.79h-3.76l-.62-2.57c-.31-.15-.61-.32-.89-.53l-2.47,.73-1.86-3.32,1.84-1.84c-.02-.18-.03-.36-.03-.54,0-.18,.01-.37,.03-.55l-1.84-1.84,1.86-3.32,2.47,.73c.28-.2,.58-.38,.89-.52l.62-2.57h3.76l.62,2.57c.31,.15,.61,.32,.89,.52l2.47-.73,1.86,3.32-1.84,1.84c.02,.18,.03,.36,.03,.54h0c0,.19,0,.37-.03,.55l1.84,1.84-1.86,3.32-2.47-.73c-.28,.2-.58,.38-.89,.53l-.62,2.57Zm-2.58-1.5h1.4l.52-2.16,.36-.14c.43-.17,.82-.4,1.17-.7l.31-.25,2.08,.61,.72-1.28-1.57-1.56,.06-.38c.04-.23,.05-.47,.06-.7,0-.23-.02-.47-.06-.7l-.06-.38,1.57-1.56-.72-1.29-2.08,.61-.31-.26c-.35-.29-.75-.53-1.17-.7l-.36-.14-.52-2.16h-1.4l-.52,2.16-.36,.14c-.43,.17-.82,.4-1.17,.69l-.31,.26-2.08-.61-.72,1.29,1.56,1.56-.06,.38c-.04,.23-.06,.47-.06,.71,0,.23,.02,.46,.06,.69l.06,.38-1.56,1.56,.72,1.28,2.07-.61,.31,.25c.35,.29,.75,.53,1.17,.7l.36,.14,.52,2.16Z"></path></g></g></svg>