<svg xmlns="http://www.w3.org/2000/svg" id="Layer_1" viewBox="0 0 60 60"><defs><style>.cls-1{fill:#fff;}.cls-2{fill:#125a75;}</style></defs><circle class="cls-2" cx="30" cy="30" r="30"></circle><g><path class="cls-1" d="M31,37.97l-1.39-.56c4.33-10.7,11.15-13.78,11.44-13.91l.6,1.37c-.06,.03-6.57,3.01-10.65,13.09Z"></path><path class="cls-1" d="M32.45,36.45h-.02c-.53,0-1.01-.2-1.38-.57-.82-.82-.83-2.25-.83-2.42,0-.95,.16-4.24,2.27-6.67l.33-.38,.47,.16c.02-.21,.06-.45,.12-.71l.04-.16,.1-.13c3.88-4.94,10.62-4.1,10.91-4.06l.74,.1-.1,.74c-.02,.15-.53,3.81-2.65,7.3l-.13,.22-.24,.09c-.42,.16-.87,.32-1.32,.46l.96,.38-.77,.81c-2.14,2.26-6.07,4.75-8.5,4.85h-.02Zm.87-8.28c-1.48,1.99-1.59,4.53-1.59,5.3,0,0,0,.47,.15,.91,.18,.55,.42,.57,.54,.57,1.57-.08,4.55-1.72,6.64-3.59l-3.02-1.18,2.22-.58s1.71-.45,3.04-.94c1.3-2.23,1.92-4.53,2.17-5.71-1.74-.05-5.99,.2-8.63,3.42-.14,.72-.06,1.06-.06,1.07l.32,1.33-1.79-.59Z"></path><path class="cls-1" d="M20.08,38.76h-1.5V17.2c0-1.9,1.53-3.45,3.42-3.45h20.67v1.5H22c-1.06,0-1.92,.87-1.92,1.95v21.57Z"></path><rect class="cls-1" x="18" y="44.75" width="19.34" height="1.5"></rect><path class="cls-1" d="M18,46.25h-.67c-1.88,0-3.42-1.55-3.42-3.45v-.67c0-.79,.64-1.42,1.42-1.42h18.67c.78,0,1.42,.64,1.42,1.42v.67h-1.5v-.6H15.41v.6c0,1.07,.86,1.95,1.92,1.95h.67v1.5Z"></path><path class="cls-1" d="M40.75,19.89h-1.5v-2.7c0-1.9,1.53-3.45,3.42-3.45s3.42,1.55,3.42,3.45v.67c0,.79-.64,1.42-1.42,1.42h-2v-1.5h1.92v-.6c0-1.07-.86-1.95-1.92-1.95s-1.92,.87-1.92,1.95v2.7Z"></path><path class="cls-1" d="M37.34,46.25c-1.88,0-3.42-1.55-3.42-3.45h1.5c0,1.07,.86,1.95,1.92,1.95s1.92-.87,1.92-1.95v-8.09h1.5v8.09c0,1.9-1.53,3.45-3.42,3.45Z"></path><rect class="cls-1" x="23.33" y="36.66" width="3.33" height="1.5"></rect><rect class="cls-1" x="23.33" y="32.62" width="4" height="1.5"></rect><rect class="cls-1" x="23.33" y="28.58" width="4.67" height="1.5"></rect><rect class="cls-1" x="23.33" y="24.53" width="6" height="1.5"></rect><rect class="cls-1" x="23.33" y="20.49" width="9.89" height="1.5"></rect></g></svg>