<svg xmlns="http://www.w3.org/2000/svg" id="Layer_1" viewBox="0 0 60 60"><defs><style>.cls-1{fill:#fff;}.cls-2{fill:#07799d;}</style></defs><circle class="cls-2" cx="30" cy="30" r="30"></circle><g id="Groupe_415"><g id="Ligne_116"><rect class="cls-1" x="23.16" y="26.92" width="5.78" height="1.5"></rect></g><g id="Ligne_117"><rect class="cls-1" x="23.16" y="36.21" width="7.06" height="1.5"></rect></g><g id="Ligne_118"><rect class="cls-1" x="23.16" y="31.57" width="10.91" height="1.5"></rect></g><g id="Groupe_414"><g id="Groupe_412"><g id="Groupe_411"><g id="Trac&#xE9;_278"><path class="cls-1" d="M30.22,45h-9.63c-1.49-.02-2.69-1.25-2.68-2.75V21.71c-.01-1.48,1.18-2.72,2.66-2.74l.02,1.5c-.66,0-1.19,.56-1.19,1.23v20.56c0,.68,.53,1.23,1.19,1.24h9.62v1.5Zm12.3-19.32h-1.5v-3.98c0-.68-.53-1.23-1.19-1.24l.02-1.5c1.48,.02,2.68,1.25,2.66,2.75v3.97Z"></path></g><g id="Trac&#xE9;_279"><path class="cls-1" d="M38.67,22.46H21.76v-2.08c-.13-1.92,1.21-3.66,3.12-4.04,.53-.2,.9-.66,1.32-1.18,.77-.96,1.72-2.16,4.02-2.16s3.25,1.2,4.02,2.16c.42,.53,.78,.98,1.32,1.18,1.92,.38,3.25,2.13,3.12,4.09v2.03Zm-15.41-1.5h13.91s0-.57,0-.57c.08-1.28-.75-2.36-1.95-2.58l-.11-.03c-.97-.34-1.54-1.05-2.04-1.68-.71-.89-1.27-1.59-2.84-1.59s-2.13,.7-2.84,1.59c-.5,.63-1.08,1.35-2.05,1.68l-.11,.03c-1.2,.22-2.04,1.3-1.95,2.53v.62Z"></path></g><g id="Ellipse_85"><path class="cls-1" d="M30.22,19.8c-1.12,0-2.03-.93-2.03-2.08s.91-2.08,2.03-2.08,2.03,.93,2.03,2.08-.91,2.08-2.03,2.08Zm0-2.65c-.29,0-.53,.26-.53,.58s.24,.58,.53,.58,.53-.26,.53-.58-.24-.58-.53-.58Z"></path></g></g></g><g id="Groupe_413"><g id="Trac&#xE9;_280"><polygon class="cls-1" points="31.72 44.67 34.04 35.91 47.01 22.51 48.09 23.55 35.38 36.68 33.84 42.51 39.45 40.93 47.01 33.12 48.09 34.16 40.24 42.26 31.72 44.67"></polygon></g><g id="Ligne_119"><rect class="cls-1" x="43.64" y="27.92" width="4.61" height="1.5" transform="translate(-6.6 41.76) rotate(-45.95)"></rect></g><g id="Trac&#xE9;_281"><path class="cls-1" d="M39.12,41.79c-.63-2.31-2.36-4.1-4.63-4.78l.43-1.44c2.77,.84,4.88,3.02,5.64,5.83l-1.45,.39Z"></path></g></g></g></g></svg>