<svg xmlns="http://www.w3.org/2000/svg" id="Layer_1" viewBox="0 0 60 60"><defs><style>.cls-1{fill:#fff;}.cls-2{fill:#1b4053;}</style></defs><circle class="cls-2" cx="30" cy="30" r="30"></circle><g id="Trac&#xE9;_275"><path class="cls-1" d="M30.02,46c-5.49-.13-9.82-4.64-9.69-10.05v-9.27h1.5v9.28c-.11,4.6,3.57,8.42,8.19,8.53,4.59-.11,8.26-3.93,8.15-8.51v-14.6c.07-3.17-2.46-5.8-5.64-5.88-3.15,.08-5.68,2.71-5.61,5.86v14.6c-.05,2.1,1.62,3.84,3.73,3.89,2.07-.05,3.74-1.79,3.7-3.87v-12.62h1.5v12.6c.07,2.89-2.26,5.32-5.2,5.39-2.97-.07-5.29-2.5-5.23-5.41v-14.57c-.09-3.97,3.1-7.28,7.11-7.38,4.05,.1,7.23,3.41,7.14,7.4v14.57c.12,5.39-4.21,9.9-9.65,10.03Z"></path></g></svg>