<svg xmlns="http://www.w3.org/2000/svg" id="Layer_1" viewBox="0 0 60 60"><defs><style>.cls-1{fill:#fff;}.cls-2{fill:#6fc486;}</style></defs><circle class="cls-2" cx="30" cy="30" r="30"></circle><path class="cls-1" d="M31.89,44.69h-3.78l-.22-.32s-1.35-1.88-3.13-1.88H12V17.51h2.25v1.5h-.75v21.98h11.25c2.04,0,3.54,1.52,4.12,2.2h2.27c.57-.68,2.07-2.2,4.12-2.2h11.25V19.01h-.75v-1.5h2.25v24.98h-12.75c-1.77,0-3.12,1.86-3.13,1.88l-.22,.32Zm-1.89-4.83l-.41-.27c-.8-.52-1.71-.78-2.73-.78H15.75V15.31h11.25c1.46,0,2.41,.52,3,.98,.59-.46,1.54-.98,3-.98h11.25v23.51h-11.11c-1.01,0-1.93,.26-2.73,.78l-.41,.27Zm-12.75-2.54h9.61c1.14,0,2.19,.26,3.14,.78,.94-.52,2-.78,3.14-.78h9.61V16.81h-9.75c-1.29,0-1.94,.5-2.49,1.02l-.51,.47-.51-.47c-.56-.51-1.21-1.02-2.49-1.02h-9.75v20.51Zm22.5-4.37h-8.25v-1.5h8.25v1.5Zm-11.25,0h-8.25v-1.5h8.25v1.5Zm11.25-5.14h-8.25v-1.5h8.25v1.5Zm-11.25,0h-8.25v-1.5h8.25v1.5Zm11.25-5.14h-8.25v-1.5h8.25v1.5Zm-11.25,0h-8.25v-1.5h8.25v1.5Z"></path></svg>