<svg xmlns="http://www.w3.org/2000/svg" viewBox="0 0 30 30"><defs><style>.cls-1{fill:#fff;}.cls-2{fill:#6fc486;}</style></defs><g id="Layer_2"><circle class="cls-2" cx="15" cy="15" r="15"></circle></g><g id="Layer_1"><path id="Trac&#xE9;_151" class="cls-1" d="M16.1,7.1c.65,.38,1.2,.92,1.57,1.57,.75,1.31,.77,2.91,.07,4.24-.33,.62-.81,1.15-1.4,1.54l.37,.16c-.15,.15-.28,.32-.39,.5-.11,.17-.21,.35-.29,.54v.02c-.65-.33-1.37-.5-2.1-.5-.87,0-1.72,.22-2.47,.67-.75,.43-1.37,1.06-1.81,1.81-.44,.75-.67,1.6-.67,2.47h-1.24c0-1.63,.65-3.19,1.8-4.34,.56-.56,1.22-1.01,1.95-1.33-.58-.39-1.05-.92-1.38-1.53-.71-1.33-.68-2.92,.07-4.23,.38-.65,.92-1.2,1.57-1.57,1.35-.77,3-.77,4.34,0h0Zm-3.73,1.07c-.46,.27-.85,.66-1.12,1.12-.55,.96-.55,2.15,0,3.11,.27,.46,.66,.85,1.12,1.12,.96,.55,2.15,.55,3.11,0,.46-.27,.85-.66,1.12-1.12,.55-.96,.55-2.15,0-3.11-.27-.46-.66-.85-1.12-1.12-.96-.55-2.15-.55-3.11,0Zm8.35,6.72c.37,.22,.68,.53,.9,.9,.22,.37,.34,.8,.34,1.24v1.24h1.85v4.93H15.16v-4.94h1.85v-1.24c0-.44,.11-.86,.34-1.24,.22-.37,.53-.68,.9-.9,.76-.45,1.71-.45,2.47,0h0Zm-4.33,7.09h6.18v-2.47h-6.18v2.47Zm2.22-5.81c-.24,.23-.37,.54-.37,.87v1.24h2.47v-1.24c0-.68-.55-1.23-1.23-1.23-.33,0-.64,.13-.87,.36h0Z"></path></g></svg>