<svg xmlns="http://www.w3.org/2000/svg" id="Component_20_1" data-name="Component 20 &#x2013; 1" width="509" height="410" viewBox="0 0 509 410"><rect id="Rectangle_73" data-name="Rectangle 73" width="509" height="410" fill="#1b4053"></rect><g id="Group_244" data-name="Group 244" transform="translate(7.05 -1215.36)"><g id="Group_209" data-name="Group 209" transform="translate(67 1287.36)"><ellipse id="Ellipse_55" data-name="Ellipse 55" cx="52.382" cy="42.329" rx="52.382" ry="42.329" transform="translate(98.415 159.061)" fill="#d3dee3"></ellipse><g id="Group_207" data-name="Group 207" transform="translate(0 0)"><path id="Path_186" data-name="Path 186" d="M1011.041,591.185h-.036l-3.657-.017c-2.817-.013-5.73-.027-8.6-.027h-.359a1.536,1.536,0,0,1-1.552-.876c-.486-1.179-1.494-1.355-2.663-1.453-1.3-.108-2.627-.121-3.913-.133-1.191-.012-2.422-.023-3.632-.111-1.51-.109-3.05-.163-4.54-.214-1.934-.067-3.934-.136-5.9-.328a3.458,3.458,0,0,1-2.292-1.152c-2.666-2.889-5.383-5.821-8.01-8.657-4.917-5.307-10-10.8-14.964-16.23-.624-.684-1.245-1.388-1.846-2.069a63.906,63.906,0,0,0-4.883-5.136l-.071-.058a1.071,1.071,0,0,1-.273-.285.55.55,0,0,1,.019-.591.585.585,0,0,1,.514-.285,1.31,1.31,0,0,1,.364.067l.077.021a4.174,4.174,0,0,0,1.009.169c.5,0,.823-.189,1.226-1.221a82.657,82.657,0,0,0,2.687-8.733c.068-.256.01-.295-.272-.477l-.026-.017a8.872,8.872,0,0,1-2.869-2.611,4.986,4.986,0,0,1-.833-2.5,2.815,2.815,0,0,1,.341-1.581,2.686,2.686,0,0,1,1.2-1.046,3.706,3.706,0,0,0,1.665-1.7,85.527,85.527,0,0,1,10.322-14.951,8.616,8.616,0,0,0,2.259-5.782,4.105,4.105,0,0,1,.3-1.695,2.255,2.255,0,0,1,1.333-1.234c1.573-.571,1.994-1.861,2.38-3.489A2.008,2.008,0,0,1,967.2,505a5.546,5.546,0,0,0,3.064-2.368,22.274,22.274,0,0,0,2.374-4.5c.161-.37.327-.753.5-1.128a15.647,15.647,0,0,1,1.262-2.347,2.24,2.24,0,0,1,1.837-1.1,2.477,2.477,0,0,1,1.676.747c.076.071.148.147.218.219a2.077,2.077,0,0,0,.439.383,2.116,2.116,0,0,0,.941.342c.26,0,.528-.142.993-.836.229-.343.44-.713.644-1.071.157-.275.32-.56.491-.835a4.721,4.721,0,0,1,1.473-1.435,1.962,1.962,0,0,1,1.079-.377,1.642,1.642,0,0,1,1.209.6l.042.045c.3.32.576.623.883.623a.9.9,0,0,0,.528-.23.674.674,0,0,1,.426-.139,1.749,1.749,0,0,1,.519.107c.058.018.114.036.164.049a12.089,12.089,0,0,0,2.692.528c1.061,0,1.6-.607,2.979-2.485,3.026-4.115,6.079-8.316,9.032-12.379l1.995-2.744a6.682,6.682,0,0,1,2.431-2.255c2.419-1.166,3.922-3.262,4.875-6.794a30.538,30.538,0,0,0,.772-5.295c.058-.666.117-1.355.193-2.031a3.155,3.155,0,0,1,2.211-3.043,4.007,4.007,0,0,0,2.809-2.922c1.061-3.269,3.158-5.867,5.4-8.461a7.618,7.618,0,0,1,3.052-2.133,15.323,15.323,0,0,1,3.6-.839,29.829,29.829,0,0,0,8.227-2.079l.2-.085c.719-.307,1.4-.6,1.657-1.355l.071-.207h5.008l-.017.323c-.007.135-.016.271-.025.4-.019.276-.038.561-.038.836,0,2.552.013,5.149.028,7.659.031,5.543.064,11.274-.077,16.91-.122,4.849-.112,9.781-.1,14.551.01,4.514.02,9.182-.082,13.774-.156,7.007-.142,14.135-.128,21.026.013,5.961.026,12.124-.072,18.185-.126,7.8-.128,15.726-.13,23.393,0,5.757,0,11.711-.058,17.567-.029,3.194-.076,5.816-.147,8.252a.874.874,0,0,0,.65,1.021,12.567,12.567,0,0,1,1.776.88,2.8,2.8,0,0,1,1.284,1.206,2.034,2.034,0,0,1-.063,1.6,2.823,2.823,0,0,1-2.557,2.11,2.7,2.7,0,0,1-.685-.092,16.311,16.311,0,0,1-2.408-.863,1.264,1.264,0,0,0-.485-.128c-.152,0-.337.052-.565.439a11.532,11.532,0,0,1-1.38,1.776c-.2.221-.4.449-.588.677A3.489,3.489,0,0,1,1036.4,590c-.12,0-.245,0-.373-.013-3.232-.214-6.426-.241-8.848-.241-1.334,0-2.69.01-4,.019s-2.671.019-4.006.019-2.5-.01-3.583-.029h-.126a2.946,2.946,0,0,0-2.16.721A3.221,3.221,0,0,1,1011.041,591.185Z" transform="translate(-818.315 -437.173)" fill="#07799d" stroke="#d3dee3" stroke-miterlimit="10" stroke-width="2"></path><path id="Path_187" data-name="Path 187" d="M999.089,827.766h-14.47l-.076-.049a1.13,1.13,0,0,0-.617-.11c-.056,0-.113,0-.169,0-2.319-.072-4.677-.141-6.958-.207-4.647-.136-9.453-.275-14.179-.448-3.885-.142-7.833-.315-11.651-.483-3.2-.14-6.507-.285-9.76-.411-2.438-.094-4.914-.233-7.308-.366-3.538-.2-7.2-.4-10.8-.468H923l-.171-.006c-.51-.013-1.209-.031-1.444-.651-.25-.661.325-1.014.669-1.225a2.853,2.853,0,0,0,.26-.171c1.834-1.456,3.732-2.961,5.671-4.411.191-.143.3-.26.308-.349a.669.669,0,0,0-.18-.4c-.271-.373-.522-.765-.764-1.144-.187-.292-.38-.594-.578-.881a4.038,4.038,0,0,1-.522-3.771l.093-.272a30.132,30.132,0,0,0,1.191-4.141c.1-.548.323-1.108,1.19-1.108a3.1,3.1,0,0,1,.4.029,13.914,13.914,0,0,1,5.045,1.925c.683.39,1.388.771,2.07,1.14.378.2.769.416,1.152.626a10.056,10.056,0,0,0,4.929,1.053c.674,0,1.347-.03,2.094-.067.88-.044,1.778-.159,2.646-.27.674-.086,1.371-.176,2.063-.232.392-.032.487-.128.563-.569.333-1.942.395-2.29.738-4.2.114-.635,1.128-3.092,1.242-3.727.253-1.411,2.238-2.807,3.313-3.589,2.869-2.087,3.074-4.265,4.443-7.516.737-1.752,1.745-2.533,3.266-2.533a5.239,5.239,0,0,1,.81.068,4.759,4.759,0,0,0,.7.077c.249,0,.273-.054.3-.116a3.516,3.516,0,0,0,.117-.977,2.223,2.223,0,0,1,1.521-2.167c2.022-.834,3.977-1.747,5.454-2.449a2.232,2.232,0,0,1,.959-.247,1.748,1.748,0,0,1,1.144.455,3.984,3.984,0,0,0,2.559,1.044,3.936,3.936,0,0,0,1.614-.373,1.409,1.409,0,0,1,.345-.094h.009a1.454,1.454,0,0,1,.248-.021,6.114,6.114,0,0,1,2.979,1.331c.428.318,1.839,1.431,1.993,2.42a1.759,1.759,0,0,1-.533,1.7,11.466,11.466,0,0,1-.931.744,3.275,3.275,0,0,0-.635,5.26c.423.494.9.963,1.365,1.416.239.234.485.476.723.72a3.466,3.466,0,0,1,1.193,2.92,1.482,1.482,0,0,0,.717,1.452c.115.082.23.166.341.247a5.781,5.781,0,0,0,1.643.951,5.008,5.008,0,0,1,3.106,2.663c.175.345.345.414.563.414a1.522,1.522,0,0,0,.352-.049,8.632,8.632,0,0,1,2.052-.3,4.889,4.889,0,0,1,.748.056c1.117.173,1.271,1.025,1.384,1.647.028.149.053.29.088.42a1.407,1.407,0,0,1-.782,1.892,3.431,3.431,0,0,0-.448.245,3.639,3.639,0,0,1-.581.307,2.836,2.836,0,0,0-1.514,1.255,5.129,5.129,0,0,0-.551,2,3.914,3.914,0,0,0,.388,2.4,4.6,4.6,0,0,0,1.835,1.681,16.494,16.494,0,0,0,6.4,2.484,1.2,1.2,0,0,1,.968.518,1.354,1.354,0,0,1-.01,1.226c-.522,1.321-1.038,2.671-1.537,3.976q-.308.805-.617,1.609Z" transform="translate(-809.637 -570.806)" fill="#0f627f" stroke="#d3dee3" stroke-miterlimit="10" stroke-width="2"></path><path id="Path_188" data-name="Path 188" d="M1115.029,585.891a1.331,1.331,0,0,1-.895-.448l-.061-.057c-1.585-1.474-3.225-3-5.394-3.616-.984-.28-.979-1.179-.975-1.774,0-.045,0-.089,0-.133,0-1.041.019-2.1.04-3.119.017-.856.035-1.741.039-2.61.022-4.811.041-9.7.058-14.432.026-6.79.053-13.811.09-20.717l.024-4.527c.095-17.578.192-35.754.339-53.631.012-1.417.053-2.856.093-4.247.064-2.263.131-4.6.073-6.9-.027-1.06-.106-2.106-.188-3.079a.892.892,0,0,1,1.012-1.134c6.088-.121,12.276-.263,18.262-.4l7.348-.166q6.835-.154,13.67-.3c8.015-.178,16.3-.361,24.453-.548.726-.017,1.145-.033,1.3-.171s.2-.567.256-1.252c.226-2.633.376-4.939.458-7.05a1.523,1.523,0,0,1,.309-1,1.209,1.209,0,0,1,.939-.339c.05,0,.1,0,.159,0,1.566.081,3.169.123,4.548.156l.129,0h0a3.209,3.209,0,0,0,2.291-.79,3.386,3.386,0,0,0,.95-2.284c.133-1.743.919-2.608,2.8-3.085.873-.221,1.354-.343,1.532-.567s.176-.7.177-1.57v-.166a49.414,49.414,0,0,0-.174-5.14,4.835,4.835,0,0,1,.2-1.919l.107-.348.325.164a10.016,10.016,0,0,1,2.676,1.923,8.428,8.428,0,0,1,1.788,2.755,1.282,1.282,0,0,0,1.3.977,2.837,2.837,0,0,0,.378-.028,29.362,29.362,0,0,1,3.976-.221l.618,0a3.1,3.1,0,0,1,2.99,1.674c.18.344.318.344.385.344a.959.959,0,0,0,.377-.109,1.723,1.723,0,0,1,.715-.176c.4,0,.945.191,1.269,1.1a5.419,5.419,0,0,1,.292,1.5c.335,5.719.686,11.533,1.025,17.155l.1,1.633q.1,1.61.194,3.22c.205,3.42.418,6.957.635,10.434q.089,1.427.177,2.854c.218,3.539.444,7.2.712,10.793.2,2.612.145,5.258.1,7.818-.019.976-.037,1.984-.043,2.976a1.436,1.436,0,0,1-.564,1.306l-.255.161c-1.573.995-3.2,2.023-5.191,2.023a5.914,5.914,0,0,1-.734-.046c-.392-.05-.782-.125-1.158-.2-.309-.06-.628-.122-.941-.167a2.637,2.637,0,0,0-.376-.028,1.768,1.768,0,0,0-1.543.8,5.323,5.323,0,0,1-2.047,1.888,5.253,5.253,0,0,1-2.407.525,11.749,11.749,0,0,1-2.771-.4,15.393,15.393,0,0,1-2.873-1.029,1.028,1.028,0,0,0-.4-.119c-.057,0-.176,0-.32.273a14.175,14.175,0,0,1-2.847,3.716,19.746,19.746,0,0,1-3.767,2.747,7.232,7.232,0,0,0-3.061,3.527,12.323,12.323,0,0,1-2.855,4.141,6.362,6.362,0,0,0-2,4.81,25.057,25.057,0,0,1-1.742,9.381c-.06.145-.121.29-.18.431-.088.208-.179.423-.262.636a6.129,6.129,0,0,1-2.461,3.068,8.757,8.757,0,0,1-3.728,1.181c-.92.107-1.856.239-2.761.366a47.571,47.571,0,0,1-6.632.621c-.424,0-.844-.012-1.247-.034-.034,0-.068,0-.1,0a.885.885,0,0,0-.655.218c-.115.118-.234.237-.348.352-1.105,1.108-2.15,2.155-2.157,3.8a2.679,2.679,0,0,1-.54,1.707,3.509,3.509,0,0,1-1.453,1.018,12.029,12.029,0,0,1-3.729.729c-.424.036-.862.074-1.288.128a3.48,3.48,0,0,0-3.328,2.784,5.462,5.462,0,0,1-2.892,3.743c-.236.134-.477.268-.71.4a16.079,16.079,0,0,0-4.152,2.925c-1.562,1.685-2.644,3.224-2.842,5.254a3.013,3.013,0,0,1-2.216,2.834,2.252,2.252,0,0,0-1.3,1.3c-.658,1.284-1.428,2.8-2.15,4.328a12.828,12.828,0,0,1-2.805,3.94c-2.038,1.921-3.7,3.522-5.244,5.038A1.371,1.371,0,0,1,1115.029,585.891Z" transform="translate(-881.666 -437.696)" fill="#0f627f" stroke="#d3dee3" stroke-miterlimit="10" stroke-width="2"></path><path id="Path_189" data-name="Path 189" d="M774.654,706.014a1.663,1.663,0,0,1-.458-.07l-.312-.09c-1.963-.564-3.994-1.146-6-1.658-2.878-.732-5.855-1.61-9.1-2.684a9.307,9.307,0,0,1-4.343-3.2c-3.744-4.488-5.929-9.869-8.043-15.074l-.14-.345c-.281-.691-.564-1.4-.838-2.077-1.027-2.556-2.089-5.2-3.266-7.731a8.941,8.941,0,0,1-.844-3.074,8.812,8.812,0,0,1,.323-3.133,4.529,4.529,0,0,0-.482-3.593c-.383-.664-.746-1.351-1.1-2.016-.154-.291-.313-.594-.472-.889a2.125,2.125,0,0,1-.01-2.133c1.678-3.085,2.147-6.554,2.6-9.91.064-.476.131-.968.2-1.452.427-3,.917-6.032,1.39-8.968.2-1.252.411-2.547.612-3.821q.438-2.774.877-5.547.489-3.092.977-6.184.5-3.153.995-6.306.54-3.428,1.081-6.856c.066-.417.135-.841.2-1.25.137-.838.279-1.705.4-2.558.037-.266.114-.818.714-.818a1.635,1.635,0,0,1,.388.055,103.29,103.29,0,0,0,11.466,1.937c2.005.257,4.05.48,6.027.7.978.107,1.99.217,2.984.33,1.1.125,2.215.255,3.294.38,2.125.248,4.324.5,6.487.732,1.785.189,3.6.357,5.363.52,1.079.1,2.194.2,3.29.309,1.3.128,2.63.261,3.912.39,1.71.172,3.477.35,5.217.515,1.309.125,2.643.238,3.933.349,1.109.1,2.257.193,3.385.3l.464.043c3,.277,6.107.564,9.158.878,3.181.327,6.389.7,9.221,1.021,1.355.156,2.73.321,4.06.481,1.717.206,3.493.42,5.241.615,1.451.162,3.168.339,4.9.425a1.358,1.358,0,0,1,1.036.414,1.431,1.431,0,0,1,.211,1.12c-.084.611-.171,1.231-.256,1.831-.474,3.373-.965,6.861-1.1,10.326-.127,3.182-.363,6.379-.577,9.086-.172,2.17-.378,4.373-.578,6.5-.114,1.213-.231,2.467-.341,3.7-.078.88-.087,1.783-.1,2.656-.009.9-.018,1.839-.1,2.763-.066.72-.284,1.547-1.393,1.547a2.948,2.948,0,0,1-.309-.018,4.423,4.423,0,0,0-.48-.025,10.624,10.624,0,0,0-1.481.139c-.219.031-.446.063-.671.088a2.8,2.8,0,0,0-1.529.952,1.951,1.951,0,0,1-1.362.616,1.86,1.86,0,0,1-.85-.218,3.4,3.4,0,0,0-1.584-.385,5.628,5.628,0,0,0-2.088.475c-.722.288-1.454.587-2.162.877-1.732.708-3.523,1.44-5.321,2.072a5.8,5.8,0,0,0-2.5,1.442,3.279,3.279,0,0,0-.532,2.892l.125.653-.578-.33-.891-.509c-.625-.357-1.164-.665-1.7-.971a.774.774,0,0,0-.35-.13c-.109,0-.175.218-.212.4-.578,2.886-.932,5.112-1.146,7.217a3.08,3.08,0,0,1-.376,1.492,1.357,1.357,0,0,1-1.206.428c-.228,0-.488-.013-.8-.03-1.349-.07-2.709-.076-3.878-.076H801.88c-.426,0-.99,0-1.562-.007h-.011c-.239,0-.359.065-.485.467-.2.628-.417,1.259-.628,1.869-.1.29-.2.591-.305.887a1.141,1.141,0,0,1-1.139.868,1.692,1.692,0,0,1-.237-.017l-1.922-.277c-1.5-.218-3.046-.442-4.57-.644a1.917,1.917,0,0,1-1.717-1.564c-.235-.931-.468-1.884-.71-2.913-.007-.03-.014-.06-.021-.091-.067-.3-.092-.305-.176-.312-.409-.028-.823-.064-1.223-.1-.866-.075-1.762-.154-2.632-.154a8.732,8.732,0,0,0-3.719.714,2.55,2.55,0,0,0-1.695,2.225c-.207,2.122-.549,4.256-.879,6.319-.236,1.47-.479,2.99-.671,4.49a37.042,37.042,0,0,0-.334,5.973,22.644,22.644,0,0,0,.935,5.881,7.465,7.465,0,0,1-.644,6.032,32.1,32.1,0,0,0-1.71,3.78l-.063.155a1.6,1.6,0,0,1-.407.623A1.027,1.027,0,0,1,774.654,706.014Z" transform="translate(-739.285 -501.868)" fill="#0f627f" stroke="#d3dee3" stroke-miterlimit="10" stroke-width="2"></path><path id="Path_190" data-name="Path 190" d="M845.434,771.753a2.1,2.1,0,0,1-1.38-.591c-.464-.4-.942-.791-1.4-1.173-.839-.693-1.706-1.411-2.525-2.158a4.231,4.231,0,0,0-2.842-1.307,4.047,4.047,0,0,0-1.763.442,5.092,5.092,0,0,1-2.2.531,5.015,5.015,0,0,1-2.871-.964,6.987,6.987,0,0,0-2.17-1.031,5.66,5.66,0,0,1-3.459-2.345,8.9,8.9,0,0,1-1.286-3.875q-.067-.5-.134-1c-.2-1.493-.4-3.036-.651-4.544-.169-1.022-.507-1.5-1.169-1.661a1.4,1.4,0,0,0-.323-.04,2.391,2.391,0,0,0-1.561.955l-.036.036a.617.617,0,0,0-.094.1c-.513,1.037-1.117,1.52-1.9,1.52a4.435,4.435,0,0,1-2.05-.75,9.338,9.338,0,0,1-2.808-2.357,6.659,6.659,0,0,1-1.356-3.466,6.087,6.087,0,0,0-1.1-2.925,9.954,9.954,0,0,0-2.258-2.231,36.357,36.357,0,0,0-4.2-2.768,20.273,20.273,0,0,0-4.628-1.9,1.22,1.22,0,0,1-.853-.564,1.239,1.239,0,0,1,.112-1.02c.387-.833.755-1.694,1.11-2.527.366-.858.745-1.746,1.147-2.607a5.571,5.571,0,0,0,.419-3.66,40,40,0,0,1-.9-7.2,36.606,36.606,0,0,1,.493-7.251c.461-2.717.81-5.5,1.148-8.2q.116-.924.233-1.847a1.767,1.767,0,0,1,.911-1.353,7.178,7.178,0,0,1,4.023-1.022c.6,0,1.209.037,1.8.074l.472.028a5.735,5.735,0,0,1,.631.08c.12.02.233.039.347.053a1.25,1.25,0,0,1,1.194,1.035c.118.482.275.969.426,1.439.169.525.344,1.069.472,1.62.107.46.327.643.872.727l1.238.191c2.035.314,4.14.637,6.208.969a.94.94,0,0,0,.152.014c.147,0,.261-.025.386-.352.174-.456.363-.912.547-1.352.23-.552.467-1.123.672-1.691a1.135,1.135,0,0,1,1.192-.869l.1,0c.937.036,1.892.058,2.816.079,1.4.032,2.845.064,4.268.149.067,0,.131.006.191.006h0c.669,0,.89-.222,1.026-1.033.331-1.974.725-3.979,1.106-5.918.151-.77.307-1.566.459-2.356l.069-.363.344.135a8.66,8.66,0,0,1,1.841,1.07c.2.143.4.279.6.408a1.392,1.392,0,0,0,.545.261,1.151,1.151,0,0,0,.026-.475,3.877,3.877,0,0,1,.643-2.649,5.166,5.166,0,0,1,2.163-1.624,69.771,69.771,0,0,1,8.645-3.166,4.142,4.142,0,0,1,1.212-.183,4.809,4.809,0,0,1,2.014.474,1.027,1.027,0,0,0,.425.112.8.8,0,0,0,.593-.317,3.782,3.782,0,0,1,2.752-1.347c.066,0,.133,0,.2.006a3.32,3.32,0,0,1,1.772.507,2.7,2.7,0,0,1,1.006,1.561,30.032,30.032,0,0,1,.7,3.249,4.242,4.242,0,0,0,1.649,2.717,3.725,3.725,0,0,1,1.519,1.934,3.438,3.438,0,0,1-.515,2.378c-.433.853-.823,1.752-1.2,2.622a21.564,21.564,0,0,1-3.323,5.867c-.25.284-.45.531-.61.728-.4.493-.622.765-.944.765-.369,0-.586-.337-1.061-1.075-.119-.185-.254-.394-.413-.633a4.788,4.788,0,0,0-2.338-1.825,2.327,2.327,0,0,0-.924-.2,3.709,3.709,0,0,0-1.729.593l-.155.083c-.482.255-.968.528-1.437.791-.915.513-1.86,1.044-2.844,1.485-1.58.709-1.89,2.184-2.089,3.762a32.88,32.88,0,0,1-.616,3.255A3.585,3.585,0,0,0,844,718.789c.661.335,1.283.731,1.884,1.114.283.18.575.367.866.543a4.1,4.1,0,0,0,2.066.76,2.336,2.336,0,0,0,.531-.062,1,1,0,0,1,.236-.029.823.823,0,0,1,.75.64A3.46,3.46,0,0,1,850.5,723c0,.809,0,1.631-.009,2.426-.017,3.43-.034,6.978.185,10.458a4.343,4.343,0,0,1-1.414,3.641,3.778,3.778,0,0,0-1.341,3.68c.172,1.055.361,2.126.543,3.162.23,1.3.467,2.651.674,3.982.026.171.059.194.35.26s.587.135.873.2a21.814,21.814,0,0,0,4.913.756c.106,0,.212,0,.317,0,.629-.018.837-.156.97-.64a11.315,11.315,0,0,1,.5-1.348c.1-.244.208-.5.3-.747a1.777,1.777,0,0,1,1.755-1.324,2.886,2.886,0,0,1,.573.063,3.163,3.163,0,0,0,.328.044c.075.008.152.015.229.026a4.806,4.806,0,0,0,.664.049,3.094,3.094,0,0,0,2.56-1.26c.379-.47.633-.755.956-.755.4,0,.6.422.885,1.006a2.385,2.385,0,0,0,1.4,1.327,4.206,4.206,0,0,1,1.841,1.3c.4.462.845.911,1.272,1.345a16.775,16.775,0,0,1,2.458,2.92,1.457,1.457,0,0,0,.58.521,1.63,1.63,0,0,1,.869,2.371,68.576,68.576,0,0,0-2.522,6.966,1.2,1.2,0,0,1-1.159.842c-.082.012-.16.024-.231.04-4.213.941-8.478,1.877-12.676,2.786a27.127,27.127,0,0,0-6.893,2.545c-.633.331-1.29.63-1.926.92s-1.294.589-1.919.917A2.073,2.073,0,0,1,845.434,771.753Z" transform="translate(-762.104 -533.428)" fill="#155169" stroke="#d3dee3" stroke-miterlimit="10" stroke-width="2"></path><path id="Path_191" data-name="Path 191" d="M1115.8,694.682c-.186,0-.7-.927-.893-1.092a48.759,48.759,0,0,0-4.026-3.507c-1.617-1.149-3.29-2.338-4.823-3.668-.673-.584-2.386-.4-2.076-1.168.32-.8,2.193-2.362,2.492-3.156.2-.541.414-1.1.626-1.649a8.19,8.19,0,0,1,2.6-3.155c.263-.226.534-.46.789-.7.908-.841,1.856-1.666,2.772-2.465l.282-.246a13.063,13.063,0,0,0,4.159-6.75,24.126,24.126,0,0,1,1.579-4.111,2.976,2.976,0,0,1,2.616-1.916,2.957,2.957,0,0,0,2.2-1.147,50.454,50.454,0,0,1,8.2-8.138c2.978-2.4,6.2-4.616,9.312-6.756l.555-.381a224.135,224.135,0,0,1,34.16-18.883c.2-.092.4-.2.6-.3a7.974,7.974,0,0,1,.988-.468,1.422,1.422,0,0,0,.217-.148,1.149,1.149,0,0,1,.646-.308.526.526,0,0,1,.478.324,1.655,1.655,0,0,1,.128.62.739.739,0,0,0,.1.006c.063,0,.129,0,.193-.009l.05,0c.215-.015.424-.023.622-.023a4.867,4.867,0,0,1,3.924,1.656,1.053,1.053,0,0,0,.856.3,6.333,6.333,0,0,0,.633-.044l.2-.02c.122-.011.243-.017.36-.017a3.059,3.059,0,0,1,2.172.886c2.358,2.208,4.87,4.557,7.386,6.875.519.478,1.063.951,1.588,1.408.675.588,1.373,1.195,2.033,1.825.568.542.911.869.869,1.258s-.386.585-1.075,1l-.052.031c-.864.527-1.731,1.086-2.57,1.627-.576.372-1.171.756-1.762,1.127-.291.182-.35.34-.276.732.376,2,.705,3.966,1.083,6.308a.9.9,0,0,0,.715.833,4.021,4.021,0,0,0,1.4.217c.347,0,.7-.028,1.05-.054.286-.022.581-.045.876-.053l.237-.008c.155-.006.316-.012.476-.012a3.961,3.961,0,0,1,.6.04,1.349,1.349,0,0,1,1.042.722,1.24,1.24,0,0,1-.061,1.165c-.883,1.557-2.1,3.148-4.428,3.148-.073,0-.148,0-.223,0-.3-.012-.618-.018-1-.018-.282,0-.568,0-.845.006s-.568.006-.852.006h-.307v0l-.387,0c-.23,0-.467.006-.7.006-.326,0-.6,0-.85-.017-.119-.005-.236-.008-.35-.008a4.943,4.943,0,0,0-3.984,1.753,7.249,7.249,0,0,1-4.235,2.047l-.328.076-.238.056c-.48.114-.977.231-1.474.327a2.96,2.96,0,0,0-2.225,1.554A3.506,3.506,0,0,1,1177.35,664c-.877.224-1.769.449-2.632.666-1.409.356-2.866.723-4.3,1.094a3.744,3.744,0,0,1-.94.121,4.736,4.736,0,0,1-1.711-.351,18.125,18.125,0,0,1-3.449-1.675,2.6,2.6,0,0,1-1.2-1.376c-.149-.5-.391-.655-1.037-.655h-.126c-.954.024-1.978.047-3,.047-1.428,0-2.677-.045-3.819-.139-.215-.018-.412-.026-.6-.026a2.692,2.692,0,0,0-2.786,1.666,2.715,2.715,0,0,1-2.407,1.341l-.229.034a20.86,20.86,0,0,1-2.249.216c-.429.02-.574.163-.618.614-.058.6-.125,1.2-.189,1.79a28.336,28.336,0,0,0-.1,8.267,3.47,3.47,0,0,1-1.023,2.755l-.072.094c-3.019,4.022-7.461,5.654-11.758,7.233-.287.106-.581.192-.865.275-.175.052-.357.1-.532.161a3.14,3.14,0,0,1-.9.2c-.805,0-.854-.844-.879-1.3a3.745,3.745,0,0,0-2.6-3.43,1.5,1.5,0,0,0-.574-.169c-.137,0-.3.048-.571.394-1.94,2.5-3.935,5.026-5.864,7.467l-1.635,2.07c-.234.3-.475.6-.708.884-.345.428-.7.871-1.042,1.314C1116.794,693.761,1116.119,694.682,1115.8,694.682Z" transform="translate(-880.214 -509.595)" fill="#07799d" stroke="#d3dee3" stroke-miterlimit="10" stroke-width="2"></path><path id="Path_192" data-name="Path 192" d="M922.478,776.141a11.547,11.547,0,0,1-3.958-.721,19.271,19.271,0,0,1-3.586-1.782,60.019,60.019,0,0,0-12.453-5.522c-.431-.144-.856-.314-1.268-.479-.383-.153-.779-.312-1.172-.445a1.432,1.432,0,0,1-.912-.7,1.576,1.576,0,0,1,.012-1.158c.408-1.323.8-2.676,1.177-3.986.359-1.244.73-2.53,1.116-3.789a.877.877,0,0,0-.276-1.119,10.6,10.6,0,0,1-2.041-2.674c-.118-.194-.239-.395-.361-.588a5.943,5.943,0,0,0-3.622-2.941,3.323,3.323,0,0,1-2.4-2.331c-.156-.466-.25-.556-.275-.573-.036,0-.169.048-.551.417-.113.109-.228.223-.338.333a4.779,4.779,0,0,1-3.046,1.765c-.1.007-.213.012-.323.012a8.815,8.815,0,0,1-1.136-.1c-.274-.035-.533-.068-.8-.083-.037,0-.074,0-.109,0a.723.723,0,0,0-.8.612,21.149,21.149,0,0,1-.745,2.018,2.19,2.19,0,0,1-2.055,1.423,2.58,2.58,0,0,1-.265-.014c-.261-.027-.528-.052-.786-.076a14.811,14.811,0,0,1-3.465-.6,1.953,1.953,0,0,1-1.487-1.641c-.218-1.618-.415-3.265-.606-4.859-.077-.639-.156-1.3-.236-1.95a3.487,3.487,0,0,1,1.074-2.989,5.476,5.476,0,0,0,1.489-2.544,8.921,8.921,0,0,0,.2-3c-.091-1.239-.076-2.5-.061-3.72.006-.474.012-.965.012-1.446,0-2.576-.12-4.971-.356-7.324a.783.783,0,0,0-.116-.418.528.528,0,0,0-.354-.079h-.117c-2.678,0-4.644-1.6-6.429-3.246a3.318,3.318,0,0,1-1.063-2.4,9.122,9.122,0,0,1,.347-2.578c.239-.958.542-1.913.836-2.836.121-.379.245-.77.363-1.155a1.77,1.77,0,0,1,.809-1.085c.483-.274.969-.562,1.441-.841.843-.5,1.714-1.016,2.6-1.471a5.161,5.161,0,0,1,2.318-.663,4.019,4.019,0,0,1,3.155,1.857,10.835,10.835,0,0,1,1.037,1.463c.194.345.3.363.321.363.13,0,.412-.278.505-.369a18.542,18.542,0,0,0,5.219-8.714,9.066,9.066,0,0,1,.826-2.038,1.686,1.686,0,0,0-.213-2.009c-.164-.223-.334-.45-.5-.669-.448-.6-.911-1.217-1.333-1.853a3.783,3.783,0,0,1-.685-2.778c.1-.652.43-.955,1.021-.955.067,0,.137,0,.215.011,2.473.238,4.7.45,6.93.634,1.477.122,3.227.255,5.014.325a3.307,3.307,0,0,1,2.948,1.521c.287.447.614.886.931,1.31.291.39.592.795.868,1.211a13.655,13.655,0,0,0,4.519,4.5c.866.505,1.36.88,1.493,1.407s-.12,1.077-.7,2.025c-.707,1.153-1.363,2.363-2,3.533-.377.7-.767,1.415-1.164,2.117-.273.481-.234.668.2.951.524.345,1.021.736,1.5,1.115l.224.177a4.081,4.081,0,0,1,1.628,3.443,3.983,3.983,0,0,1-1.934,3.177c-.665.415-.577.893-.365,1.7a3.29,3.29,0,0,0,.77,1.232c.072.086.147.174.22.263a2.612,2.612,0,0,1,.5,2.544q-.246.829-.49,1.659c-.395,1.337-.8,2.72-1.215,4.078a1.868,1.868,0,0,0,.645,2.326,2.387,2.387,0,0,1,.233.2c.05.047.1.09.143.128,1.076.863,1.617,1.3,1.718,1.893s-.292,1.211-1.007,2.318c-.139.214-.3.423-.452.625a3.44,3.44,0,0,0-.744,1.306c-.063.338.2.574.639.931a3.679,3.679,0,0,1,.632.607,3.32,3.32,0,0,1,.512,2.813,3.529,3.529,0,0,0,.74,2.823,2.6,2.6,0,0,0,1.967,1.045,4.559,4.559,0,0,1,2.839.906,6.161,6.161,0,0,1,1.7,2.333c.84,1.785,1.554,3.646,2.244,5.446.286.747.583,1.52.883,2.276,1.026,2.576,2.516,4.052,4.688,4.644a4.545,4.545,0,0,0,1.225.139c.24,0,.487-.01.727-.02.218-.009.442-.018.666-.02h.021a1.709,1.709,0,0,1,1.635,1.112,8.858,8.858,0,0,1,1.041,3.987,14.284,14.284,0,0,1-.537,4.024,11.749,11.749,0,0,0-.313,1.761l-.006.053c-.1.956-.149,1.436-.469,1.757s-.87.374-1.76.443c-1.054.08-2.126.127-3.163.171-.454.02-.923.04-1.385.063C922.981,776.133,922.727,776.141,922.478,776.141Z" transform="translate(-789.799 -535.303)" fill="#07799d" stroke="#d3dee3" stroke-miterlimit="10" stroke-width="2"></path><path id="Path_193" data-name="Path 193" d="M1263.1,652.532a6.924,6.924,0,0,1-2.224-.387,52.626,52.626,0,0,1-10.415-5.257,3.472,3.472,0,0,1-.853-.787,2.448,2.448,0,0,0-1.919-1.126,3.708,3.708,0,0,0-1.252.264,4.157,4.157,0,0,1-1.409.3,1.71,1.71,0,0,1-1.336-.566,3.278,3.278,0,0,1-.673-1.6c-.212-1.112-.35-2.253-.485-3.356-.069-.565-.14-1.15-.22-1.721a1.509,1.509,0,0,1,.765-1.6c.659-.419,1.324-.856,1.967-1.279.844-.554,1.717-1.127,2.59-1.671.344-.214.425-.34.433-.408s-.028-.2-.329-.495c-2.45-2.42-5.035-4.783-7.534-7.068-1.16-1.06-2.359-2.156-3.53-3.244a3.948,3.948,0,0,0-2.723-1.331,3.608,3.608,0,0,0-.957.137,1.319,1.319,0,0,1-.341.046,2.052,2.052,0,0,1-1.535-.977,2.154,2.154,0,0,0-1.791-1.05,2.642,2.642,0,0,0-.647.087,1.665,1.665,0,0,1-.418.047c-.133,0-.264-.011-.39-.021l-.156-.012a.831.831,0,0,1-.739-.622.6.6,0,0,1,.077-.623,1,1,0,0,1,.356-.252l.023-.011c1.155-.574,2.315-1.19,3.437-1.786a55.4,55.4,0,0,1,9.105-4.15,27.536,27.536,0,0,1,4.59-.9c.934-.128,1.9-.261,2.832-.453,3.657-.752,7.257-1.327,10.7-1.708,1.057-.117,2.13-.217,3.169-.314l1.442-.136.02,0h.02a18.125,18.125,0,0,1,3.97.715c.729.188,1.483.383,2.229.517s1.5.3,2.232.464c.477.106.971.216,1.457.315a20.227,20.227,0,0,1,7.6,3.3c1.648,1.141,3.43,2.185,5,3.106a4.9,4.9,0,0,1,2.4,3.186c.123.495.293.993.459,1.474.091.263.184.536.27.808a.853.853,0,0,1-.034.758.548.548,0,0,1-.468.214,1.366,1.366,0,0,1-.389-.067,15.557,15.557,0,0,1-2.443-1.051l-.349-.175-.079-.04a.853.853,0,0,0-.3-.114.125.125,0,0,0-.091.042.2.2,0,0,0-.037.041.832.832,0,0,0,.1.168,1.68,1.68,0,0,1,.119.193,12.289,12.289,0,0,0,2.671,3.528,11.563,11.563,0,0,1,1.177,1.349,1.339,1.339,0,0,1-.176,2.041,1.042,1.042,0,0,0-.236,1.507,2.817,2.817,0,0,1-.3,3.2,9.7,9.7,0,0,1-5.632,4.189,5.792,5.792,0,0,0-4.131,3.758,6.237,6.237,0,0,1-3.288,3.695,9.434,9.434,0,0,0-2.371,1.823q-.177.169-.355.336a26.447,26.447,0,0,1-5.686,3.984A6.253,6.253,0,0,1,1263.1,652.532Z" transform="translate(-927.743 -503.386)" fill="#0f627f" stroke="#d3dee3" stroke-miterlimit="10" stroke-width="2"></path><path id="Path_194" data-name="Path 194" d="M952.784,766.4a.708.708,0,0,1-.616-.586c-.5-1.781-1.66-2.129-3.493-2.129-.126,0-.261,0-.412,0h-.1a4.306,4.306,0,0,1-2.527-.824,8.256,8.256,0,0,1-1.85-1.875,14.6,14.6,0,0,1-2.02-4.456c-.148-.459-.3-.934-.466-1.392a27.632,27.632,0,0,0-2.72-5.89,3.843,3.843,0,0,0-2.209-1.75,1.268,1.268,0,0,0-.343-.056.824.824,0,0,0-.239.036,3.251,3.251,0,0,1-.955.145,2.946,2.946,0,0,1-2.334-1.112,2.6,2.6,0,0,1-.436-2.3,3.633,3.633,0,0,0-.641-3.563,1.518,1.518,0,0,1-.1-1.736c.115-.266.239-.531.358-.787a10.3,10.3,0,0,0,.757-1.942,1.5,1.5,0,0,0-.825-2.008,3.19,3.19,0,0,1-1.635-4.075,23.188,23.188,0,0,1,.951-2.543c.089-.213.182-.433.271-.65.8-1.954.615-3.435-.6-4.8a2.29,2.29,0,0,1-.8-1.8c.08-.549.51-1.036,1.394-1.58a2.639,2.639,0,0,0,1.133-2.246,4.669,4.669,0,0,0-.441-2.555,3.543,3.543,0,0,0-1.894-1.69c-.718-.288-1.119-.615-1.261-1.029a1.948,1.948,0,0,1,.372-1.563c.632-1.082,1.228-2.213,1.8-3.306.488-.927.993-1.885,1.52-2.814.276-.487.237-.66-.231-1.028a22.218,22.218,0,0,1-5.981-6.308c-.486-.859-.767-1.414-.568-1.881s.8-.651,1.692-.881a3.53,3.53,0,0,1,.879-.094c.119,0,.237,0,.352.006s.224.005.333.005h.029a4.622,4.622,0,0,1,.507-.029,4.824,4.824,0,0,1,3.7,1.963c.718.822,1.477,1.636,2.212,2.423a43.737,43.737,0,0,1,5.144,6.262,6.257,6.257,0,0,0,2.38,2.144,1.566,1.566,0,0,1,.8,2.145c-.165.443-.345.887-.518,1.317a21.351,21.351,0,0,0-1.1,3.194,2.954,2.954,0,0,0,.164,2.141,2.67,2.67,0,0,0,1.749,1.169,6.3,6.3,0,0,1,2.42,1.2,7.555,7.555,0,0,1,1.726,2.069,70.565,70.565,0,0,1,3.323,6.38c.286.618.487.618.553.618a.969.969,0,0,0,.519-.249,2.358,2.358,0,0,1,.59-.31,3.513,3.513,0,0,1,1.28-.278,1.738,1.738,0,0,1,1.053.318c.574.422.379,1.2.236,1.769-.016.068-.033.133-.048.2a27.478,27.478,0,0,0-.534,4.459c-.018.282-.037.574-.058.861a6.934,6.934,0,0,1-2.057,4.5c-.4.406-.417.716-.06,1.228s.68,1.05.993,1.572c.163.272.332.553.5.825a4.536,4.536,0,0,1,.4,4.255c-.033.084-.061.173-.092.266a3.441,3.441,0,0,1-.185.486c-.6,1.2-.728,2.117.487,2.939a1.843,1.843,0,0,1,.514,2.39c-.039.1-.083.2-.126.291a1.646,1.646,0,0,0-.226,1.009c.177.782.383,1.4,1.282,1.655.766.217,1.21.409,1.36.8.164.426-.1.906-.5,1.538-.038.06-.075.121-.113.182a8.147,8.147,0,0,1-.49.732,4.067,4.067,0,0,0-.917,1.9,2.683,2.683,0,0,0,.572,1.973,1.5,1.5,0,0,1-.192,1.967,9.723,9.723,0,0,1-1.568,1.38,10,10,0,0,0-1.365,1.168A.627.627,0,0,1,952.784,766.4Z" transform="translate(-811.282 -536.166)" fill="#0f627f" stroke="#d3dee3" stroke-miterlimit="10" stroke-width="2"></path><path id="Path_195" data-name="Path 195" d="M1078.184,769.857a2.783,2.783,0,0,1-1.871-1.136c-.974-1.062-1.992-2.117-2.976-3.137-.781-.809-1.588-1.646-2.37-2.482-.058-.063-.109-.126-.157-.187a1.8,1.8,0,0,0-.147-.173c-.263-.258-.639-.6-.874-.6-.182,0-.411.225-.74.731l-.135.207a14.375,14.375,0,0,1-2.547,3.194,3.346,3.346,0,0,1-2.082,1c-.873,0-1.577-.627-2.153-1.917a13.562,13.562,0,0,1-.588-1.573,6.84,6.84,0,0,0-1.7-2.833,2.692,2.692,0,0,1-.9-1.444,2.729,2.729,0,0,1,.482-1.619c.1-.179.089-.216-.078-.369a10.937,10.937,0,0,1-2.579-3.979,11.359,11.359,0,0,0-3.172-4.174c-.822-.722-1.651-1.439-2.529-2.2l-1.282-1.109-.422-.366.535-.16c.241-.072.452-.139.655-.2.386-.123.72-.229,1.062-.3a8.736,8.736,0,0,0,5.254-2.823,3.268,3.268,0,0,1,2.582-1.3,4.2,4.2,0,0,1,1.207.192,1.248,1.248,0,0,0,.367.056,1.932,1.932,0,0,0,1.28-.622,8.537,8.537,0,0,1,4.973-2.334,3.66,3.66,0,0,0,1.308-.535c1.846-1.069,3.809-2.212,5.736-3.4a9.063,9.063,0,0,0,2.581-2.817c.386-.57.768-1.158,1.137-1.728a35.228,35.228,0,0,1,3.555-4.852l.031-.033c.752-.815,1.13-1.223,1.641-1.223.447,0,.85.321,1.582.938,1.668,1.4,3.347,2.846,4.972,4.242,1.317,1.131,2.679,2.3,4.025,3.443a1.413,1.413,0,0,1,.572.972,1.644,1.644,0,0,1-.336,1.019c-.535.815-1.063,1.658-1.573,2.473-1.046,1.669-2.126,3.395-3.336,4.989a18.038,18.038,0,0,0-3.292,8.5c-.171,1.08-.424,2.1-.736,3.323a9.638,9.638,0,0,1-2.735,4.908,6.073,6.073,0,0,0-1.656,2.485,9.073,9.073,0,0,0-.471,2.974,17.75,17.75,0,0,1-.391,3.817l0,.015a.669.669,0,0,1-.015.085c-.352,1.38-.923,2.079-1.7,2.079Z" transform="translate(-859.123 -547.866)" fill="#0f627f" stroke="#d3dee3" stroke-miterlimit="10" stroke-width="2"></path><path id="Path_196" data-name="Path 196" d="M1024.2,797.536a1.138,1.138,0,0,1-.936-.655,6.665,6.665,0,0,0-2.749-2.276,10.259,10.259,0,0,1-1.445-.887,3.253,3.253,0,0,1-.929-.959,1.7,1.7,0,0,1-.071-1.5c.169-.454.043-.844-.461-1.436a15.367,15.367,0,0,0-1.636-1.576c-.34-.3-.691-.6-1.025-.925a3.575,3.575,0,0,1-.069-5.854c.242-.246.5-.474.755-.693.182-.158.369-.321.544-.487a1.838,1.838,0,0,0,.74-1.344,1.716,1.716,0,0,0-.865-1.155c-.823-.578-1.684-1.168-2.631-1.8a3.329,3.329,0,0,0-1.858-.653,2.713,2.713,0,0,0-1.208.3,2.315,2.315,0,0,1-1.026.239,3.722,3.722,0,0,1-1.646-.468,1.611,1.611,0,0,1-.963-1.3,1.582,1.582,0,0,1,.749-1.4c.594-.416,1.231-.779,1.847-1.13.219-.124.444-.253.663-.38.535-.314,1.081-.628,1.609-.931.38-.219.774-.445,1.159-.669a11.3,11.3,0,0,0,4.194-4.116,2.126,2.126,0,0,1,1.9-1.2,2.584,2.584,0,0,1,.428.037,3.609,3.609,0,0,0,.588.051,3.173,3.173,0,0,0,2.645-1.588,3.878,3.878,0,0,1,3.248-1.736,5.237,5.237,0,0,1,1.548.252,3.29,3.29,0,0,0,.977.152,3.711,3.711,0,0,0,1.695-.44,4.39,4.39,0,0,1,1.983-.506,4.45,4.45,0,0,1,2.844,1.134,26.549,26.549,0,0,1,3.322,3.171,14.188,14.188,0,0,1,2.451,3.947l.036.088a5.056,5.056,0,0,0,1.148,1.957,1.664,1.664,0,0,1,.181,2.372.955.955,0,0,0-.222.653c.041.157.234.325.607.526a4.975,4.975,0,0,1,1.894,1.808,6.525,6.525,0,0,1,.853,2.428,12.41,12.41,0,0,1-.212,4.638,3.446,3.446,0,0,1-1.83,2.351,3.3,3.3,0,0,0-1.767,2.7,3.245,3.245,0,0,1-.47,1.6c-.316.369-.815.4-1.434.4-.2,0-.419,0-.676-.009h-.052l-.037-.01a1.672,1.672,0,0,0-.434-.059,2.558,2.558,0,0,0-1.857,1.11,1.446,1.446,0,0,1-2.078.417.625.625,0,0,0-.327-.113,1.366,1.366,0,0,0-.686.359l-.075.056a32.529,32.529,0,0,0-2.629,2.25c-.628.578-1.279,1.176-1.953,1.726a7.459,7.459,0,0,1-3.049,1.228c-.342.082-.695.167-1.027.264A1,1,0,0,1,1024.2,797.536Z" transform="translate(-842.638 -562.129)" fill="#07799d" stroke="#d3dee3" stroke-miterlimit="10" stroke-width="2"></path><path id="Path_197" data-name="Path 197" d="M1044.934,822.374a4.675,4.675,0,0,1-2.257-.719c-.712-.4-1.423-.819-2.112-1.227-1.109-.658-2.257-1.337-3.424-1.926a1.936,1.936,0,0,1-.969-2.114,4.927,4.927,0,0,0,0-.6,3.738,3.738,0,0,1,.457-2.58,4.656,4.656,0,0,1,2-1.67c.879-.431,1.276-.648,1.4-.921a3.487,3.487,0,0,0-.206-1.7,2.975,2.975,0,0,1-.055-.353c-.034-.3-.064-.488-.243-.638a.566.566,0,0,1-.194-.636,1.288,1.288,0,0,1,.246-.394l.049-.061a18.7,18.7,0,0,1,4.1-3.812,3.3,3.3,0,0,1,1.948-.5l.188,0h.085a1.968,1.968,0,0,0,1.634-.712,3.086,3.086,0,0,1,2.641-1.3,7.428,7.428,0,0,1,1.318.138,2.262,2.262,0,0,0,.391.042c.212,0,.4,0,.417-.541a2.753,2.753,0,0,1,.1-.55,3.24,3.24,0,0,0,.069-.328,5.922,5.922,0,0,1,.637-2.128,3.63,3.63,0,0,1,1.672-1.56c1.282-.612,1.488-1.781,1.519-2.953a2.086,2.086,0,0,1,.134-.786.661.661,0,0,1,.625-.418,1.572,1.572,0,0,1,.76.258,1.966,1.966,0,0,0,1,.286,3.517,3.517,0,0,0,1.966-.85,16.983,16.983,0,0,0,2.374-2.212c.328-.347.666-.706,1.013-1.047a1.381,1.381,0,0,1,.936-.506,1.308,1.308,0,0,1,.937.583c.342.407.712.807,1.07,1.194.465.5.946,1.023,1.38,1.573a21.756,21.756,0,0,0,2.15,2.239,18.46,18.46,0,0,1,2.624,2.865c.8,1.168,1.256,1.863,1.191,2.57-.067.731-.688,1.336-1.7,2.244-1.344,1.2-1.6,2.059-1.579,2.974a2.035,2.035,0,0,1-.462,1.342,3.068,3.068,0,0,1-1.062.829,13.632,13.632,0,0,0-4.276,3.811c-.5.589-1.015,1.2-1.563,1.763a1.369,1.369,0,0,0-.2,1.9c.251.4.477.825.7,1.234.1.183.2.372.3.555a.944.944,0,0,1,.11.883.7.7,0,0,1-.658.3,2.091,2.091,0,0,1-.229-.014c-.065-.007-.131-.012-.2-.017-.093-.007-.189-.013-.288-.028a5.373,5.373,0,0,0-.721-.055c-1.219,0-1.731.572-1.888,2.109-.087.855-.185,1.562-.309,2.224a1.081,1.081,0,0,1-.852,1.033,1.17,1.17,0,0,1-.2.018,1.235,1.235,0,0,1-.986-.59c-.061-.079-.113-.159-.164-.237-.039-.06-.076-.116-.115-.169-.967-1.332-1.622-1.8-2.5-1.8a5.787,5.787,0,0,0-1.91.442.473.473,0,0,0-.359.38,3.049,3.049,0,0,1-.649,1.332,1.524,1.524,0,0,1-1.17.475,3.9,3.9,0,0,1-1.133-.206,8.383,8.383,0,0,1-1.565-.663.918.918,0,0,0-.42-.14c-.09,0-.215.027-.381.236a2,2,0,0,1-.2.213c-.032.03-.061.059-.089.086A3.928,3.928,0,0,1,1044.934,822.374Z" transform="translate(-854 -572.512)" fill="#155169" stroke="#d3dee3" stroke-miterlimit="10" stroke-width="2"></path><path id="Path_198" data-name="Path 198" d="M872.84,553.856a2.487,2.487,0,0,1-1.214-.53,16.318,16.318,0,0,0-7.3-2.155c-4-.4-8.066-.749-12-1.088l-2.834-.245c-1.869-.163-3.77-.32-5.609-.472-2.146-.178-4.364-.361-6.546-.555-2.042-.18-4.118-.376-6.126-.565-1.908-.179-3.879-.365-5.82-.538-1.656-.147-3.342-.285-4.973-.419s-3.307-.271-4.96-.418c-1.929-.171-3.889-.36-5.784-.542-1.261-.121-2.565-.247-3.847-.366-1.235-.115-2.492-.228-3.706-.337-1.786-.16-3.633-.326-5.448-.5-2.557-.247-5.153-.522-7.664-.787l-1-.106c-2.374-.25-4.921-.526-7.788-.842-.768-.085-1.548-.169-2.3-.251-2.207-.239-4.49-.487-6.732-.768-3.487-.436-6.651-.872-9.673-1.33-1.053-.159-2.111-.377-3.135-.586-.683-.14-1.39-.285-2.087-.411a1.144,1.144,0,0,1-1-1.494c.314-2.185.619-4.411.912-6.562l.15-1.094c.244-1.787.491-3.6.73-5.362q.267-1.965.534-3.93.286-2.1.574-4.194c.3-2.172.6-4.417.9-6.627.233-1.715.467-3.46.695-5.147.242-1.8.491-3.658.74-5.487.24-1.768.486-3.565.725-5.3.248-1.809.5-3.679.754-5.518.245-1.806.492-3.643.73-5.419.229-1.709.467-3.478.7-5.216.145-1.068.3-2.153.443-3.2.283-2.025.576-4.118.832-6.18.164-1.326.3-2.681.437-3.991s.272-2.662.438-3.99c.055-.442.107-.893.158-1.329a37.928,37.928,0,0,1,1.366-7.367,8.944,8.944,0,0,1,1.548-2.9,3.27,3.27,0,0,1,2.631-1.317,4.01,4.01,0,0,1,.769.077,2.441,2.441,0,0,1,1.445.834,2.908,2.908,0,0,1,.621,1.463,4.7,4.7,0,0,0,1.267,2.687,7.459,7.459,0,0,0,2.536,1.628c1.171.5,2.125.943,3,1.393a.755.755,0,0,0,.323.106c.034,0,.124,0,.176-.34.157-1.029.335-2.2.439-3.333a4.283,4.283,0,0,0-.914-2.962c-.441-.612-.879-1.24-1.3-1.847l-.206-.3a2.124,2.124,0,0,1,.071-2.677c.431-.59.857-1.2,1.268-1.793a28.821,28.821,0,0,1,4.773-5.724.718.718,0,0,0,.115-.172c.027-.049.055-.1.088-.148l.091-.138H967.069l-.272.462a3.862,3.862,0,0,1-2.373,1.614,39.308,39.308,0,0,1-9.357,1.787,5.36,5.36,0,0,0-3.247,1.325,26.678,26.678,0,0,0-7.156,10.407,3.714,3.714,0,0,1-2.544,2.516A2.735,2.735,0,0,0,940.4,456.4a4.245,4.245,0,0,0-.6,2.039q-.039.468-.077.936a57.634,57.634,0,0,1-.687,5.916c-.49,2.623-2.143,4.672-3.6,6.48a1.714,1.714,0,0,1-.783.524,7.377,7.377,0,0,0-3.843,3.371c-2.065,3.266-4.419,6.393-6.694,9.417-1.431,1.9-2.912,3.87-4.3,5.849a2.462,2.462,0,0,1-2.118,1.2,4.176,4.176,0,0,1-.825-.091,19.317,19.317,0,0,1-4.127-1.236,2.646,2.646,0,0,0-1.068-.245,2.841,2.841,0,0,0-1.888.851,10.456,10.456,0,0,0-2.018,2.471c-.26.439-.563.844-1.014.844a1.535,1.535,0,0,1-.991-.58,1.716,1.716,0,0,1-.178-.223c-.027-.038-.053-.074-.078-.106a2.118,2.118,0,0,0-1.6-.932,2.333,2.333,0,0,0-1.477.656,7.214,7.214,0,0,0-1.668,2.331c-.381.747-.725,1.531-1.058,2.29a31.479,31.479,0,0,1-1.566,3.227,8.453,8.453,0,0,1-1.6,2.093,4.708,4.708,0,0,1-2.431,1.183,1.479,1.479,0,0,0-1.272,1.3,16.832,16.832,0,0,1-.639,2.168,2.29,2.29,0,0,1-1.459,1.584,2.825,2.825,0,0,0-2.12,3,12.128,12.128,0,0,1-2.984,7.094,98.226,98.226,0,0,0-8.507,12.313,11.947,11.947,0,0,1-2.945,3.467c-1.346,1.079-1.633,2.228-1.026,4.1a5.474,5.474,0,0,0,2.511,3.166,1.981,1.981,0,0,1,.988,1.109,2.32,2.32,0,0,1-.1,1.454c-.355,1.034-.687,2.1-1.008,3.125-.245.784-.5,1.595-.76,2.388a12.309,12.309,0,0,1-.753,1.726C873.659,553.384,873.377,553.856,872.84,553.856Z" transform="translate(-745.46 -437.173)" fill="#155169" stroke="#d3dee3" stroke-miterlimit="10" stroke-width="2"></path><path id="Path_199" data-name="Path 199" d="M946.524,734.024c-.4,0-.74-.285-1.006-.846a2.95,2.95,0,0,1,.156-3.218c.29-.412.564-.85.831-1.273.24-.382.488-.778.75-1.159a.7.7,0,0,0,.156-.315.578.578,0,0,0-.263-.109c-.187-.047-.366-.109-.539-.169-.1-.037-.2-.071-.3-.1a1.525,1.525,0,0,1-1.193-1.674,1.739,1.739,0,0,0,0-.194,1.482,1.482,0,0,1,.025-.441,3.623,3.623,0,0,0-1.1-3.827,2.187,2.187,0,0,1-.337-2.319c.175-.589.331-1.063.456-1.444a3.755,3.755,0,0,0,.353-1.722,7.469,7.469,0,0,0-1.01-2.039q-.234-.4-.528-.906a4.046,4.046,0,0,1-.807-2.214,3.607,3.607,0,0,1,1.187-1.991,5.785,5.785,0,0,0,1.307-3.465c.168-1.554.258-3.147.347-4.687.033-.582.068-1.184.106-1.777v-.017c0-.048.009-.141.006-.21h-.07a3.91,3.91,0,0,1-1.039-.189,3.367,3.367,0,0,0-.861-.165,1,1,0,0,0-.717.284,1.441,1.441,0,0,1-.93.464c-.536,0-.817-.5-1.021-.983-.184-.438-.378-.882-.566-1.311-.474-1.087-.965-2.209-1.349-3.354a6.673,6.673,0,0,0-1.592-2.693,6.308,6.308,0,0,0-2.738-1.546,3.765,3.765,0,0,1-2.511-1.721,4.4,4.4,0,0,1-.062-3.091,31.914,31.914,0,0,1,1.088-3.319c.11-.3.225-.61.335-.915.021-.059.046-.115.07-.169.115-.262.124-.3-.038-.417a23.6,23.6,0,0,1-4.521-4.742c-.63-.8-1.28-1.624-1.967-2.388-1.447-1.609-3.14-3.471-4.919-5.2a4.411,4.411,0,0,0-3.24-1.154h-.12c-3.247,0-6.529-.251-9.7-.493-3.125-.239-6.357-.485-9.542-.491a1.183,1.183,0,0,1-.9-.309,1.287,1.287,0,0,1-.259-.971c.1-1.82.2-3.67.29-5.459.136-2.623.277-5.336.439-8,.256-4.222.57-8.5.844-12.188.066-.883.125-1.783.183-2.653a68.334,68.334,0,0,1,1.565-12.284c.042-.166.076-.312.107-.44.171-.719.264-1.115.931-1.115.145,0,.322.017.545.038l.393.036c1.954.161,3.947.277,5.874.388,1.465.085,2.98.172,4.47.28l.847.059c3,.206,6.1.417,8.968,1.881a20.579,20.579,0,0,1,6.324,5.53c3.85,4.643,7.954,9.2,11.924,13.6,2.181,2.421,4.437,4.924,6.625,7.413.449.511.9,1.033,1.333,1.539a48.657,48.657,0,0,0,5.613,5.83,6.7,6.7,0,0,0,3.829,1.433c3.123.317,6.312.458,9.4.6,2.242.1,4.561.2,6.84.372a5.414,5.414,0,0,1,2.6.888,7.634,7.634,0,0,1,1.936,1.906c.671.92,1.286,1.9,1.88,2.844l.208.33c1.013,1.607.926,2.366-.419,3.692-.907.894-1.857,1.773-2.774,2.624-.6.555-1.22,1.13-1.821,1.7a4.32,4.32,0,0,0,.756,6.787,4.022,4.022,0,0,0,1.15.491,10.767,10.767,0,0,1,5.059,3.035l.4.382A35.779,35.779,0,0,0,987,687.029a1.931,1.931,0,0,1,.674.792,1.075,1.075,0,0,1,.039.63l-.018.085-.061.062-2.416,2.481-.014.014-.015.013c-.206.162-.242.244-.245.279-.014.141.291.5.537.8.125.148.244.3.36.448.165.21.32.408.49.6a3.116,3.116,0,0,1,.463,3.919,3.125,3.125,0,0,0-.471,2.112,3.914,3.914,0,0,0,1.036,1.942c.773.871,1.482,1.841,2.107,2.7.382.523.577.877.515,1.249s-.363.65-.816,1.039a4.706,4.706,0,0,1-3.142,1.263h0a5.211,5.211,0,0,1-1.653-.286,2.815,2.815,0,0,0-.9-.158,2.527,2.527,0,0,0-1.687.682c-.587.505-1.2,1-1.795,1.469-.278.221-.565.451-.845.678a1.67,1.67,0,0,1-1.088.44,1.722,1.722,0,0,1-.523-.085,1.963,1.963,0,0,0-.579-.093,1.762,1.762,0,0,0-1.363.691c-.1.115-.2.231-.3.342a7.8,7.8,0,0,0-.829,1.051,11,11,0,0,1-4.058,3.732c-.929.548-1.88,1.1-2.8,1.624-1.747,1.006-3.553,2.045-5.28,3.126a27.307,27.307,0,0,1-3.275,1.666,25.491,25.491,0,0,0-3.317,1.7c-.237.153-.48.307-.714.456a31.037,31.037,0,0,0-3.387,2.374,6.482,6.482,0,0,0-2.341,3.873,5.692,5.692,0,0,1-1.895,2.868A1.3,1.3,0,0,1,946.524,734.024Z" transform="translate(-800.599 -508.174)" fill="#155169" stroke="#d3dee3" stroke-miterlimit="10" stroke-width="2"></path><path id="Path_200" data-name="Path 200" d="M1040.416,727.179c-.22,0-.738.479-.918.353-.432-.3-.292-.826-.512-1.332-.091-.21-.178-.407-.276-.586a6.668,6.668,0,0,0-1.377-1.618,8.943,8.943,0,0,1-1.543-1.837,2.79,2.79,0,0,1-.355-2.661,2.131,2.131,0,0,0,.078-.238,2.691,2.691,0,0,1,.1-.313c.743-1.746.477-2.982-.861-4.011a2.027,2.027,0,0,1-.9-1.965l.012-.08.05-.063.952-1.2.038-.035c.05-.049.325-.372.49-.566l.187-.219a.566.566,0,0,1,.206-.18c.261-.151.862-.512.885-.739.02-.206-.439-.611-.59-.745-.782-.69-1.584-1.384-2.361-2.055-.907-.784-1.845-1.6-2.756-2.407a8.26,8.26,0,0,0-3.1-1.514c-.231-.075-.47-.153-.7-.234a4.823,4.823,0,0,1-2.365-2.266,4.575,4.575,0,0,1-.631-3.207,2.793,2.793,0,0,1,1.032-1.358l.073-.062a47.982,47.982,0,0,0,4.233-4.3c.543-.6,1.1-1.219,1.668-1.818a.673.673,0,0,0,.115-.983c-.242-.417-.483-.846-.716-1.26-.628-1.117-1.278-2.272-2.067-3.452l-.326-.488.587.011c.434.009.894.012,1.405.012.638,0,1.277-.006,1.894-.012s1.228-.012,1.836-.012c1.428,0,2.52.035,3.541.115.97.075,2.116.151,3.26.151.648,0,1.243-.023,1.819-.072a2.877,2.877,0,0,0,1.781-.861,2.351,2.351,0,0,1,1.736-.692h.045c1.484.02,3.05.029,5.08.029.966,0,1.949,0,2.9,0s1.935,0,2.9,0c2.434,0,5.316.011,8.236.093.15,0,.306.006.464.006.8,0,1.615-.053,2.406-.1l.491-.031a2.389,2.389,0,0,0,1.5-.771,11.7,11.7,0,0,0,1.949-2.3,1.331,1.331,0,0,1,1.137-.736,1.543,1.543,0,0,1,.645.156c.336.155.684.305,1.019.451.272.118.555.241.831.366a2.959,2.959,0,0,0,1.186.313c.622,0,1.09-.359,1.568-1.2.582-1.023.874-1.537,1.524-1.537a4.6,4.6,0,0,1,1.478.442l.071.028a1.482,1.482,0,0,1,1.067,1.674,14.231,14.231,0,0,1-.9,3.663c-.191.555-.388,1.128-.544,1.7a26.838,26.838,0,0,1-3.061,6.554,9.315,9.315,0,0,1-3.124,2.922,7.511,7.511,0,0,0-3.641,4.638,4.036,4.036,0,0,1-1.788,2.37l-.025.018a10.174,10.174,0,0,1-1.151.735,13.372,13.372,0,0,0-4.257,3.507,21.959,21.959,0,0,0-2.861,4.762,10.2,10.2,0,0,1-2.51,3.564,6.66,6.66,0,0,0-2.532,4.562c-.161,1.83-1.542,2.676-2.761,3.422-.2.125-.415.255-.614.385a.984.984,0,0,1-.545.159h0c-.344,0-.845.137-1.131,0-.062-.03.057-.352,0-.377-.378-.17-1.321.333-1.658.333-.719,0-.79-.213-1.468.6l-.187.223a13.319,13.319,0,0,0-.99,1.272c-1.1,1.68-1.488,1.622-3.968,2.335a10.584,10.584,0,0,0-1.292.595C1041.212,727.323,1040.755,727.179,1040.416,727.179Z" transform="translate(-849.347 -529.896)" fill="#0f627f" stroke="#d3dee3" stroke-miterlimit="10" stroke-width="2"></path></g></g><line id="Line_47" data-name="Line 47" x2="98.779" y2="10.43" transform="translate(209.033 1518.749)" fill="none" stroke="#d3dee3" stroke-width="3"></line><circle id="Ellipse_56" data-name="Ellipse 56" cx="42.143" cy="42.143" r="42.143" transform="translate(307.812 1488.263)" fill="none" stroke="#d3dee3" stroke-width="3"></circle><path id="Path_201" data-name="Path 201" d="M1192.671,791.19l-3.875-1.805a.664.664,0,0,0-.455-.039l-2.848.771a.666.666,0,0,1-.542-.088l-3.32-2.2a.665.665,0,0,0-.531-.091l-3.665.924a.648.648,0,0,0-.1.036l-4.712,2.071-9.174,3.533a.667.667,0,0,1-.557-.036l-2.406-1.307a.666.666,0,0,1-.182-1.025l3.1-3.521a.666.666,0,0,0,.166-.461l-.153-4.782a.664.664,0,0,1,.33-.6l2.672-1.557a.667.667,0,0,0,.292-.353l1.125-3.168a.666.666,0,0,1,.741-.433l5.425.947a.663.663,0,0,0,.152.009l7.276-.408a.668.668,0,0,0,.372-.14l8.92-6.967a.662.662,0,0,0,.229-.339L1194,759.637a.654.654,0,0,1,.2-.311l5.637-5.027c.016-.015.034-.029.052-.042l7.841-5.679a.666.666,0,0,1,1.054.49l.611,8.123a.673.673,0,0,1-.045.3l-2.189,5.532a.669.669,0,0,0-.046.216l-.25,5.872a.689.689,0,0,1-.021.142l-2.693,10.212a.687.687,0,0,0-.022.15l-.172,5.716a.665.665,0,0,1-.583.641l-1.93.238a.665.665,0,0,0-.546.438l-1.212,3.415a.665.665,0,0,1-.545.438l-6.1.752A.668.668,0,0,1,1192.671,791.19Z" transform="translate(-836.935 757.222)" fill="#07799d" stroke="#dbdbd5" stroke-miterlimit="10" stroke-width="1.721"></path><path id="Path_202" data-name="Path 202" d="M1179.047,777.733l-5.151-.9a.6.6,0,0,1-.465-.8l.067-.191a.6.6,0,0,0,.03-.276l-.41-3.326a.6.6,0,0,1,.284-.589l4.52-2.766a.6.6,0,0,0,.281-.414l.767-4.5a.6.6,0,0,1,.36-.455l2.812-1.192a.6.6,0,0,0,.261-.213l6.525-9.456a.6.6,0,0,1,.423-.256l12.436-1.533a.686.686,0,0,0,.078-.015l7.231-1.887.037-.011,2.479.011c.655-.217-.513.848-1.072,1.253l-5.921,3.856a.484.484,0,0,0-.047.038l-5.783,5.154a.606.606,0,0,0-.178.283l-3.058,10.545a.6.6,0,0,1-.209.308l-8.719,6.81a.607.607,0,0,1-.337.127l-7.1.4A.607.607,0,0,1,1179.047,777.733Z" transform="translate(-841.951 757.032)" fill="#155169" stroke="#dbdbd5" stroke-miterlimit="10" stroke-width="1.721"></path></g></svg>