<svg xmlns="http://www.w3.org/2000/svg" xmlns:xlink="http://www.w3.org/1999/xlink" id="Component_20_1" data-name="Component 20 &#x2013; 1" width="42" height="42" viewBox="0 0 42 42"><defs><clipPath id="clip-path"><rect id="Rectangle_74" data-name="Rectangle 74" width="16.498" height="16.501" fill="#fff"></rect></clipPath></defs><circle id="Ellipse_62" data-name="Ellipse 62" cx="21" cy="21" r="21" fill="#125a75"></circle><g id="Group_44" data-name="Group 44" transform="translate(11.988 12.75)"><g id="Group_43" data-name="Group 43" clip-path="url(#clip-path)"><path id="Path_134" data-name="Path 134" d="M16.271,15.362l-.913.912a.77.77,0,0,1-1.092,0L11.053,13.06a.773.773,0,0,1-.225-.547v-.525a6.7,6.7,0,1,1,1.16-1.16h.525a.773.773,0,0,1,.547.225l3.213,3.213a.778.778,0,0,1,0,1.1M10.828,6.7A4.125,4.125,0,1,0,6.7,10.828,4.123,4.123,0,0,0,10.828,6.7" transform="translate(0 0)" fill="#fff"></path></g></g></svg>