<svg xmlns="http://www.w3.org/2000/svg" id="Component_21_1" data-name="Component 21 &#x2013; 1" width="42" height="42" viewBox="0 0 42 42"><g id="Group_240" data-name="Group 240"><circle id="Ellipse_61" data-name="Ellipse 61" cx="21" cy="21" r="21" fill="#125a75"></circle></g><g id="Group_392" data-name="Group 392" transform="translate(-563.445 -284.691)"><g id="Group_392-2" data-name="Group 392" transform="translate(574.169 294.691)"><path id="Path_266" data-name="Path 266" d="M574.169,302.231v12.286a1.422,1.422,0,0,0,1.417,1.418h17.956a1.422,1.422,0,0,0,1.418-1.418V302.231m-6.328-4.376v-3.164m-6.78,1.808h5.424m-6.78,1.808v-3.616m9.492,1.808H593.6a1.315,1.315,0,0,1,1.356,1.356v2.712H574.169v-2.712a1.315,1.315,0,0,1,1.356-1.356h3.616" transform="translate(-574.169 -294.691)" fill="none" stroke="#fff" stroke-miterlimit="10" stroke-width="1.5"></path></g><line id="Line_95" data-name="Line 95" x2="13.56" transform="translate(577.785 308.481)" fill="none" stroke="#fff" stroke-miterlimit="10" stroke-width="1.5"></line><line id="Line_96" data-name="Line 96" x2="13.56" transform="translate(577.785 305.39)" fill="none" stroke="#fff" stroke-miterlimit="10" stroke-width="1.5"></line><line id="Line_97" data-name="Line 97" x2="13.56" transform="translate(577.785 311.572)" fill="none" stroke="#fff" stroke-miterlimit="10" stroke-width="1.5"></line></g></svg>