<svg xmlns="http://www.w3.org/2000/svg" xmlns:xlink="http://www.w3.org/1999/xlink" id="Component_21" data-name="Component 21" width="48" height="48" viewBox="0 0 48 48"><defs><clipPath id="clip-path"><rect id="Rectangle_33" data-name="Rectangle 33" width="14" height="8.496" fill="#fff"></rect></clipPath></defs><g id="Component_20_1" data-name="Component 20 &#x2013; 1"><circle id="Ellipse_2" data-name="Ellipse 2" cx="24" cy="24" r="24" fill="#6fc486"></circle></g><g id="Group_8" data-name="Group 8" transform="translate(17 21)"><g id="Group_7" data-name="Group 7" transform="translate(0 0)" clip-path="url(#clip-path)"><path id="Path_7" data-name="Path 7" d="M.226,2.04a.768.768,0,0,1,0-1.087L.952.224a.772.772,0,0,1,1.087,0L7,5.161,11.962.223a.77.77,0,0,1,1.086,0l.726.728a.768.768,0,0,1,0,1.087L7.545,8.27a.769.769,0,0,1-1.089,0Z" transform="translate(0 -0.001)" fill="#fff"></path></g></g></svg>