<svg xmlns="http://www.w3.org/2000/svg" id="Component_16_1" data-name="Component 16 &#x2013; 1" width="50" height="50" viewBox="0 0 50 50"><g id="Group_195" data-name="Group 195" transform="translate(494 2212) rotate(180)"><circle id="Ellipse_44" data-name="Ellipse 44" cx="25" cy="25" r="25" transform="translate(444 2162)" fill="#07799d"></circle><circle id="Ellipse_131" data-name="Ellipse 131" cx="25" cy="25" r="25" transform="translate(444 2162)" fill="#125a75" opacity="0"></circle><path id="Path_154" data-name="Path 154" d="M.224,2.04a.77.77,0,0,1,0-1.088L.951.224a.772.772,0,0,1,1.088,0L7,5.162,11.962.223a.772.772,0,0,1,1.088,0l.726.728a.77.77,0,0,1,0,1.088L7.545,8.271a.768.768,0,0,1-1.088,0Z" transform="translate(466.503 2194) rotate(-90)" fill="#fff"></path></g></svg>