<svg xmlns="http://www.w3.org/2000/svg" id="Layer_1" viewBox="0 0 60 60"><defs><style>.cls-1{fill:#fff;}.cls-2{fill:#1b4053;}</style></defs><circle class="cls-2" cx="30" cy="30" r="30"></circle><g id="Groupe_379"><g id="Trac&#xE9;_265"><path class="cls-1" d="M16.63,41.78c-1.46,0-2.64-1.2-2.63-2.67V18.22l4.07,1.64,3.29-1.26,3.98,1.27,3.34-1.28,3.34,1.28,3.98-1.27,3.29,1.26,4.06-1.56v19.55h-1.5V20.48l-2.56,.99-3.34-1.28-3.98,1.27-3.29-1.26-3.29,1.26-3.98-1.27-3.34,1.28-2.56-1.03v18.68c0,.64,.51,1.16,1.14,1.16h.1s26.52,0,26.52,0c.33,.02,.63-.09,.86-.29,.23-.21,.36-.49,.38-.8v-15.35h1.5v15.43c-.04,.71-.35,1.36-.88,1.84-.52,.47-1.19,.72-1.9,.67H16.63Zm11.47-10.18h-10.78v-6.59h10.78v6.59Zm-9.28-1.5h7.78v-3.59h-7.78v3.59Z"></path></g><g id="Ligne_91"><rect class="cls-1" x="17.4" y="35.19" width="10.61" height="1.5"></rect></g><g id="Ligne_92"><rect class="cls-1" x="30.66" y="35.19" width="9.28" height="1.5"></rect></g><g id="Ligne_93"><rect class="cls-1" x="30.66" y="25" width="9.28" height="1.5"></rect></g><g id="Ligne_94"><rect class="cls-1" x="30.66" y="30.09" width="9.28" height="1.5"></rect></g></g></svg>