<svg xmlns="http://www.w3.org/2000/svg" xmlns:xlink="http://www.w3.org/1999/xlink" id="Layer_1" viewBox="0 0 42 42"><defs><style>.cls-1{fill:none;}.cls-2{clip-path:url(#clippath);}.cls-3{fill:#fff;}.cls-4{fill:#07799d;}</style><clipPath id="clippath"><rect class="cls-1" x="10.87" y="12.77" width="20.27" height="16.46"></rect></clipPath></defs><circle class="cls-4" cx="21" cy="21" r="21"></circle><g class="cls-2"><g id="Groupe_142"><path id="Trac&#xE9;_143" class="cls-3" d="M29.06,17.41c.04,6.48-5.17,11.77-11.65,11.82-.05,0-.11,0-.16,0-2.26,0-4.48-.64-6.38-1.86,.33,.04,.67,.05,1,.05,1.87,0,3.69-.62,5.16-1.77-1.78-.03-3.34-1.19-3.88-2.88,.26,.04,.52,.06,.78,.06,.37,0,.74-.05,1.09-.14-1.94-.39-3.33-2.1-3.33-4.08v-.05c.58,.32,1.22,.5,1.88,.53-1.83-1.22-2.39-3.65-1.29-5.56,2.11,2.6,5.22,4.18,8.56,4.35-.07-.31-.1-.63-.1-.95,0-2.3,1.86-4.16,4.16-4.15,1.15,0,2.24,.48,3.03,1.31,.93-.18,1.82-.52,2.64-1-.31,.96-.96,1.77-1.83,2.29,.82-.09,1.63-.31,2.39-.64-.57,.83-1.27,1.55-2.08,2.14,.01,.18,.01,.36,.01,.54"></path></g></g></svg>