<svg xmlns="http://www.w3.org/2000/svg" id="Layer_1" viewBox="0 0 60 60"><defs><style>.cls-1{fill:#fff;}.cls-2{fill:#07799d;}</style></defs><circle class="cls-2" cx="30" cy="30" r="30"></circle><g><path class="cls-1" d="M20.68,31.55c3.68,0,6.68-2.99,6.68-6.66s-3-6.66-6.68-6.66-6.68,2.99-6.68,6.66,3,6.66,6.68,6.66Zm0-11.82c2.86,0,5.18,2.32,5.18,5.16s-2.32,5.16-5.18,5.16-5.18-2.32-5.18-5.16,2.32-5.16,5.18-5.16Z"></path><rect class="cls-1" x="40.89" y="18.56" width="5.01" height="1.5" transform="translate(-4.09 18.61) rotate(-23.14)"></rect><path class="cls-1" d="M36.45,15.32l.35,.85-7.32,5.62-.21-.48-1.38,.59,1.98,4.6,1.38-.59-.12-.27h9.58l.35,.85,1.39-.57-4.61-11.17-1.39,.57Zm-5.96,8.82l-.4-.93,7.31-5.6,2.7,6.53h-9.6Z"></path><rect class="cls-1" x="40.03" y="15.93" width="2.79" height="1.5" transform="translate(.31 34.1) rotate(-44.89)"></rect><rect class="cls-1" x="19.27" y="41.31" width="1.5" height="3.94"></rect><rect class="cls-1" x="42.41" y="22.17" width="2.63" height="1.5"></rect><path class="cls-1" d="M37.93,26.39l-6.34,5.62h-5.65c-6.96,0-11.29,4.57-11.29,11.92v1.31h1.5v-1.31c0-6.62,3.57-10.42,9.79-10.42h6.22l5.47-4.85c.65,1.23,1.61,3.76-.3,5.49l-3.74,3.11h-5.25l1.5,7.47,1.47-.29-1.14-5.67h3.97l4.18-3.48c2.86-2.59,1.32-6.51,.11-8.22l-.48-.68Z"></path></g></svg>