<svg xmlns="http://www.w3.org/2000/svg" xmlns:xlink="http://www.w3.org/1999/xlink" id="icon-about-Defendre" viewBox="0 0 90 90"><defs><style>.cls-1,.cls-2{fill:none;}.cls-3{clip-path:url(#clippath);}.cls-4{fill:#07799d;}.cls-2{stroke:#fff;stroke-linecap:round;stroke-linejoin:round;stroke-width:2px;}</style><clipPath id="clippath"><rect class="cls-1" x="21" y="23.05" width="48" height="43.89"></rect></clipPath></defs><circle class="cls-4" cx="45" cy="45" r="45"></circle><g class="cls-3"><g id="Groupe_490"><path id="Trac&#xE9;_299" class="cls-2" d="M58.97,33.93c-5.14,4.08-9.27-1.92-12.56,1.07l-2.22,2.2c-3.04,3.02-9.05,.71-6.67-1.68l8.82-8.83c4.25-4.16,10.75-2.45,12.83-1.28,1.67,.97,3.18,2.19,4.48,3.62,2.12,2.2,3.57,4.95,4.19,7.94,.6,3.09-.4,6.27-2.67,8.44l-2.79,2.8"></path><path id="Trac&#xE9;_300" class="cls-2" d="M24.94,44.02c-2.11-2.01-3.18-4.87-2.9-7.77,.33-2.79,1.55-5.39,3.47-7.44,1.88-2.13,4.35-3.65,7.1-4.38,2.74-.72,5.66-.2,7.98,1.42"></path><path id="Trac&#xE9;_301" class="cls-2" d="M56.63,42.74l5.84,6.38c2.32,2.45-1.12,7.1-4.1,4.01l-5.33-5.52"></path><path id="Trac&#xE9;_302" class="cls-2" d="M48.41,51.34l5.86,6.05c2.34,2.42,7.09-1.16,4.11-4.25l-5.72-5.94"></path><path id="Trac&#xE9;_303" class="cls-2" d="M51.89,61.57c1.67-.47,2.64-2.19,2.17-3.86-.12-.42-.32-.81-.6-1.15"></path><path id="Trac&#xE9;_304" class="cls-2" d="M31.18,53.09c-1.17,.97-2.9,.84-3.91-.3l-.31-.31c-1.06-1.07-1.06-2.79,0-3.87l4.04-4.07c1.06-1.06,2.78-1.06,3.84,0,0,0,0,0,0,0l.31,.31c1.09,1.12,1.15,2.89,.14,4.08"></path><path id="Trac&#xE9;_305" class="cls-2" d="M35.81,57.15c-1.2,1.04-2.98,1-4.14-.08l-.31-.31c-1.06-1.07-1.06-2.79,0-3.87l6.45-6.48c1.06-1.06,2.78-1.06,3.84,0,0,0,0,0,0,0l.31,.31c1.51,1.52,.78,3.41-1.16,5.44"></path><path id="Trac&#xE9;_306" class="cls-2" d="M40.44,61.12c-1.17,1.05-2.95,1.04-4.1-.03l-.31-.31c-1.06-1.07-1.06-2.79,0-3.87l4.42-4.44c1.06-1.06,2.78-1.06,3.84,0,0,0,0,0,0,0l.31,.31c1.43,1.44,.85,3.27-.95,5.15"></path><path id="Trac&#xE9;_307" class="cls-2" d="M47.13,58.24l.31,.31c1.05,1.07,1.05,2.79,0,3.87l-2.71,2.73c-1.06,1.06-2.78,1.06-3.84,0l-.31-.31c-1.06-1.07-1.06-2.79,0-3.87l2.71-2.73c1.06-1.06,2.78-1.06,3.84,0,0,0,0,0,0,0Z"></path></g></g></svg>