<svg xmlns="http://www.w3.org/2000/svg" xmlns:xlink="http://www.w3.org/1999/xlink" id="icon-about-Defendre" viewBox="0 0 90 90"><defs><style>.cls-1,.cls-2{fill:none;}.cls-3{clip-path:url(#clippath);}.cls-4{fill:#07799d;}.cls-2{stroke:#fff;stroke-miterlimit:10;stroke-width:2px;}</style><clipPath id="clippath"><rect class="cls-1" x="22" y="21" width="46" height="48"></rect></clipPath></defs><circle class="cls-4" cx="45" cy="45" r="45"></circle><g><line id="Ligne_127" class="cls-2" x1="35.41" y1="29" x2="45.41" y2="27"></line><g id="Groupe_476"><g class="cls-3"><g id="Groupe_475"><line id="Ligne_128" class="cls-2" x1="24" y1="45" x2="32" y2="32"></line><path id="Trac&#xE9;_289" class="cls-2" d="M41,49.49v-1.48H23v1.48c1.64,4.97,7,7.67,11.97,6.03,2.85-.94,5.09-3.18,6.03-6.03Z"></path><circle id="Ellipse_122" class="cls-2" cx="32" cy="29" r="3"></circle><line id="Ligne_129" class="cls-2" x1="55" y1="29" x2="45" y2="27"></line><line id="Ligne_130" class="cls-2" x1="58" y1="32" x2="50" y2="45"></line><line id="Ligne_131" class="cls-2" x1="32" y1="32" x2="40" y2="45"></line><line id="Ligne_132" class="cls-2" x1="66" y1="45" x2="58" y2="32"></line><path id="Trac&#xE9;_290" class="cls-2" d="M58,56c4.09,0,7.72-2.62,9-6.51v-1.47h-18v1.47c1.28,3.89,4.91,6.51,9,6.51Z"></path><circle id="Ellipse_123" class="cls-2" cx="58" cy="29" r="3"></circle><line id="Ligne_133" class="cls-2" x1="45" y1="21" x2="45" y2="61"></line><path id="Trac&#xE9;_291" class="cls-2" d="M45,61c-6,0-13,3-13,6v1h26v-1c0-3-7-6-13-6Z"></path></g></g></g></g></svg>