<svg xmlns="http://www.w3.org/2000/svg" xmlns:xlink="http://www.w3.org/1999/xlink" id="icon-about-Defendre" viewBox="0 0 90 90"><defs><style>.cls-1,.cls-2{fill:none;}.cls-3{clip-path:url(#clippath);}.cls-4{fill:#07799d;}.cls-2{stroke:#fff;stroke-miterlimit:10;stroke-width:2px;}</style><clipPath id="clippath"><rect class="cls-1" x="21" y="22.44" width="48" height="45.13"></rect></clipPath></defs><circle class="cls-4" cx="45" cy="45" r="45"></circle><g id="Groupe_481"><g class="cls-3"><g id="Groupe_480"><path id="Trac&#xE9;_294" class="cls-2" d="M65,29.54h-3l-17-6-12.4,7.51c-1.53,1-2.5,2.66-2.6,4.49v4l12-7h2c4.02,0,7,3.41,7,8l-4.03,.69c-3.22,.64-5.36,3.7-4.87,6.95,2.84-1.08,5.86-1.64,8.9-1.64h3c5.11,0,8.03-2.9,9-5h2"></path><line id="Ligne_141" class="cls-2" x1="21" y1="66.54" x2="69" y2="66.54"></line><line id="Ligne_142" class="cls-2" x1="32" y1="50.54" x2="42" y2="54.54"></line><line id="Ligne_143" class="cls-2" x1="39" y1="47.54" x2="35" y2="57.54"></line><path id="Trac&#xE9;_295" class="cls-2" d="M42.11,41.39l-1.45-2.51-17.32,10,10,17.32,17.32-10-3.1-5.37"></path><line id="Ligne_144" class="cls-2" x1="68" y1="26.54" x2="68" y2="44.54"></line></g></g></g></svg>