<svg xmlns="http://www.w3.org/2000/svg" id="icon-about-Defendre" viewBox="0 0 90 90"><defs><style>.cls-1{fill:#07799d;}.cls-2{fill:none;stroke:#fff;stroke-linecap:round;stroke-linejoin:round;stroke-width:2px;}</style></defs><circle class="cls-1" cx="45" cy="45" r="45"></circle><g id="Groupe_473"><path id="Trac&#xE9;_162" class="cls-2" d="M32.89,42.91h0c-2.26,0-4.09-1.83-4.09-4.08h0v-7.17c0-2.31,1.87-4.18,4.18-4.18h0c1.2,0,2.17,.97,2.17,2.18v10.99c0,1.25-1.02,2.27-2.27,2.27Z"></path><g id="Groupe_197"><path id="Trac&#xE9;_163" class="cls-2" d="M47.52,54.2c-.14-.29-1.36-9.36,6.5-10.86,0,0-8.65-.79-8.72-5.07,.12-1.12,1.02-1.99,2.14-2.07,1.28-.14,6.69-.54,10.4-.81,1.72-.13,3.21,1.16,3.34,2.88,.01,.15,.01,.31,0,.46l-.96,12.84c-.04,.55-.25,1.07-.6,1.49l-4.83,5.92h0v6.79h-19.01v-6.79l-4.76-5.83c-.39-.48-.6-1.08-.6-1.69v-9.36"></path><path id="Rectangle_179" class="cls-2" d="M40.26,26.16h0c1.47,0,2.66,1.18,2.66,2.65,0,0,0,0,0,0v12.21c0,1.53-1.24,2.77-2.77,2.77h0c-2.75,0-4.98-2.23-4.98-4.98v-7.56c0-2.82,2.28-5.1,5.1-5.1h0Z"></path><path id="Trac&#xE9;_164" class="cls-2" d="M42.92,38.82v-9.9c0-2.59,2.1-4.69,4.69-4.69h0c1.69,0,3.06,1.37,3.06,3.06v7.28"></path><path id="Trac&#xE9;_165" class="cls-2" d="M50.68,35.92v-6.1c0-2.59,2.1-4.69,4.69-4.69h0c1.69,0,3.06,1.37,3.06,3.06h0v7.2"></path></g></g></svg>