<svg xmlns="http://www.w3.org/2000/svg" xmlns:xlink="http://www.w3.org/1999/xlink" id="icon-about-Defendre" x="0px" y="0px" viewBox="0 0 90 90" style="enable-background:new 0 0 90 90;" xml:space="preserve"><style type="text/css">	.st0{fill:#07799D;}	.st1{fill:none;stroke:#FFFFFF;stroke-width:2;stroke-linecap:round;stroke-linejoin:round;}</style><circle class="st0" cx="45" cy="45" r="45"></circle><g id="Groupe_474">	<path id="Trac&#xE9;_166" class="st1" d="M20.9,45.6l12.7,9.6l8.7,3.8c1.2,0.5,2.7,0.3,3.7-0.7l1.6-1.5l0.3,0.1  c1.2,0.5,2.6,0.2,3.5-0.7l2-1.9l0,0c1.5,0.5,3.1-0.1,4-1.4l1-1.7l10.7-7.6"></path>	<line id="Ligne_44" class="st1" x1="47.6" y1="56.8" x2="40.7" y2="51.2"></line>	<line id="Ligne_45" class="st1" x1="53.4" y1="54.3" x2="46.4" y2="48.8"></line>	<line id="Ligne_46" class="st1" x1="58.4" y1="51.2" x2="51.7" y2="46.1"></line>	<path id="Trac&#xE9;_167" class="st1" d="M62.2,48.6l-10.2-8.9c-1.1-1-2.7-1-3.9-0.2c-2.3,1.6-6.3,3.7-10.3,1.9l8.6-9.3  c1-1,2.4-1.5,3.7-1.2l12.1,2.5"></path>	<path id="Trac&#xE9;_168" class="st1" d="M43.8,34.7l-2.2-1.2c-1.5-0.8-3.1-1.2-4.7-1.3l-6.8-0.4"></path></g></svg>