<svg xmlns="http://www.w3.org/2000/svg" xmlns:xlink="http://www.w3.org/1999/xlink" id="icon-about-Defendre" x="0px" y="0px" viewBox="0 0 90 90" style="enable-background:new 0 0 90 90;" xml:space="preserve"><style type="text/css">	.st0{fill:#07799D;}	.st1{fill:none;stroke:#FFFFFF;stroke-width:2;stroke-linecap:round;stroke-linejoin:round;}</style><circle class="st0" cx="45" cy="45" r="45"></circle><g id="Groupe_472">	<path id="Trac&#xE9;_157" class="st1" d="M27.3,49.1c7-5.3,18.6-2.9,24.1,7.6"></path>	<path id="Trac&#xE9;_158" class="st1" d="M45.9,50c0,0,8.9-7.8,6.6-16.2"></path>	<path id="Trac&#xE9;_159" class="st1" d="M27.3,65.9c16.5,5.6,33.6,0,33.6,0c4.1-15.8,0.5-34.4-0.1-38.3c-0.1-0.5-0.3-0.9-0.7-1.1  c-1.5-1.1-6.9-4-14.7-4.8c-0.6-0.1-1.2,0.3-1.4,0.9l-2.2,6.8l1.8,3"></path>	<path id="Trac&#xE9;_160" class="st1" d="M30.1,58.3c3.4,1.8,7.3,2.6,11.1,2.1"></path>	<path id="Trac&#xE9;_161" class="st1" d="M48.1,30.2L42.3,33c-0.5,0.3-0.7,1-0.4,1.5c0.1,0.2,0.3,0.3,0.5,0.4c0,0,4.2-0.1,5.6,0.1  c0.9,0.1,4.5,0.5,4.5,0.5"></path></g></svg>