<svg xmlns="http://www.w3.org/2000/svg" xmlns:xlink="http://www.w3.org/1999/xlink" id="icon-about-Defendre" x="0px" y="0px" viewBox="0 0 90 90" style="enable-background:new 0 0 90 90;" xml:space="preserve"><style type="text/css">	.st0{fill:#07799D;}	.st1{clip-path:url(#SVGID_00000141446551383978746760000001025451932545507762_);}	.st2{fill:none;stroke:#FFFFFF;stroke-width:2;stroke-miterlimit:10;}</style><circle class="st0" cx="45" cy="45" r="45"></circle><g id="Groupe_481">	<g>		<defs>			<rect id="SVGID_1_" x="21" y="22.4" width="48" height="45.1"></rect>		</defs>		<clipPath id="SVGID_00000032631165571536900370000017643056689090917055_">			<use xlink:href="#SVGID_1_" style="overflow:visible;"></use>		</clipPath>		<g style="clip-path:url(#SVGID_00000032631165571536900370000017643056689090917055_);">			<g id="Groupe_480">				<path id="Trac&#xE9;_294" class="st2" d="M65,29.5h-3l-17-6l-12.4,7.5c-1.5,1-2.5,2.7-2.6,4.5v4l12-7h2c4,0,7,3.4,7,8l-4,0.7     c-3.2,0.6-5.4,3.7-4.9,7c2.8-1.1,5.9-1.6,8.9-1.6h3c5.1,0,8-2.9,9-5h2"></path>				<line id="Ligne_141" class="st2" x1="21" y1="66.5" x2="69" y2="66.5"></line>				<line id="Ligne_142" class="st2" x1="32" y1="50.5" x2="42" y2="54.5"></line>				<line id="Ligne_143" class="st2" x1="39" y1="47.5" x2="35" y2="57.5"></line>				<path id="Trac&#xE9;_295" class="st2" d="M42.1,41.4l-1.5-2.5l-17.3,10l10,17.3l17.3-10l-3.1-5.4"></path>				<line id="Ligne_144" class="st2" x1="68" y1="26.5" x2="68" y2="44.5"></line>			</g>		</g>	</g></g></svg>