<svg xmlns="http://www.w3.org/2000/svg" xmlns:xlink="http://www.w3.org/1999/xlink" id="icon-about-Defendre" x="0px" y="0px" viewBox="0 0 90 90" style="enable-background:new 0 0 90 90;" xml:space="preserve"><style type="text/css">	.st0{fill:#07799D;}	.st1{fill:none;stroke:#FFFFFF;stroke-width:2;stroke-linecap:round;stroke-linejoin:round;}</style><circle class="st0" cx="45" cy="45" r="45"></circle><g id="Groupe_473">	<path id="Trac&#xE9;_162" class="st1" d="M32.9,42.9L32.9,42.9c-2.3,0-4.1-1.8-4.1-4.1l0,0v-7.2c0-2.3,1.9-4.2,4.2-4.2l0,0  c1.2,0,2.2,1,2.2,2.2v11C35.2,41.9,34.1,42.9,32.9,42.9L32.9,42.9z"></path>	<g id="Groupe_197">		<path id="Trac&#xE9;_163" class="st1" d="M47.5,54.2c-0.1-0.3-1.4-9.4,6.5-10.9c0,0-8.6-0.8-8.7-5.1c0.1-1.1,1-2,2.1-2.1   c1.3-0.1,6.7-0.5,10.4-0.8c1.7-0.1,3.2,1.2,3.3,2.9c0,0.2,0,0.3,0,0.5l-1,12.8c0,0.5-0.2,1.1-0.6,1.5L54.8,59l0,0v6.8h-19V59   L31,53.2c-0.4-0.5-0.6-1.1-0.6-1.7v-9.4"></path>		<path id="Rectangle_179" class="st1" d="M40.3,26.2L40.3,26.2c1.5,0,2.7,1.2,2.7,2.6l0,0V41c0,1.5-1.2,2.8-2.8,2.8l0,0   c-2.8,0-5-2.2-5-5v-7.6C35.2,28.4,37.4,26.2,40.3,26.2L40.3,26.2L40.3,26.2z"></path>		<path id="Trac&#xE9;_164" class="st1" d="M42.9,38.8v-9.9c0-2.6,2.1-4.7,4.7-4.7l0,0c1.7,0,3.1,1.4,3.1,3.1v7.3"></path>		<path id="Trac&#xE9;_165" class="st1" d="M50.7,35.9v-6.1c0-2.6,2.1-4.7,4.7-4.7l0,0c1.7,0,3.1,1.4,3.1,3.1l0,0v7.2"></path>	</g></g></svg>