<svg xmlns="http://www.w3.org/2000/svg" xmlns:xlink="http://www.w3.org/1999/xlink" id="icon-about-Defendre" x="0px" y="0px" viewBox="0 0 90 90" style="enable-background:new 0 0 90 90;" xml:space="preserve"><style type="text/css">	.st0{fill:#07799D;}	.st1{clip-path:url(#SVGID_00000146468068894353634270000002873939073419405737_);}	.st2{fill:none;stroke:#FFFFFF;stroke-width:2;stroke-miterlimit:10;}</style><circle class="st0" cx="45" cy="45" r="45"></circle><g>	<defs>		<rect id="SVGID_1_" x="23.3" y="21.4" width="43.4" height="47.2"></rect>	</defs>	<clipPath id="SVGID_00000052803041238371280470000010040439851688445056_">		<use xlink:href="#SVGID_1_" style="overflow:visible;"></use>	</clipPath>	<g style="clip-path:url(#SVGID_00000052803041238371280470000010040439851688445056_);">		<g id="Groupe_482">			<circle id="Ellipse_124" class="st2" cx="31.3" cy="38.4" r="7"></circle>			<path id="Trac&#xE9;_296" class="st2" d="M44.3,68.4c0,0-3-12-3-12h9c6,0,6-7,6-7h-23c-5,0-7,1.9-7,5c0.1,2.1,0.5,4.1,1,6.1    c1,3.9,2,7.9,2,7.9"></path>			<path id="Trac&#xE9;_297" class="st2" d="M44.3,66.4h3c6,0,6-6,6-6h-11"></path>			<line id="Ligne_145" class="st2" x1="52.1" y1="56.1" x2="50.3" y2="60.4"></line>			<line id="Ligne_146" class="st2" x1="54.8" y1="49.4" x2="65.8" y2="22.4"></line>			<path id="Trac&#xE9;_298" class="st2" d="M60.3,36.4c-2.2-1.2-4.5-1.8-7-2c-1.7,0-1.3,2-3,2s-4.7-2.3-8-2.3V22.4c3.3,0,7.3,2,9,2    s1.3-2,3-2c3.7,0.2,7.4,0.8,11,2"></path>		</g>	</g></g></svg>