<svg xmlns="http://www.w3.org/2000/svg" xmlns:xlink="http://www.w3.org/1999/xlink" x="0px" y="0px" viewBox="0 0 145 145" style="enable-background:new 0 0 145 145;" xml:space="preserve"><style type="text/css">	.st0{fill:#1B4053;}	.st1{fill:#07799D;}	.st2{fill:#FFFFFF;}	.st3{fill:#FFFFFF;stroke:#FFFFFF;}	.st4{fill:#125A75;}	.st5{display:none;}	.st6{display:inline;fill:#1B4053;}	.st7{display:inline;fill:#07799D;}	.st8{display:inline;}	.st9{display:inline;fill:#FFFFFF;stroke:#FFFFFF;}	.st10{display:inline;fill:#125A75;}	.st11{font-family:'AktivGroteskEx-XBold';}	.st12{font-size:56.0763px;}	.st13{letter-spacing:-3.4;}</style><g id="Layer_1">	<circle id="Ellipse_24_00000026864859710924561180000005876213442013749143_" class="st1" cx="72.7" cy="72.7" r="72.5"></circle>	<g>		<g>			<path class="st2" d="M52.6,75V59.5l-4.7,3L45,58.1l8.7-5.6h5.5V75H52.6z"></path>		</g>		<g>			<path class="st2" d="M89,82.6v-4.9h2.5c2.2,0,3.3-0.7,3.3-2.1c0-0.7-0.3-1.2-0.9-1.5c-0.6-0.4-1.4-0.6-2.5-0.6    c-1,0-1.8,0.2-2.4,0.6s-1,1.1-1.2,2l-6.2-0.6c0.2-1.5,0.7-2.8,1.5-3.8c0.8-1.1,2-1.9,3.4-2.4c1.4-0.6,3.1-0.8,5.1-0.8    c1.9,0,3.5,0.2,5,0.7c1.4,0.5,2.5,1.2,3.3,2.2s1.2,2.1,1.2,3.4c0,1.1-0.3,2.1-1,3c-0.6,0.9-1.6,1.5-2.8,2    c1.5,0.5,2.6,1.2,3.4,2.1s1.1,2.1,1.1,3.4c0,2.2-0.9,4-2.7,5.2c-1.8,1.2-4.3,1.9-7.6,1.9c-3.3,0-5.8-0.7-7.6-2.2    s-2.6-3.5-2.7-6.1h6.3c0.2,2.2,1.5,3.3,3.9,3.3c1.2,0,2.2-0.2,2.8-0.6c0.6-0.4,1-1,1-1.8c0-1.5-1.3-2.3-3.9-2.3H89z"></path>		</g>		<polygon class="st2" points="58.3,91.1 81.8,53.6 85.2,53.6 61.7,91.1   "></polygon>	</g></g><g id="Editables" class="st5">	<circle id="Ellipse_24_00000093153147708030083160000011286729689101225397_" class="st7" cx="72.7" cy="72.7" r="72.5"></circle>	<g class="st8">		<text transform="matrix(0.583 0 0 0.583 42.1792 75.0176)" class="st2 st11 st12 st13">1</text>		<text transform="matrix(0.583 0 0 0.583 80.1792 91.6842)" class="st2 st11 st12 st13">3</text>		<polygon class="st2" points="58.3,91.1 81.8,53.6 85.2,53.6 61.7,91.1   "></polygon>	</g></g></svg>