<svg xmlns="http://www.w3.org/2000/svg" xmlns:xlink="http://www.w3.org/1999/xlink" x="0px" y="0px" viewBox="0 0 145 145" style="enable-background:new 0 0 145 145;" xml:space="preserve"><style type="text/css">	.st0{fill:#1B4053;}	.st1{fill:#07799D;}	.st2{fill:#FFFFFF;}	.st3{fill:#FFFFFF;stroke:#FFFFFF;}	.st4{fill:#125A75;}	.st5{display:none;}	.st6{display:inline;fill:#1B4053;}	.st7{display:inline;fill:#07799D;}	.st8{display:inline;}	.st9{display:inline;fill:#FFFFFF;}	.st10{font-family:'AktivGroteskEx-Bold';}	.st11{font-size:53.3842px;}	.st12{letter-spacing:-4;}	.st13{display:inline;fill:#FFFFFF;stroke:#FFFFFF;}	.st14{display:inline;fill:#125A75;}</style><g id="Layer_1">	<circle id="Ellipse_40" class="st1" cx="72.9" cy="72.6" r="72.5"></circle>	<g id="Groupe_228" transform="translate(33 54)">		<path id="Trac&#xE9;_217" class="st2" d="M71.2,10.5c-1.2,0.1-2.4-0.4-3.3-1.3c-1.6-2.1-1.6-5,0-7c1.8-1.7,4.7-1.7,6.5,0   c1.6,2.1,1.6,5,0,7C73.7,10.1,72.5,10.6,71.2,10.5z M71.2,9.1c0.8,0.1,1.5-0.3,2-0.8c0.5-0.7,0.7-1.6,0.7-2.5   c0-2.2-0.9-3.4-2.6-3.4c-0.8-0.1-1.5,0.3-2,0.8c-0.5,0.7-0.7,1.6-0.7,2.5C68.6,8,69.5,9.1,71.2,9.1L71.2,9.1z M72.1,16.7l9.6-15.5   h2.1l-9.6,15.5H72.1z M84.7,17c-1.2,0.1-2.4-0.4-3.3-1.3c-1.6-2.1-1.6-5,0-7c1.8-1.7,4.7-1.7,6.5,0c1.6,2.1,1.6,5,0,7   C87.1,16.5,85.9,17,84.7,17L84.7,17z M84.7,15.5c0.8,0.1,1.5-0.3,2-0.8c0.5-0.7,0.7-1.6,0.7-2.5c0-2.2-0.9-3.4-2.6-3.4   c-0.8-0.1-1.5,0.3-2,0.8c-0.5,0.7-0.7,1.6-0.7,2.5C82,14.4,82.9,15.5,84.7,15.5L84.7,15.5z"></path>	</g>	<g>		<path class="st2" d="M41.5,91c3.7-10.9,8.7-21,15.2-30.3H34.4v-6.6h31.1v6c-3.3,4.8-6.3,9.7-8.8,14.7c-2.5,5-4.7,10.4-6.6,16.2   H41.5z"></path>		<path class="st2" d="M87.7,91v-7.8H66.4v-6.1l20.9-23h7.9v23h5.9l-0.9,6.1h-5V91H87.7z M87.7,62.4L74.3,77.1h13.5V62.4z"></path>	</g></g><g id="Editables" class="st5">	<circle id="Ellipse_40_00000060753466017336091980000014175901800192583849_" class="st7" cx="72.9" cy="72.6" r="72.5"></circle>	<g id="Groupe_228_00000145774580848909292760000006108738236979563701_" transform="translate(33 54)" class="st8">		<path id="Trac&#xE9;_217_00000024689085681344728440000010171762636199860914_" class="st2" d="M71.2,10.5c-1.2,0.1-2.4-0.4-3.3-1.3   c-1.6-2.1-1.6-5,0-7c1.8-1.7,4.7-1.7,6.5,0c1.6,2.1,1.6,5,0,7C73.7,10.1,72.5,10.6,71.2,10.5z M71.2,9.1c0.8,0.1,1.5-0.3,2-0.8   c0.5-0.7,0.7-1.6,0.7-2.5c0-2.2-0.9-3.4-2.6-3.4c-0.8-0.1-1.5,0.3-2,0.8c-0.5,0.7-0.7,1.6-0.7,2.5C68.6,8,69.5,9.1,71.2,9.1   L71.2,9.1z M72.1,16.7l9.6-15.5h2.1l-9.6,15.5H72.1z M84.7,17c-1.2,0.1-2.4-0.4-3.3-1.3c-1.6-2.1-1.6-5,0-7c1.8-1.7,4.7-1.7,6.5,0   c1.6,2.1,1.6,5,0,7C87.1,16.5,85.9,17,84.7,17L84.7,17z M84.7,15.5c0.8,0.1,1.5-0.3,2-0.8c0.5-0.7,0.7-1.6,0.7-2.5   c0-2.2-0.9-3.4-2.6-3.4c-0.8-0.1-1.5,0.3-2,0.8c-0.5,0.7-0.7,1.6-0.7,2.5C82,14.4,82.9,15.5,84.7,15.5L84.7,15.5z"></path>	</g>	<text transform="matrix(1 0 0 1 31.9071 90.9895)" class="st9 st10 st11 st12">74</text></g></svg>