<svg xmlns="http://www.w3.org/2000/svg" xmlns:xlink="http://www.w3.org/1999/xlink" x="0px" y="0px" viewBox="0 0 145 145" style="enable-background:new 0 0 145 145;" xml:space="preserve"><style type="text/css">	.st0{fill:#1B4053;}	.st1{fill:#07799D;}	.st2{fill:#FFFFFF;}	.st3{fill:#FFFFFF;stroke:#FFFFFF;}	.st4{fill:#125A75;}	.st5{display:none;}	.st6{display:inline;fill:#1B4053;}	.st7{display:inline;fill:#07799D;}	.st8{display:inline;}	.st9{display:inline;fill:#FFFFFF;}	.st10{font-family:'AktivGroteskEx-Bold';}	.st11{font-size:53.3842px;}	.st12{letter-spacing:-4;}	.st13{letter-spacing:-2;}	.st14{font-family:'AktivGroteskEx-Regular';}	.st15{font-size:36px;}	.st16{letter-spacing:-1.7;}	.st17{display:inline;fill:#FFFFFF;stroke:#FFFFFF;}	.st18{display:inline;fill:#125A75;}</style><g id="Layer_1">	<circle id="Ellipse_24" class="st0" cx="72.7" cy="72.7" r="72.5"></circle>	<g id="Groupe_228_00000158014920503326223820000014603679585252380840_" transform="translate(33 54)">		<path id="Trac&#xE9;_217_00000112619686953785055940000010776809014253144461_" class="st2" d="M79.2,10.5c-1.2,0.1-2.4-0.4-3.3-1.3   c-1.6-2.1-1.6-5,0-7c1.8-1.7,4.7-1.7,6.5,0c1.6,2.1,1.6,5,0,7C81.7,10.1,80.5,10.6,79.2,10.5z M79.2,9.1c0.8,0.1,1.5-0.3,2-0.8   c0.5-0.7,0.7-1.6,0.7-2.5c0-2.2-0.9-3.4-2.6-3.4c-0.8-0.1-1.5,0.3-2,0.8c-0.5,0.7-0.7,1.6-0.7,2.5C76.6,8,77.5,9.1,79.2,9.1   L79.2,9.1z M80.1,16.7l9.6-15.5h2.1l-9.6,15.5H80.1z M92.7,17c-1.2,0.1-2.4-0.4-3.3-1.3c-1.6-2.1-1.6-5,0-7c1.8-1.7,4.7-1.7,6.5,0   c1.6,2.1,1.6,5,0,7C95.1,16.5,93.9,17,92.7,17L92.7,17z M92.7,15.5c0.8,0.1,1.5-0.3,2-0.8c0.5-0.7,0.7-1.6,0.7-2.5   c0-2.2-0.9-3.4-2.6-3.4c-0.8-0.1-1.5,0.3-2,0.8c-0.5,0.7-0.7,1.6-0.7,2.5C90,14.4,90.9,15.5,92.7,15.5L92.7,15.5z"></path>	</g>	<g>		<path class="st2" d="M59,91v-7.8H37.6v-6.1l20.9-23h7.9v23h5.9l-0.9,6.1h-5V91H59z M59,62.4L45.5,77.1H59V62.4z"></path>		<path class="st2" d="M72.8,91v-6c1.9-1.4,3.6-2.5,5.1-3.6c1.5-1,2.8-2,4-2.8c1.2-0.9,2.3-1.7,3.4-2.5c2.6-1.9,4.6-3.5,5.9-4.7   c1.3-1.2,2.2-2.3,2.7-3.3c0.5-0.9,0.8-2,0.8-3.1c0-1.8-0.6-3.1-1.7-4.1c-1.2-0.9-2.9-1.4-5.1-1.4c-2.2,0-3.9,0.4-5.1,1.3   c-1.2,0.9-2.1,2.3-2.7,4.4l-7.7-0.9c0.7-3.7,2.4-6.6,5.1-8.5c2.7-1.9,6.3-2.9,10.8-2.9c4.7,0,8.3,1,10.9,3c2.6,2,3.9,4.8,3.9,8.3   c0,1.8-0.3,3.4-1,4.9s-1.7,2.9-3.2,4.3c-1.5,1.4-3.5,3.1-6,4.8c-2.6,1.9-5.5,3.8-8.8,6h19.6l-1,6.6H72.8z"></path>	</g>	<path id="Trac&#xE9;_144" class="st3" d="M22.7,82.2l1.1,1.1L27,80v9.8h1.5V80l3.2,3.2l1.1-1.1l-5.1-5.1L22.7,82.2z"></path></g><g id="Editables" class="st5">	<circle id="Ellipse_24_00000120560852555853837120000017101109535218550952_" class="st6" cx="72.7" cy="72.7" r="72.5"></circle>	<g id="Groupe_228_00000177481158400068719650000012705352678337216174_" transform="translate(33 54)" class="st8">		<path id="Trac&#xE9;_217_00000176759420108466029550000015956624835769330848_" class="st2" d="M79.2,10.5c-1.2,0.1-2.4-0.4-3.3-1.3   c-1.6-2.1-1.6-5,0-7c1.8-1.7,4.7-1.7,6.5,0c1.6,2.1,1.6,5,0,7C81.7,10.1,80.5,10.6,79.2,10.5z M79.2,9.1c0.8,0.1,1.5-0.3,2-0.8   c0.5-0.7,0.7-1.6,0.7-2.5c0-2.2-0.9-3.4-2.6-3.4c-0.8-0.1-1.5,0.3-2,0.8c-0.5,0.7-0.7,1.6-0.7,2.5C76.6,8,77.5,9.1,79.2,9.1   L79.2,9.1z M80.1,16.7l9.6-15.5h2.1l-9.6,15.5H80.1z M92.7,17c-1.2,0.1-2.4-0.4-3.3-1.3c-1.6-2.1-1.6-5,0-7c1.8-1.7,4.7-1.7,6.5,0   c1.6,2.1,1.6,5,0,7C95.1,16.5,93.9,17,92.7,17L92.7,17z M92.7,15.5c0.8,0.1,1.5-0.3,2-0.8c0.5-0.7,0.7-1.6,0.7-2.5   c0-2.2-0.9-3.4-2.6-3.4c-0.8-0.1-1.5,0.3-2,0.8c-0.5,0.7-0.7,1.6-0.7,2.5C90,14.4,90.9,15.5,92.7,15.5L92.7,15.5z"></path>	</g>	<text transform="matrix(1 0 0 1 36.2357 90.9895)" class="st9 st10 st11 st12">4</text>	<text transform="matrix(1 0 0 1 69.3339 90.9895)" class="st9 st10 st11 st13">2</text>	<text transform="matrix(0.583 0 0 0.583 104.5673 71.0017)" class="st9 st14 st15 st16"> </text>	<path id="Trac&#xE9;_144_00000170974701808428160450000007579650607338518962_" class="st17" d="M22.7,82.2l1.1,1.1L27,80v9.8h1.5V80  l3.2,3.2l1.1-1.1l-5.1-5.1L22.7,82.2z"></path></g></svg>