<svg xmlns="http://www.w3.org/2000/svg" xmlns:xlink="http://www.w3.org/1999/xlink" x="0px" y="0px" viewBox="0 0 145 145" style="enable-background:new 0 0 145 145;" xml:space="preserve"><style type="text/css">	.st0{fill:#1B4053;}	.st1{fill:#07799D;}	.st2{fill:#FFFFFF;}	.st3{fill:#FFFFFF;stroke:#FFFFFF;}	.st4{fill:#125A75;}	.st5{display:none;}	.st6{display:inline;fill:#1B4053;}	.st7{display:inline;fill:#07799D;}	.st8{display:inline;}	.st9{display:inline;fill:#FFFFFF;stroke:#FFFFFF;}	.st10{display:inline;fill:#125A75;}	.st11{display:inline;fill:#FFFFFF;}	.st12{font-family:'AktivGroteskEx-Bold';}	.st13{font-size:53.3842px;}	.st14{letter-spacing:-3;}	.st15{font-family:'AktivGroteskEx-Regular';}	.st16{font-size:36px;}	.st17{letter-spacing:-1.7;}</style><g id="Layer_1">	<circle id="Ellipse_24_00000074401956405640197190000014236539192703464121_" class="st4" cx="72.7" cy="72.7" r="72.5"></circle>	<g id="Groupe_228_00000063594282161605660720000016488296492609609625_" transform="translate(33 54)">		<path id="Trac&#xE9;_217_00000161589837556159406690000009275267679234116760_" class="st2" d="M74.2,10.5c-1.2,0.1-2.4-0.4-3.3-1.3   c-1.6-2.1-1.6-5,0-7c1.8-1.7,4.7-1.7,6.5,0c1.6,2.1,1.6,5,0,7C76.7,10.1,75.5,10.6,74.2,10.5z M74.2,9.1c0.8,0.1,1.5-0.3,2-0.8   c0.5-0.7,0.7-1.6,0.7-2.5c0-2.2-0.9-3.4-2.6-3.4c-0.8-0.1-1.5,0.3-2,0.8c-0.5,0.7-0.7,1.6-0.7,2.5C71.6,8,72.5,9.1,74.2,9.1   L74.2,9.1z M75.1,16.7l9.6-15.5h2.1l-9.6,15.5H75.1z M87.7,17c-1.2,0.1-2.4-0.4-3.3-1.3c-1.6-2.1-1.6-5,0-7c1.8-1.7,4.7-1.7,6.5,0   c1.6,2.1,1.6,5,0,7C90.1,16.5,88.9,17,87.7,17L87.7,17z M87.7,15.5c0.8,0.1,1.5-0.3,2-0.8c0.5-0.7,0.7-1.6,0.7-2.5   c0-2.2-0.9-3.4-2.6-3.4c-0.8-0.1-1.5,0.3-2,0.8c-0.5,0.7-0.7,1.6-0.7,2.5C85,14.4,85.9,15.5,87.7,15.5L87.7,15.5z"></path>	</g>	<g>		<path class="st2" d="M54,91v-7.8H32.6v-6.1l20.9-23h7.9v23h5.9l-0.9,6.1h-5V91H54z M54,62.4L40.5,77.1H54V62.4z"></path>		<path class="st2" d="M91.9,74.1c-2.2,2.4-5.6,3.6-9.9,3.6c-4.4,0-7.8-1.1-10.3-3.2c-2.4-2.1-3.7-5.1-3.7-8.9   c0-2.5,0.6-4.6,1.9-6.5c1.2-1.9,3.1-3.4,5.4-4.4c2.4-1.1,5.2-1.6,8.3-1.6c5.2,0,9.2,1.6,11.9,4.7c2.7,3.1,4.1,7.7,4.1,13.8   c0,6.5-1.4,11.5-4.2,15.1S88.8,92,83.7,92c-4.5,0-8-0.9-10.5-2.6c-2.5-1.7-4-4.3-4.4-7.7h7.7c0.4,1.4,1.1,2.4,2.3,3   c1.1,0.6,2.8,0.9,4.9,0.9c2.6,0,4.5-0.9,5.8-2.6c1.3-1.7,2.1-4.5,2.4-8.2L91.9,74.1z M91.3,66c0-2-0.7-3.5-2.1-4.7   c-1.4-1.2-3.2-1.8-5.5-1.8c-2.4,0-4.3,0.6-5.8,1.7c-1.4,1.1-2.1,2.6-2.1,4.6c0,4.1,2.6,6.1,7.7,6.1c2.4,0,4.3-0.5,5.7-1.6   C90.6,69.1,91.3,67.7,91.3,66z"></path>	</g></g><g id="Editables" class="st5">	<circle id="Ellipse_24_00000111187975882207476260000015983358744181671832_" class="st10" cx="72.7" cy="72.7" r="72.5"></circle>	<g id="Groupe_228_00000076574754624410477350000000101520788296535978_" transform="translate(33 54)" class="st8">		<path id="Trac&#xE9;_217_00000062185186272258769070000006187533499642091654_" class="st2" d="M74.2,10.5c-1.2,0.1-2.4-0.4-3.3-1.3   c-1.6-2.1-1.6-5,0-7c1.8-1.7,4.7-1.7,6.5,0c1.6,2.1,1.6,5,0,7C76.7,10.1,75.5,10.6,74.2,10.5z M74.2,9.1c0.8,0.1,1.5-0.3,2-0.8   c0.5-0.7,0.7-1.6,0.7-2.5c0-2.2-0.9-3.4-2.6-3.4c-0.8-0.1-1.5,0.3-2,0.8c-0.5,0.7-0.7,1.6-0.7,2.5C71.6,8,72.5,9.1,74.2,9.1   L74.2,9.1z M75.1,16.7l9.6-15.5h2.1l-9.6,15.5H75.1z M87.7,17c-1.2,0.1-2.4-0.4-3.3-1.3c-1.6-2.1-1.6-5,0-7c1.8-1.7,4.7-1.7,6.5,0   c1.6,2.1,1.6,5,0,7C90.1,16.5,88.9,17,87.7,17L87.7,17z M87.7,15.5c0.8,0.1,1.5-0.3,2-0.8c0.5-0.7,0.7-1.6,0.7-2.5   c0-2.2-0.9-3.4-2.6-3.4c-0.8-0.1-1.5,0.3-2,0.8c-0.5,0.7-0.7,1.6-0.7,2.5C85,14.4,85.9,15.5,87.7,15.5L87.7,15.5z"></path>	</g>	<text transform="matrix(1 0 0 1 31.2357 90.9895)" class="st11 st12 st13 st14">49</text>	<text transform="matrix(0.583 0 0 0.583 99.5673 71.0017)" class="st11 st15 st16 st17"> </text></g></svg>