<svg xmlns="http://www.w3.org/2000/svg" xmlns:xlink="http://www.w3.org/1999/xlink" x="0px" y="0px" viewBox="0 0 145 145" style="enable-background:new 0 0 145 145;" xml:space="preserve"><style type="text/css">	.st0{fill:#1B4053;}	.st1{fill:#07799D;}	.st2{fill:#FFFFFF;}	.st3{fill:#FFFFFF;stroke:#FFFFFF;}	.st4{fill:#125A75;}	.st5{display:none;}	.st6{display:inline;fill:#1B4053;}	.st7{display:inline;fill:#07799D;}	.st8{display:inline;}	.st9{display:inline;fill:#FFFFFF;stroke:#FFFFFF;}	.st10{display:inline;fill:#125A75;}	.st11{font-family:'AktivGroteskEx-XBold';}	.st12{font-size:56.0763px;}	.st13{letter-spacing:-3.4;}</style><g id="Layer_1">	<g id="Groupe_228_00000057849434192189427700000006262796666862964118_" transform="translate(33 54)">		<path id="Trac&#xE9;_217_00000067214961333634247230000002515419168647722391_" class="st2" d="M71.2,10.5c-1.2,0.1-2.4-0.4-3.3-1.3   c-1.6-2.1-1.6-5,0-7c1.8-1.7,4.7-1.7,6.5,0c1.6,2.1,1.6,5,0,7C73.7,10.1,72.5,10.6,71.2,10.5z M71.2,9.1c0.8,0.1,1.5-0.3,2-0.8   c0.5-0.7,0.7-1.6,0.7-2.5c0-2.2-0.9-3.4-2.6-3.4c-0.8-0.1-1.5,0.3-2,0.8c-0.5,0.7-0.7,1.6-0.7,2.5C68.6,8,69.5,9.1,71.2,9.1   L71.2,9.1z M72.1,16.7l9.6-15.5h2.1l-9.6,15.5H72.1z M84.7,17c-1.2,0.1-2.4-0.4-3.3-1.3c-1.6-2.1-1.6-5,0-7c1.8-1.7,4.7-1.7,6.5,0   c1.6,2.1,1.6,5,0,7C87.1,16.5,85.9,17,84.7,17L84.7,17z M84.7,15.5c0.8,0.1,1.5-0.3,2-0.8c0.5-0.7,0.7-1.6,0.7-2.5   c0-2.2-0.9-3.4-2.6-3.4c-0.8-0.1-1.5,0.3-2,0.8c-0.5,0.7-0.7,1.6-0.7,2.5C82,14.4,82.9,15.5,84.7,15.5L84.7,15.5z"></path>	</g>	<g id="Component_20_1">		<circle id="Ellipse_39" class="st4" cx="72.5" cy="72.5" r="72.5"></circle>	</g>	<g>		<g>			<path class="st2" d="M47,75V59.5l-4.7,3l-2.9-4.4l8.7-5.6h5.5V75H47z"></path>		</g>		<g>			<path class="st2" d="M76.9,91.7V76.2l-4.7,3l-2.9-4.4l8.7-5.6h5.5v22.6H76.9z"></path>			<path class="st2" d="M98,92.3c-3.5,0-6-1-7.7-2.9c-1.7-2-2.5-4.9-2.5-8.9c0-8,3.5-11.9,10.4-11.9c3.5,0,6,1,7.7,2.9    c1.7,2,2.5,4.9,2.5,8.9C108.4,88.3,105,92.3,98,92.3z M98.1,87.1c1.4,0,2.3-0.5,2.9-1.5c0.5-1,0.8-2.8,0.8-5.2c0-1.7-0.1-3-0.4-4    s-0.6-1.7-1.1-2.1c-0.5-0.4-1.2-0.6-2.1-0.6c-1.4,0-2.3,0.5-2.9,1.5s-0.8,2.8-0.8,5.2c0,1.7,0.1,3,0.4,4c0.2,1,0.6,1.7,1.1,2.1    C96.5,86.9,97.2,87.1,98.1,87.1z"></path>		</g>		<polygon class="st2" points="50.7,91.1 74.2,53.6 77.6,53.6 54.1,91.1   "></polygon>	</g></g><g id="Editables" class="st5">	<g id="Groupe_228_00000054265451159813206270000005700537876974785198_" transform="translate(33 54)" class="st8">		<path id="Trac&#xE9;_217_00000093141701596991417620000009151174226921966722_" class="st2" d="M71.2,10.5c-1.2,0.1-2.4-0.4-3.3-1.3   c-1.6-2.1-1.6-5,0-7c1.8-1.7,4.7-1.7,6.5,0c1.6,2.1,1.6,5,0,7C73.7,10.1,72.5,10.6,71.2,10.5z M71.2,9.1c0.8,0.1,1.5-0.3,2-0.8   c0.5-0.7,0.7-1.6,0.7-2.5c0-2.2-0.9-3.4-2.6-3.4c-0.8-0.1-1.5,0.3-2,0.8c-0.5,0.7-0.7,1.6-0.7,2.5C68.6,8,69.5,9.1,71.2,9.1   L71.2,9.1z M72.1,16.7l9.6-15.5h2.1l-9.6,15.5H72.1z M84.7,17c-1.2,0.1-2.4-0.4-3.3-1.3c-1.6-2.1-1.6-5,0-7c1.8-1.7,4.7-1.7,6.5,0   c1.6,2.1,1.6,5,0,7C87.1,16.5,85.9,17,84.7,17L84.7,17z M84.7,15.5c0.8,0.1,1.5-0.3,2-0.8c0.5-0.7,0.7-1.6,0.7-2.5   c0-2.2-0.9-3.4-2.6-3.4c-0.8-0.1-1.5,0.3-2,0.8c-0.5,0.7-0.7,1.6-0.7,2.5C82,14.4,82.9,15.5,84.7,15.5L84.7,15.5z"></path>	</g>	<g id="Component_20_1_00000098923689227251472290000009919127963427464320_" class="st8">		<circle id="Ellipse_39_00000025408332591002638620000008585109114367767954_" class="st4" cx="72.5" cy="72.5" r="72.5"></circle>	</g>	<g class="st8">		<text transform="matrix(0.583 0 0 0.583 36.5625 75.0176)" class="st2 st11 st12 st13">1</text>		<text transform="matrix(0.583 0 0 0.583 66.4277 91.6842)" class="st2 st11 st12 st13">10</text>		<polygon class="st2" points="50.7,91.1 74.2,53.6 77.6,53.6 54.1,91.1   "></polygon>	</g></g></svg>