<svg xmlns="http://www.w3.org/2000/svg" xmlns:xlink="http://www.w3.org/1999/xlink" x="0px" y="0px" viewBox="0 0 145 145" style="enable-background:new 0 0 145 145;" xml:space="preserve"><style type="text/css">	.st0{fill:#1B4053;}	.st1{fill:#07799D;}	.st2{fill:#FFFFFF;}	.st3{fill:#FFFFFF;stroke:#FFFFFF;}	.st4{fill:#125A75;}	.st5{display:none;}	.st6{display:inline;fill:#1B4053;}	.st7{display:inline;fill:#07799D;}	.st8{display:inline;}	.st9{display:inline;fill:#FFFFFF;stroke:#FFFFFF;}	.st10{display:inline;fill:#125A75;}	.st11{display:inline;fill:#FFFFFF;}	.st12{font-family:'AktivGroteskEx-Bold';}	.st13{font-size:53.3842px;}	.st14{letter-spacing:-3;}	.st15{font-family:'AktivGroteskEx-Regular';}	.st16{font-size:36px;}	.st17{letter-spacing:-1.7;}</style><g id="Layer_1">	<circle id="Ellipse_24_00000013913212785215099160000016876937493537736331_" class="st1" cx="72.7" cy="72.7" r="72.5"></circle>	<g id="Groupe_228_00000165928764668971460340000014457959807838059651_" transform="translate(33 54)">		<path id="Trac&#xE9;_217_00000036248395951338955570000012575362171297342614_" class="st2" d="M76.2,10.5c-1.2,0.1-2.4-0.4-3.3-1.3   c-1.6-2.1-1.6-5,0-7c1.8-1.7,4.7-1.7,6.5,0c1.6,2.1,1.6,5,0,7C78.7,10.1,77.5,10.6,76.2,10.5z M76.2,9.1c0.8,0.1,1.5-0.3,2-0.8   c0.5-0.7,0.7-1.6,0.7-2.5c0-2.2-0.9-3.4-2.6-3.4c-0.8-0.1-1.5,0.3-2,0.8c-0.5,0.7-0.7,1.6-0.7,2.5C73.6,8,74.5,9.1,76.2,9.1   L76.2,9.1z M77.1,16.7l9.6-15.5h2.1l-9.6,15.5H77.1z M89.7,17c-1.2,0.1-2.4-0.4-3.3-1.3c-1.6-2.1-1.6-5,0-7c1.8-1.7,4.7-1.7,6.5,0   c1.6,2.1,1.6,5,0,7C92.1,16.5,90.9,17,89.7,17L89.7,17z M89.7,15.5c0.8,0.1,1.5-0.3,2-0.8c0.5-0.7,0.7-1.6,0.7-2.5   c0-2.2-0.9-3.4-2.6-3.4c-0.8-0.1-1.5,0.3-2,0.8c-0.5,0.7-0.7,1.6-0.7,2.5C87,14.4,87.9,15.5,89.7,15.5L89.7,15.5z"></path>	</g>	<g>		<path class="st2" d="M36.7,91v-6c1.9-1.4,3.6-2.5,5.1-3.6c1.5-1,2.8-2,4-2.8c1.2-0.9,2.3-1.7,3.4-2.5c2.6-1.9,4.6-3.5,5.9-4.7   s2.2-2.3,2.8-3.3c0.5-0.9,0.8-2,0.8-3.1c0-1.8-0.6-3.1-1.7-4.1c-1.2-0.9-2.9-1.4-5.1-1.4c-2.2,0-3.9,0.4-5.1,1.3   c-1.2,0.9-2.1,2.3-2.7,4.4l-7.7-0.9c0.7-3.7,2.4-6.6,5.1-8.5c2.7-1.9,6.3-2.9,10.8-2.9c4.7,0,8.3,1,10.9,3c2.6,2,3.9,4.8,3.9,8.3   c0,1.8-0.3,3.4-1,4.9c-0.7,1.4-1.7,2.9-3.2,4.3c-1.5,1.4-3.5,3.1-6,4.8c-2.6,1.9-5.5,3.8-8.8,6h19.6l-1,6.6H36.7z"></path>		<path class="st2" d="M81.5,75.2v-6.5h4.9c2.2,0,3.9-0.4,5.1-1.2c1.2-0.8,1.8-1.9,1.8-3.4s-0.6-2.6-1.8-3.4c-1.2-0.8-3-1.1-5.4-1.1   c-2.2,0-3.9,0.4-5.2,1.3c-1.2,0.9-2.1,2.3-2.6,4.2l-7.6-1c0.6-3.5,2.3-6.2,5-8.1c2.7-1.9,6.3-2.8,10.7-2.8c4.6,0,8.1,0.9,10.8,2.7   c2.6,1.8,3.9,4.2,3.9,7.3c0,4-2.1,6.8-6.2,8.3c4.9,1.6,7.4,4.6,7.4,9.1c0,3.6-1.4,6.4-4.2,8.5c-2.8,2-6.7,3.1-11.7,3.1   c-4.9,0-8.8-1.1-11.6-3.3c-2.8-2.2-4.3-5.3-4.6-9.4h7.8c0.3,2.2,1.1,3.8,2.4,4.8c1.3,1,3.2,1.5,5.9,1.5c2.6,0,4.6-0.5,6-1.4   c1.4-0.9,2.1-2.2,2.1-4c0-3.3-2.6-5-7.8-5H81.5z"></path>	</g></g><g id="Editables" class="st5">	<circle id="Ellipse_24_00000109011582339864441620000004317106898576373688_" class="st7" cx="72.7" cy="72.7" r="72.5"></circle>	<g id="Groupe_228_00000085241863018714598330000002918549766485991589_" transform="translate(33 54)" class="st8">		<path id="Trac&#xE9;_217_00000159457610457414430770000014479138093261388947_" class="st2" d="M76.2,10.5c-1.2,0.1-2.4-0.4-3.3-1.3   c-1.6-2.1-1.6-5,0-7c1.8-1.7,4.7-1.7,6.5,0c1.6,2.1,1.6,5,0,7C78.7,10.1,77.5,10.6,76.2,10.5z M76.2,9.1c0.8,0.1,1.5-0.3,2-0.8   c0.5-0.7,0.7-1.6,0.7-2.5c0-2.2-0.9-3.4-2.6-3.4c-0.8-0.1-1.5,0.3-2,0.8c-0.5,0.7-0.7,1.6-0.7,2.5C73.6,8,74.5,9.1,76.2,9.1   L76.2,9.1z M77.1,16.7l9.6-15.5h2.1l-9.6,15.5H77.1z M89.7,17c-1.2,0.1-2.4-0.4-3.3-1.3c-1.6-2.1-1.6-5,0-7c1.8-1.7,4.7-1.7,6.5,0   c1.6,2.1,1.6,5,0,7C92.1,16.5,90.9,17,89.7,17L89.7,17z M89.7,15.5c0.8,0.1,1.5-0.3,2-0.8c0.5-0.7,0.7-1.6,0.7-2.5   c0-2.2-0.9-3.4-2.6-3.4c-0.8-0.1-1.5,0.3-2,0.8c-0.5,0.7-0.7,1.6-0.7,2.5C87,14.4,87.9,15.5,89.7,15.5L89.7,15.5z"></path>	</g>	<text transform="matrix(1 0 0 1 33.2357 90.9895)" class="st11 st12 st13 st14">23</text>	<text transform="matrix(0.583 0 0 0.583 101.5673 71.0017)" class="st11 st15 st16 st17"> </text></g></svg>